SplineFontDB: 3.2
FontName: Dot_Matrix
FullName: Dot Matrix
FamilyName: Dot Matrix
Weight: Book
Copyright: SIL Open Font License
Version: 1.0
ItalicAngle: 0
UnderlinePosition: -2
UnderlineWidth: 1
Ascent: 6553
Descent: 1639
InvalidEm: 0
sfntRevision: 0x00010000
LayerCount: 2
Layer: 0 1 "Back" 1
Layer: 1 1 "Fore" 0
XUID: [1021 1014 -1893411048 12765754]
StyleMap: 0x0040
FSType: 0
OS2Version: 2
OS2_WeightWidthSlopeOnly: 0
OS2_UseTypoMetrics: 0
CreationTime: 1523012910
ModificationTime: 1695058075
PfmFamily: 81
TTFWeight: 400
TTFWidth: 5
LineGap: 0
VLineGap: 0
Panose: 0 0 0 0 0 0 0 0 0 0
OS2TypoAscent: 5734
OS2TypoAOffset: 0
OS2TypoDescent: -1638
OS2TypoDOffset: 0
OS2TypoLinegap: 100
OS2WinAscent: 5734
OS2WinAOffset: 0
OS2WinDescent: 1638
OS2WinDOffset: 0
HheadAscent: 5734
HheadAOffset: 0
HheadDescent: -1638
HheadDOffset: 0
OS2SubXSize: 40
OS2SubYSize: 40
OS2SubXOff: 40
OS2SubYOff: 40
OS2SupXSize: 40
OS2SupYSize: 40
OS2SupXOff: 40
OS2SupYOff: 40
OS2StrikeYSize: 40
OS2StrikeYPos: 200
OS2CapHeight: 5734
OS2XHeight: 4096
OS2Vendor: 'Bird'
OS2CodePages: 203f00ff.08010000
OS2UnicodeRanges: 00000001.00000000.00000000.00000000
Lookup: 265 0 0 "'kern' Horizontal Kerning lookup 0" { } [' RQD' ('DFLT' <'dflt' > ) 'kern' ('DFLT' <'dflt' > ) ]
DEI: 91125
ShortTable: maxp 16
  1
  0
  97
  644
  20
  0
  0
  1
  0
  0
  0
  0
  0
  0
  0
  0
EndShort
LangName: 1033 "" "" "Regular" "Dot Matrix Regular" "" "Version 1.0" "" "" "Daniel Hart" "Daniel Hart" "" "www.danielhart.co.uk" "www.danielhart.co.uk" "SIL Open Font License" "http://scripts.sil.org/OFL"
GaspTable: 1 65535 2 0
Encoding: UnicodeFull
UnicodeInterp: none
NameList: AGL For New Fonts
DisplaySize: -128
AntiAlias: 1
FitToEm: 0
WinInfo: 208 8 3
BeginChars: 1114113 100

StartChar: .notdef
Encoding: 1114112 -1 0
Width: 4096
GlyphClass: 1
Flags: W
LayerCount: 2
Fore
SplineSet
699 120 m 0,0,1
 644 65 644 65 566 32 c 0,2,3
 488 0 488 0 410 0 c 0,4,5
 331 0 331 0 253 32 c 0,6,7
 175 65 175 65 120 120 c 256,8,9
 65 175 65 175 32 253 c 0,10,11
 0 331 0 331 0 410 c 0,12,13
 0 488 0 488 32 566 c 0,14,15
 65 644 65 644 120 699 c 0,16,17
 175 755 175 755 253 787 c 256,18,19
 331 819 331 819 410 819 c 0,20,21
 488 819 488 819 566 787 c 256,22,23
 644 755 644 755 699 699 c 0,24,25
 755 644 755 644 787 566 c 256,26,27
 819 488 819 488 819 410 c 0,28,29
 819 331 819 331 787 253 c 256,30,31
 755 175 755 175 699 120 c 0,0,1
1518 120 m 0,32,33
 1463 65 1463 65 1385 32 c 0,34,35
 1307 0 1307 0 1229 0 c 0,36,37
 1150 0 1150 0 1073 32 c 0,38,39
 995 65 995 65 939 120 c 0,40,41
 884 175 884 175 851 253 c 0,42,43
 819 331 819 331 819 410 c 0,44,45
 819 488 819 488 851 566 c 0,46,47
 884 644 884 644 939 699 c 0,48,49
 995 755 995 755 1073 787 c 0,50,51
 1150 819 1150 819 1229 819 c 0,52,53
 1307 819 1307 819 1385 787 c 256,54,55
 1463 755 1463 755 1518 699 c 0,56,57
 1574 644 1574 644 1606 566 c 256,58,59
 1638 488 1638 488 1638 410 c 0,60,61
 1638 331 1638 331 1606 253 c 256,62,63
 1574 175 1574 175 1518 120 c 0,32,33
2338 120 m 0,64,65
 2282 65 2282 65 2204 32 c 0,66,67
 2126 0 2126 0 2048 0 c 256,68,69
 1970 0 1970 0 1892 32 c 0,70,71
 1814 65 1814 65 1758 120 c 0,72,73
 1703 175 1703 175 1671 253 c 0,74,75
 1638 331 1638 331 1638 410 c 0,76,77
 1638 488 1638 488 1671 566 c 0,78,79
 1703 644 1703 644 1758 699 c 0,80,81
 1814 755 1814 755 1892 787 c 256,82,83
 1970 819 1970 819 2048 819 c 256,84,85
 2126 819 2126 819 2204 787 c 256,86,87
 2282 755 2282 755 2338 699 c 0,88,89
 2393 644 2393 644 2425 566 c 0,90,91
 2458 488 2458 488 2458 410 c 0,92,93
 2458 331 2458 331 2425 253 c 0,94,95
 2393 175 2393 175 2338 120 c 0,64,65
3157 120 m 0,96,97
 3101 65 3101 65 3023 32 c 0,98,99
 2946 0 2946 0 2867 0 c 0,100,101
 2789 0 2789 0 2711 32 c 0,102,103
 2633 65 2633 65 2578 120 c 0,104,105
 2522 175 2522 175 2490 253 c 256,106,107
 2458 331 2458 331 2458 410 c 0,108,109
 2458 488 2458 488 2490 566 c 256,110,111
 2522 644 2522 644 2578 699 c 0,112,113
 2633 755 2633 755 2711 787 c 256,114,115
 2789 819 2789 819 2867 819 c 0,116,117
 2946 819 2946 819 3023 787 c 0,118,119
 3101 755 3101 755 3157 699 c 0,120,121
 3212 644 3212 644 3245 566 c 0,122,123
 3277 488 3277 488 3277 410 c 0,124,125
 3277 331 3277 331 3245 253 c 0,126,127
 3212 175 3212 175 3157 120 c 0,96,97
3976 120 m 256,128,129
 3921 65 3921 65 3843 32 c 0,130,131
 3765 0 3765 0 3686 0 c 0,132,133
 3608 0 3608 0 3530 32 c 0,134,135
 3452 65 3452 65 3397 120 c 0,136,137
 3341 175 3341 175 3309 253 c 256,138,139
 3277 331 3277 331 3277 410 c 0,140,141
 3277 488 3277 488 3309 566 c 256,142,143
 3341 644 3341 644 3397 699 c 0,144,145
 3452 755 3452 755 3530 787 c 256,146,147
 3608 819 3608 819 3686 819 c 0,148,149
 3765 819 3765 819 3843 787 c 256,150,151
 3921 755 3921 755 3976 699 c 0,152,153
 4031 644 4031 644 4064 566 c 0,154,155
 4096 488 4096 488 4096 410 c 0,156,157
 4096 331 4096 331 4064 253 c 0,158,159
 4031 175 4031 175 3976 120 c 256,128,129
699 939 m 0,160,161
 644 884 644 884 566 851 c 0,162,163
 488 819 488 819 410 819 c 0,164,165
 331 819 331 819 253 851 c 0,166,167
 175 884 175 884 120 939 c 0,168,169
 65 995 65 995 32 1073 c 0,170,171
 0 1150 0 1150 0 1229 c 0,172,173
 0 1307 0 1307 32 1385 c 0,174,175
 65 1463 65 1463 120 1518 c 0,176,177
 175 1574 175 1574 253 1606 c 256,178,179
 331 1638 331 1638 410 1638 c 0,180,181
 488 1638 488 1638 566 1606 c 256,182,183
 644 1574 644 1574 699 1518 c 0,184,185
 755 1463 755 1463 787 1385 c 256,186,187
 819 1307 819 1307 819 1229 c 0,188,189
 819 1150 819 1150 787 1073 c 0,190,191
 755 995 755 995 699 939 c 0,160,161
3976 939 m 0,192,193
 3921 884 3921 884 3843 851 c 0,194,195
 3765 819 3765 819 3686 819 c 0,196,197
 3608 819 3608 819 3530 851 c 0,198,199
 3452 884 3452 884 3397 939 c 0,200,201
 3341 995 3341 995 3309 1073 c 0,202,203
 3277 1150 3277 1150 3277 1229 c 0,204,205
 3277 1307 3277 1307 3309 1385 c 256,206,207
 3341 1463 3341 1463 3397 1518 c 0,208,209
 3452 1574 3452 1574 3530 1606 c 256,210,211
 3608 1638 3608 1638 3686 1638 c 0,212,213
 3765 1638 3765 1638 3843 1606 c 256,214,215
 3921 1574 3921 1574 3976 1518 c 0,216,217
 4031 1463 4031 1463 4064 1385 c 0,218,219
 4096 1307 4096 1307 4096 1229 c 0,220,221
 4096 1150 4096 1150 4064 1073 c 0,222,223
 4031 995 4031 995 3976 939 c 0,192,193
699 1758 m 0,224,225
 644 1703 644 1703 566 1671 c 0,226,227
 488 1638 488 1638 410 1638 c 0,228,229
 331 1638 331 1638 253 1671 c 0,230,231
 175 1703 175 1703 120 1758 c 0,232,233
 65 1814 65 1814 32 1892 c 0,234,235
 0 1970 0 1970 0 2048 c 256,236,237
 0 2126 0 2126 32 2204 c 0,238,239
 65 2282 65 2282 120 2338 c 0,240,241
 175 2393 175 2393 253 2425 c 0,242,243
 331 2458 331 2458 410 2458 c 0,244,245
 488 2458 488 2458 566 2425 c 0,246,247
 644 2393 644 2393 699 2338 c 0,248,249
 755 2282 755 2282 787 2204 c 256,250,251
 819 2126 819 2126 819 2048 c 256,252,253
 819 1970 819 1970 787 1892 c 256,254,255
 755 1814 755 1814 699 1758 c 0,224,225
3976 1758 m 0,256,257
 3921 1703 3921 1703 3843 1671 c 0,258,259
 3765 1638 3765 1638 3686 1638 c 0,260,261
 3608 1638 3608 1638 3530 1671 c 0,262,263
 3452 1703 3452 1703 3397 1758 c 0,264,265
 3341 1814 3341 1814 3309 1892 c 256,266,267
 3277 1970 3277 1970 3277 2048 c 256,268,269
 3277 2126 3277 2126 3309 2204 c 256,270,271
 3341 2282 3341 2282 3397 2338 c 0,272,273
 3452 2393 3452 2393 3530 2425 c 0,274,275
 3608 2458 3608 2458 3686 2458 c 0,276,277
 3765 2458 3765 2458 3843 2425 c 0,278,279
 3921 2393 3921 2393 3976 2338 c 0,280,281
 4031 2282 4031 2282 4064 2204 c 0,282,283
 4096 2126 4096 2126 4096 2048 c 256,284,285
 4096 1970 4096 1970 4064 1892 c 0,286,287
 4031 1814 4031 1814 3976 1758 c 0,256,257
699 2578 m 0,288,289
 644 2522 644 2522 566 2490 c 256,290,291
 488 2458 488 2458 410 2458 c 0,292,293
 331 2458 331 2458 253 2490 c 256,294,295
 175 2522 175 2522 120 2578 c 0,296,297
 65 2633 65 2633 32 2711 c 0,298,299
 0 2789 0 2789 0 2867 c 0,300,301
 0 2946 0 2946 32 3023 c 0,302,303
 65 3101 65 3101 120 3157 c 0,304,305
 175 3212 175 3212 253 3245 c 0,306,307
 331 3277 331 3277 410 3277 c 0,308,309
 488 3277 488 3277 566 3245 c 0,310,311
 644 3212 644 3212 699 3157 c 0,312,313
 755 3101 755 3101 787 3023 c 0,314,315
 819 2946 819 2946 819 2867 c 0,316,317
 819 2789 819 2789 787 2711 c 256,318,319
 755 2633 755 2633 699 2578 c 0,288,289
3976 2578 m 0,320,321
 3921 2522 3921 2522 3843 2490 c 256,322,323
 3765 2458 3765 2458 3686 2458 c 0,324,325
 3608 2458 3608 2458 3530 2490 c 256,326,327
 3452 2522 3452 2522 3397 2578 c 0,328,329
 3341 2633 3341 2633 3309 2711 c 256,330,331
 3277 2789 3277 2789 3277 2867 c 0,332,333
 3277 2946 3277 2946 3309 3023 c 0,334,335
 3341 3101 3341 3101 3397 3157 c 0,336,337
 3452 3212 3452 3212 3530 3245 c 0,338,339
 3608 3277 3608 3277 3686 3277 c 0,340,341
 3765 3277 3765 3277 3843 3245 c 0,342,343
 3921 3212 3921 3212 3976 3157 c 0,344,345
 4031 3101 4031 3101 4064 3023 c 0,346,347
 4096 2946 4096 2946 4096 2867 c 0,348,349
 4096 2789 4096 2789 4064 2711 c 0,350,351
 4031 2633 4031 2633 3976 2578 c 0,320,321
699 3397 m 0,352,353
 644 3341 644 3341 566 3309 c 256,354,355
 488 3277 488 3277 410 3277 c 0,356,357
 331 3277 331 3277 253 3309 c 256,358,359
 175 3341 175 3341 120 3397 c 0,360,361
 65 3452 65 3452 32 3530 c 0,362,363
 0 3608 0 3608 0 3686 c 0,364,365
 0 3765 0 3765 32 3843 c 0,366,367
 65 3921 65 3921 120 3976 c 256,368,369
 175 4031 175 4031 253 4064 c 0,370,371
 331 4096 331 4096 410 4096 c 0,372,373
 488 4096 488 4096 566 4064 c 0,374,375
 644 4031 644 4031 699 3976 c 0,376,377
 755 3921 755 3921 787 3843 c 256,378,379
 819 3765 819 3765 819 3686 c 0,380,381
 819 3608 819 3608 787 3530 c 256,382,383
 755 3452 755 3452 699 3397 c 0,352,353
1518 3397 m 0,384,385
 1463 3341 1463 3341 1385 3309 c 256,386,387
 1307 3277 1307 3277 1229 3277 c 0,388,389
 1150 3277 1150 3277 1073 3309 c 0,390,391
 995 3341 995 3341 939 3397 c 0,392,393
 884 3452 884 3452 851 3530 c 0,394,395
 819 3608 819 3608 819 3686 c 0,396,397
 819 3765 819 3765 851 3843 c 0,398,399
 884 3921 884 3921 939 3976 c 0,400,401
 995 4031 995 4031 1073 4064 c 0,402,403
 1150 4096 1150 4096 1229 4096 c 0,404,405
 1307 4096 1307 4096 1385 4064 c 0,406,407
 1463 4031 1463 4031 1518 3976 c 0,408,409
 1574 3921 1574 3921 1606 3843 c 256,410,411
 1638 3765 1638 3765 1638 3686 c 0,412,413
 1638 3608 1638 3608 1606 3530 c 256,414,415
 1574 3452 1574 3452 1518 3397 c 0,384,385
2338 3397 m 0,416,417
 2282 3341 2282 3341 2204 3309 c 256,418,419
 2126 3277 2126 3277 2048 3277 c 256,420,421
 1970 3277 1970 3277 1892 3309 c 256,422,423
 1814 3341 1814 3341 1758 3397 c 0,424,425
 1703 3452 1703 3452 1671 3530 c 0,426,427
 1638 3608 1638 3608 1638 3686 c 0,428,429
 1638 3765 1638 3765 1671 3843 c 0,430,431
 1703 3921 1703 3921 1758 3976 c 0,432,433
 1814 4031 1814 4031 1892 4064 c 0,434,435
 1970 4096 1970 4096 2048 4096 c 256,436,437
 2126 4096 2126 4096 2204 4064 c 0,438,439
 2282 4031 2282 4031 2338 3976 c 0,440,441
 2393 3921 2393 3921 2425 3843 c 0,442,443
 2458 3765 2458 3765 2458 3686 c 0,444,445
 2458 3608 2458 3608 2425 3530 c 0,446,447
 2393 3452 2393 3452 2338 3397 c 0,416,417
3157 3397 m 0,448,449
 3101 3341 3101 3341 3023 3309 c 0,450,451
 2946 3277 2946 3277 2867 3277 c 0,452,453
 2789 3277 2789 3277 2711 3309 c 256,454,455
 2633 3341 2633 3341 2578 3397 c 0,456,457
 2522 3452 2522 3452 2490 3530 c 256,458,459
 2458 3608 2458 3608 2458 3686 c 0,460,461
 2458 3765 2458 3765 2490 3843 c 256,462,463
 2522 3921 2522 3921 2578 3976 c 0,464,465
 2633 4031 2633 4031 2711 4064 c 0,466,467
 2789 4096 2789 4096 2867 4096 c 0,468,469
 2946 4096 2946 4096 3023 4064 c 0,470,471
 3101 4031 3101 4031 3157 3976 c 0,472,473
 3212 3921 3212 3921 3245 3843 c 0,474,475
 3277 3765 3277 3765 3277 3686 c 0,476,477
 3277 3608 3277 3608 3245 3530 c 0,478,479
 3212 3452 3212 3452 3157 3397 c 0,448,449
3976 3397 m 0,480,481
 3921 3341 3921 3341 3843 3309 c 256,482,483
 3765 3277 3765 3277 3686 3277 c 0,484,485
 3608 3277 3608 3277 3530 3309 c 256,486,487
 3452 3341 3452 3341 3397 3397 c 0,488,489
 3341 3452 3341 3452 3309 3530 c 256,490,491
 3277 3608 3277 3608 3277 3686 c 0,492,493
 3277 3765 3277 3765 3309 3843 c 256,494,495
 3341 3921 3341 3921 3397 3976 c 0,496,497
 3452 4031 3452 4031 3530 4064 c 0,498,499
 3608 4096 3608 4096 3686 4096 c 0,500,501
 3765 4096 3765 4096 3843 4064 c 0,502,503
 3921 4031 3921 4031 3976 3976 c 256,504,505
 4031 3921 4031 3921 4064 3843 c 0,506,507
 4096 3765 4096 3765 4096 3686 c 0,508,509
 4096 3608 4096 3608 4064 3530 c 0,510,511
 4031 3452 4031 3452 3976 3397 c 0,480,481
EndSplineSet
Validated: 5
EndChar

StartChar: exclam
Encoding: 33 33 4
Width: 1639
GlyphClass: 1
Flags: W
LayerCount: 2
Fore
SplineSet
699 120 m 0,0,1
 644 65 644 65 566 32 c 0,2,3
 488 0 488 0 410 0 c 0,4,5
 331 0 331 0 253 32 c 0,6,7
 175 65 175 65 120 120 c 256,8,9
 65 175 65 175 32 253 c 0,10,11
 0 331 0 331 0 410 c 0,12,13
 0 488 0 488 32 566 c 0,14,15
 65 644 65 644 120 699 c 0,16,17
 175 755 175 755 253 787 c 256,18,19
 331 819 331 819 410 819 c 0,20,21
 488 819 488 819 566 787 c 256,22,23
 644 755 644 755 699 699 c 0,24,25
 755 644 755 644 787 566 c 256,26,27
 819 488 819 488 819 410 c 0,28,29
 819 331 819 331 787 253 c 256,30,31
 755 175 755 175 699 120 c 0,0,1
699 3397 m 0,32,33
 644 3341 644 3341 566 3309 c 256,34,35
 488 3277 488 3277 410 3277 c 0,36,37
 331 3277 331 3277 253 3309 c 256,38,39
 175 3341 175 3341 120 3397 c 0,40,41
 65 3452 65 3452 32 3530 c 0,42,43
 0 3608 0 3608 0 3686 c 0,44,45
 0 3765 0 3765 32 3843 c 0,46,47
 65 3921 65 3921 120 3976 c 256,48,49
 175 4031 175 4031 253 4064 c 0,50,51
 331 4096 331 4096 410 4096 c 0,52,53
 488 4096 488 4096 566 4064 c 0,54,55
 644 4031 644 4031 699 3976 c 0,56,57
 755 3921 755 3921 787 3843 c 256,58,59
 819 3765 819 3765 819 3686 c 0,60,61
 819 3608 819 3608 787 3530 c 256,62,63
 755 3452 755 3452 699 3397 c 0,32,33
699 1758 m 0,64,65
 644 1703 644 1703 566 1671 c 0,66,67
 488 1638 488 1638 410 1638 c 0,68,69
 331 1638 331 1638 253 1671 c 0,70,71
 175 1703 175 1703 120 1758 c 0,72,73
 65 1814 65 1814 32 1892 c 0,74,75
 0 1970 0 1970 0 2048 c 256,76,77
 0 2126 0 2126 32 2204 c 0,78,79
 65 2282 65 2282 120 2338 c 0,80,81
 175 2393 175 2393 253 2425 c 0,82,83
 331 2458 331 2458 410 2458 c 0,84,85
 488 2458 488 2458 566 2425 c 0,86,87
 644 2393 644 2393 699 2338 c 0,88,89
 755 2282 755 2282 787 2204 c 256,90,91
 819 2126 819 2126 819 2048 c 256,92,93
 819 1970 819 1970 787 1892 c 256,94,95
 755 1814 755 1814 699 1758 c 0,64,65
699 2578 m 0,96,97
 644 2522 644 2522 566 2490 c 256,98,99
 488 2458 488 2458 410 2458 c 0,100,101
 331 2458 331 2458 253 2490 c 256,102,103
 175 2522 175 2522 120 2578 c 0,104,105
 65 2633 65 2633 32 2711 c 0,106,107
 0 2789 0 2789 0 2867 c 0,108,109
 0 2946 0 2946 32 3023 c 0,110,111
 65 3101 65 3101 120 3157 c 0,112,113
 175 3212 175 3212 253 3245 c 0,114,115
 331 3277 331 3277 410 3277 c 0,116,117
 488 3277 488 3277 566 3245 c 0,118,119
 644 3212 644 3212 699 3157 c 0,120,121
 755 3101 755 3101 787 3023 c 0,122,123
 819 2946 819 2946 819 2867 c 0,124,125
 819 2789 819 2789 787 2711 c 256,126,127
 755 2633 755 2633 699 2578 c 0,96,97
699 4216 m 0,128,129
 644 4161 644 4161 566 4128 c 0,130,131
 488 4096 488 4096 410 4096 c 0,132,133
 331 4096 331 4096 253 4128 c 0,134,135
 175 4161 175 4161 120 4216 c 256,136,137
 65 4271 65 4271 32 4349 c 0,138,139
 0 4427 0 4427 0 4506 c 0,140,141
 0 4584 0 4584 32 4662 c 0,142,143
 65 4740 65 4740 120 4795 c 0,144,145
 175 4851 175 4851 253 4883 c 256,146,147
 331 4915 331 4915 410 4915 c 0,148,149
 488 4915 488 4915 566 4883 c 256,150,151
 644 4851 644 4851 699 4795 c 0,152,153
 755 4740 755 4740 787 4662 c 256,154,155
 819 4584 819 4584 819 4506 c 0,156,157
 819 4427 819 4427 787 4349 c 256,158,159
 755 4271 755 4271 699 4216 c 0,128,129
699 5035 m 0,160,161
 644 4980 644 4980 566 4947 c 0,162,163
 488 4915 488 4915 410 4915 c 0,164,165
 331 4915 331 4915 253 4947 c 0,166,167
 175 4980 175 4980 120 5035 c 0,168,169
 65 5091 65 5091 32 5169 c 0,170,171
 0 5246 0 5246 0 5325 c 0,172,173
 0 5403 0 5403 32 5481 c 0,174,175
 65 5559 65 5559 120 5614 c 0,176,177
 175 5670 175 5670 253 5702 c 256,178,179
 331 5734 331 5734 410 5734 c 0,180,181
 488 5734 488 5734 566 5702 c 256,182,183
 644 5670 644 5670 699 5614 c 0,184,185
 755 5559 755 5559 787 5481 c 256,186,187
 819 5403 819 5403 819 5325 c 0,188,189
 819 5246 819 5246 787 5169 c 0,190,191
 755 5091 755 5091 699 5035 c 0,160,161
EndSplineSet
Validated: 5
EndChar

StartChar: quotedbl
Encoding: 34 34 5
Width: 3277
GlyphClass: 1
Flags: W
LayerCount: 2
Fore
SplineSet
699 4216 m 0,0,1
 644 4161 644 4161 566 4128 c 0,2,3
 488 4096 488 4096 410 4096 c 0,4,5
 331 4096 331 4096 253 4128 c 0,6,7
 175 4161 175 4161 120 4216 c 256,8,9
 65 4271 65 4271 32 4349 c 0,10,11
 0 4427 0 4427 0 4506 c 0,12,13
 0 4584 0 4584 32 4662 c 0,14,15
 65 4740 65 4740 120 4795 c 0,16,17
 175 4851 175 4851 253 4883 c 256,18,19
 331 4915 331 4915 410 4915 c 0,20,21
 488 4915 488 4915 566 4883 c 256,22,23
 644 4851 644 4851 699 4795 c 0,24,25
 755 4740 755 4740 787 4662 c 256,26,27
 819 4584 819 4584 819 4506 c 0,28,29
 819 4427 819 4427 787 4349 c 256,30,31
 755 4271 755 4271 699 4216 c 0,0,1
699 5035 m 0,32,33
 644 4980 644 4980 566 4947 c 0,34,35
 488 4915 488 4915 410 4915 c 0,36,37
 331 4915 331 4915 253 4947 c 0,38,39
 175 4980 175 4980 120 5035 c 0,40,41
 65 5091 65 5091 32 5169 c 0,42,43
 0 5246 0 5246 0 5325 c 0,44,45
 0 5403 0 5403 32 5481 c 0,46,47
 65 5559 65 5559 120 5614 c 0,48,49
 175 5670 175 5670 253 5702 c 256,50,51
 331 5734 331 5734 410 5734 c 0,52,53
 488 5734 488 5734 566 5702 c 256,54,55
 644 5670 644 5670 699 5614 c 0,56,57
 755 5559 755 5559 787 5481 c 256,58,59
 819 5403 819 5403 819 5325 c 0,60,61
 819 5246 819 5246 787 5169 c 0,62,63
 755 5091 755 5091 699 5035 c 0,32,33
2338 4216 m 0,64,65
 2282 4161 2282 4161 2204 4128 c 0,66,67
 2126 4096 2126 4096 2048 4096 c 256,68,69
 1970 4096 1970 4096 1892 4128 c 0,70,71
 1814 4161 1814 4161 1758 4216 c 0,72,73
 1703 4271 1703 4271 1671 4349 c 0,74,75
 1638 4427 1638 4427 1638 4506 c 0,76,77
 1638 4584 1638 4584 1671 4662 c 0,78,79
 1703 4740 1703 4740 1758 4795 c 0,80,81
 1814 4851 1814 4851 1892 4883 c 256,82,83
 1970 4915 1970 4915 2048 4915 c 256,84,85
 2126 4915 2126 4915 2204 4883 c 256,86,87
 2282 4851 2282 4851 2338 4795 c 0,88,89
 2393 4740 2393 4740 2425 4662 c 0,90,91
 2458 4584 2458 4584 2458 4506 c 0,92,93
 2458 4427 2458 4427 2425 4349 c 0,94,95
 2393 4271 2393 4271 2338 4216 c 0,64,65
2338 5035 m 0,96,97
 2282 4980 2282 4980 2204 4947 c 0,98,99
 2126 4915 2126 4915 2048 4915 c 256,100,101
 1970 4915 1970 4915 1892 4947 c 0,102,103
 1814 4980 1814 4980 1758 5035 c 0,104,105
 1703 5091 1703 5091 1671 5169 c 0,106,107
 1638 5246 1638 5246 1638 5325 c 0,108,109
 1638 5403 1638 5403 1671 5481 c 0,110,111
 1703 5559 1703 5559 1758 5614 c 0,112,113
 1814 5670 1814 5670 1892 5702 c 256,114,115
 1970 5734 1970 5734 2048 5734 c 256,116,117
 2126 5734 2126 5734 2204 5702 c 256,118,119
 2282 5670 2282 5670 2338 5614 c 0,120,121
 2393 5559 2393 5559 2425 5481 c 0,122,123
 2458 5403 2458 5403 2458 5325 c 0,124,125
 2458 5246 2458 5246 2425 5169 c 0,126,127
 2393 5091 2393 5091 2338 5035 c 0,96,97
EndSplineSet
Validated: 5
EndChar

StartChar: numbersign
Encoding: 35 35 6
Width: 4915
GlyphClass: 1
Flags: W
LayerCount: 2
Fore
SplineSet
3157 939 m 0,0,1
 3101 884 3101 884 3023 851 c 0,2,3
 2946 819 2946 819 2867 819 c 0,4,5
 2789 819 2789 819 2711 851 c 0,6,7
 2633 884 2633 884 2578 939 c 0,8,9
 2522 995 2522 995 2490 1073 c 0,10,11
 2458 1150 2458 1150 2458 1229 c 0,12,13
 2458 1307 2458 1307 2490 1385 c 256,14,15
 2522 1463 2522 1463 2578 1518 c 0,16,17
 2633 1574 2633 1574 2711 1606 c 256,18,19
 2789 1638 2789 1638 2867 1638 c 0,20,21
 2946 1638 2946 1638 3023 1606 c 0,22,23
 3101 1574 3101 1574 3157 1518 c 0,24,25
 3212 1463 3212 1463 3245 1385 c 0,26,27
 3277 1307 3277 1307 3277 1229 c 0,28,29
 3277 1150 3277 1150 3245 1073 c 0,30,31
 3212 995 3212 995 3157 939 c 0,0,1
1518 939 m 0,32,33
 1463 884 1463 884 1385 851 c 0,34,35
 1307 819 1307 819 1229 819 c 0,36,37
 1150 819 1150 819 1073 851 c 0,38,39
 995 884 995 884 939 939 c 0,40,41
 884 995 884 995 851 1073 c 0,42,43
 819 1150 819 1150 819 1229 c 0,44,45
 819 1307 819 1307 851 1385 c 0,46,47
 884 1463 884 1463 939 1518 c 0,48,49
 995 1574 995 1574 1073 1606 c 0,50,51
 1150 1638 1150 1638 1229 1638 c 0,52,53
 1307 1638 1307 1638 1385 1606 c 256,54,55
 1463 1574 1463 1574 1518 1518 c 0,56,57
 1574 1463 1574 1463 1606 1385 c 256,58,59
 1638 1307 1638 1307 1638 1229 c 0,60,61
 1638 1150 1638 1150 1606 1073 c 0,62,63
 1574 995 1574 995 1518 939 c 0,32,33
1518 1758 m 0,64,65
 1463 1703 1463 1703 1385 1671 c 0,66,67
 1307 1638 1307 1638 1229 1638 c 0,68,69
 1150 1638 1150 1638 1073 1671 c 0,70,71
 995 1703 995 1703 939 1758 c 0,72,73
 884 1814 884 1814 851 1892 c 0,74,75
 819 1970 819 1970 819 2048 c 256,76,77
 819 2126 819 2126 851 2204 c 0,78,79
 884 2282 884 2282 939 2338 c 0,80,81
 995 2393 995 2393 1073 2425 c 0,82,83
 1150 2458 1150 2458 1229 2458 c 0,84,85
 1307 2458 1307 2458 1385 2425 c 0,86,87
 1463 2393 1463 2393 1518 2338 c 0,88,89
 1574 2282 1574 2282 1606 2204 c 256,90,91
 1638 2126 1638 2126 1638 2048 c 256,92,93
 1638 1970 1638 1970 1606 1892 c 256,94,95
 1574 1814 1574 1814 1518 1758 c 0,64,65
2338 1758 m 0,96,97
 2282 1703 2282 1703 2204 1671 c 0,98,99
 2126 1638 2126 1638 2048 1638 c 256,100,101
 1970 1638 1970 1638 1892 1671 c 0,102,103
 1814 1703 1814 1703 1758 1758 c 0,104,105
 1703 1814 1703 1814 1671 1892 c 0,106,107
 1638 1970 1638 1970 1638 2048 c 256,108,109
 1638 2126 1638 2126 1671 2204 c 0,110,111
 1703 2282 1703 2282 1758 2338 c 0,112,113
 1814 2393 1814 2393 1892 2425 c 0,114,115
 1970 2458 1970 2458 2048 2458 c 256,116,117
 2126 2458 2126 2458 2204 2425 c 0,118,119
 2282 2393 2282 2393 2338 2338 c 0,120,121
 2393 2282 2393 2282 2425 2204 c 0,122,123
 2458 2126 2458 2126 2458 2048 c 256,124,125
 2458 1970 2458 1970 2425 1892 c 0,126,127
 2393 1814 2393 1814 2338 1758 c 0,96,97
3157 1758 m 0,128,129
 3101 1703 3101 1703 3023 1671 c 0,130,131
 2946 1638 2946 1638 2867 1638 c 0,132,133
 2789 1638 2789 1638 2711 1671 c 0,134,135
 2633 1703 2633 1703 2578 1758 c 0,136,137
 2522 1814 2522 1814 2490 1892 c 256,138,139
 2458 1970 2458 1970 2458 2048 c 256,140,141
 2458 2126 2458 2126 2490 2204 c 256,142,143
 2522 2282 2522 2282 2578 2338 c 0,144,145
 2633 2393 2633 2393 2711 2425 c 0,146,147
 2789 2458 2789 2458 2867 2458 c 0,148,149
 2946 2458 2946 2458 3023 2425 c 0,150,151
 3101 2393 3101 2393 3157 2338 c 0,152,153
 3212 2282 3212 2282 3245 2204 c 0,154,155
 3277 2126 3277 2126 3277 2048 c 256,156,157
 3277 1970 3277 1970 3245 1892 c 0,158,159
 3212 1814 3212 1814 3157 1758 c 0,128,129
3157 2578 m 0,160,161
 3101 2522 3101 2522 3023 2490 c 0,162,163
 2946 2458 2946 2458 2867 2458 c 0,164,165
 2789 2458 2789 2458 2711 2490 c 256,166,167
 2633 2522 2633 2522 2578 2578 c 0,168,169
 2522 2633 2522 2633 2490 2711 c 256,170,171
 2458 2789 2458 2789 2458 2867 c 0,172,173
 2458 2946 2458 2946 2490 3023 c 0,174,175
 2522 3101 2522 3101 2578 3157 c 0,176,177
 2633 3212 2633 3212 2711 3245 c 0,178,179
 2789 3277 2789 3277 2867 3277 c 0,180,181
 2946 3277 2946 3277 3023 3245 c 0,182,183
 3101 3212 3101 3212 3157 3157 c 0,184,185
 3212 3101 3212 3101 3245 3023 c 0,186,187
 3277 2946 3277 2946 3277 2867 c 0,188,189
 3277 2789 3277 2789 3245 2711 c 0,190,191
 3212 2633 3212 2633 3157 2578 c 0,160,161
3157 3397 m 0,192,193
 3101 3341 3101 3341 3023 3309 c 0,194,195
 2946 3277 2946 3277 2867 3277 c 0,196,197
 2789 3277 2789 3277 2711 3309 c 256,198,199
 2633 3341 2633 3341 2578 3397 c 0,200,201
 2522 3452 2522 3452 2490 3530 c 256,202,203
 2458 3608 2458 3608 2458 3686 c 0,204,205
 2458 3765 2458 3765 2490 3843 c 256,206,207
 2522 3921 2522 3921 2578 3976 c 0,208,209
 2633 4031 2633 4031 2711 4064 c 0,210,211
 2789 4096 2789 4096 2867 4096 c 0,212,213
 2946 4096 2946 4096 3023 4064 c 0,214,215
 3101 4031 3101 4031 3157 3976 c 0,216,217
 3212 3921 3212 3921 3245 3843 c 0,218,219
 3277 3765 3277 3765 3277 3686 c 0,220,221
 3277 3608 3277 3608 3245 3530 c 0,222,223
 3212 3452 3212 3452 3157 3397 c 0,192,193
3157 4216 m 0,224,225
 3101 4161 3101 4161 3023 4128 c 0,226,227
 2946 4096 2946 4096 2867 4096 c 0,228,229
 2789 4096 2789 4096 2711 4128 c 0,230,231
 2633 4161 2633 4161 2578 4216 c 0,232,233
 2522 4271 2522 4271 2490 4349 c 256,234,235
 2458 4427 2458 4427 2458 4506 c 0,236,237
 2458 4584 2458 4584 2490 4662 c 256,238,239
 2522 4740 2522 4740 2578 4795 c 0,240,241
 2633 4851 2633 4851 2711 4883 c 256,242,243
 2789 4915 2789 4915 2867 4915 c 0,244,245
 2946 4915 2946 4915 3023 4883 c 0,246,247
 3101 4851 3101 4851 3157 4795 c 0,248,249
 3212 4740 3212 4740 3245 4662 c 0,250,251
 3277 4584 3277 4584 3277 4506 c 0,252,253
 3277 4427 3277 4427 3245 4349 c 0,254,255
 3212 4271 3212 4271 3157 4216 c 0,224,225
2338 3397 m 0,256,257
 2282 3341 2282 3341 2204 3309 c 256,258,259
 2126 3277 2126 3277 2048 3277 c 256,260,261
 1970 3277 1970 3277 1892 3309 c 256,262,263
 1814 3341 1814 3341 1758 3397 c 0,264,265
 1703 3452 1703 3452 1671 3530 c 0,266,267
 1638 3608 1638 3608 1638 3686 c 0,268,269
 1638 3765 1638 3765 1671 3843 c 0,270,271
 1703 3921 1703 3921 1758 3976 c 0,272,273
 1814 4031 1814 4031 1892 4064 c 0,274,275
 1970 4096 1970 4096 2048 4096 c 256,276,277
 2126 4096 2126 4096 2204 4064 c 0,278,279
 2282 4031 2282 4031 2338 3976 c 0,280,281
 2393 3921 2393 3921 2425 3843 c 0,282,283
 2458 3765 2458 3765 2458 3686 c 0,284,285
 2458 3608 2458 3608 2425 3530 c 0,286,287
 2393 3452 2393 3452 2338 3397 c 0,256,257
1518 4216 m 0,288,289
 1463 4161 1463 4161 1385 4128 c 0,290,291
 1307 4096 1307 4096 1229 4096 c 0,292,293
 1150 4096 1150 4096 1073 4128 c 0,294,295
 995 4161 995 4161 939 4216 c 0,296,297
 884 4271 884 4271 851 4349 c 0,298,299
 819 4427 819 4427 819 4506 c 0,300,301
 819 4584 819 4584 851 4662 c 0,302,303
 884 4740 884 4740 939 4795 c 0,304,305
 995 4851 995 4851 1073 4883 c 0,306,307
 1150 4915 1150 4915 1229 4915 c 0,308,309
 1307 4915 1307 4915 1385 4883 c 256,310,311
 1463 4851 1463 4851 1518 4795 c 0,312,313
 1574 4740 1574 4740 1606 4662 c 256,314,315
 1638 4584 1638 4584 1638 4506 c 0,316,317
 1638 4427 1638 4427 1606 4349 c 256,318,319
 1574 4271 1574 4271 1518 4216 c 0,288,289
1518 3397 m 0,320,321
 1463 3341 1463 3341 1385 3309 c 256,322,323
 1307 3277 1307 3277 1229 3277 c 0,324,325
 1150 3277 1150 3277 1073 3309 c 0,326,327
 995 3341 995 3341 939 3397 c 0,328,329
 884 3452 884 3452 851 3530 c 0,330,331
 819 3608 819 3608 819 3686 c 0,332,333
 819 3765 819 3765 851 3843 c 0,334,335
 884 3921 884 3921 939 3976 c 0,336,337
 995 4031 995 4031 1073 4064 c 0,338,339
 1150 4096 1150 4096 1229 4096 c 0,340,341
 1307 4096 1307 4096 1385 4064 c 0,342,343
 1463 4031 1463 4031 1518 3976 c 0,344,345
 1574 3921 1574 3921 1606 3843 c 256,346,347
 1638 3765 1638 3765 1638 3686 c 0,348,349
 1638 3608 1638 3608 1606 3530 c 256,350,351
 1574 3452 1574 3452 1518 3397 c 0,320,321
1518 2578 m 0,352,353
 1463 2522 1463 2522 1385 2490 c 256,354,355
 1307 2458 1307 2458 1229 2458 c 0,356,357
 1150 2458 1150 2458 1073 2490 c 0,358,359
 995 2522 995 2522 939 2578 c 0,360,361
 884 2633 884 2633 851 2711 c 0,362,363
 819 2789 819 2789 819 2867 c 0,364,365
 819 2946 819 2946 851 3023 c 0,366,367
 884 3101 884 3101 939 3157 c 0,368,369
 995 3212 995 3212 1073 3245 c 0,370,371
 1150 3277 1150 3277 1229 3277 c 0,372,373
 1307 3277 1307 3277 1385 3245 c 0,374,375
 1463 3212 1463 3212 1518 3157 c 0,376,377
 1574 3101 1574 3101 1606 3023 c 0,378,379
 1638 2946 1638 2946 1638 2867 c 0,380,381
 1638 2789 1638 2789 1606 2711 c 256,382,383
 1574 2633 1574 2633 1518 2578 c 0,352,353
699 1758 m 0,384,385
 644 1703 644 1703 566 1671 c 0,386,387
 488 1638 488 1638 410 1638 c 0,388,389
 331 1638 331 1638 253 1671 c 0,390,391
 175 1703 175 1703 120 1758 c 0,392,393
 65 1814 65 1814 32 1892 c 0,394,395
 0 1970 0 1970 0 2048 c 256,396,397
 0 2126 0 2126 32 2204 c 0,398,399
 65 2282 65 2282 120 2338 c 0,400,401
 175 2393 175 2393 253 2425 c 0,402,403
 331 2458 331 2458 410 2458 c 0,404,405
 488 2458 488 2458 566 2425 c 0,406,407
 644 2393 644 2393 699 2338 c 0,408,409
 755 2282 755 2282 787 2204 c 256,410,411
 819 2126 819 2126 819 2048 c 256,412,413
 819 1970 819 1970 787 1892 c 256,414,415
 755 1814 755 1814 699 1758 c 0,384,385
3976 1758 m 0,416,417
 3921 1703 3921 1703 3843 1671 c 0,418,419
 3765 1638 3765 1638 3686 1638 c 0,420,421
 3608 1638 3608 1638 3530 1671 c 0,422,423
 3452 1703 3452 1703 3397 1758 c 0,424,425
 3341 1814 3341 1814 3309 1892 c 256,426,427
 3277 1970 3277 1970 3277 2048 c 256,428,429
 3277 2126 3277 2126 3309 2204 c 256,430,431
 3341 2282 3341 2282 3397 2338 c 0,432,433
 3452 2393 3452 2393 3530 2425 c 0,434,435
 3608 2458 3608 2458 3686 2458 c 0,436,437
 3765 2458 3765 2458 3843 2425 c 0,438,439
 3921 2393 3921 2393 3976 2338 c 0,440,441
 4031 2282 4031 2282 4064 2204 c 0,442,443
 4096 2126 4096 2126 4096 2048 c 256,444,445
 4096 1970 4096 1970 4064 1892 c 0,446,447
 4031 1814 4031 1814 3976 1758 c 0,416,417
3976 3397 m 0,448,449
 3921 3341 3921 3341 3843 3309 c 256,450,451
 3765 3277 3765 3277 3686 3277 c 0,452,453
 3608 3277 3608 3277 3530 3309 c 256,454,455
 3452 3341 3452 3341 3397 3397 c 0,456,457
 3341 3452 3341 3452 3309 3530 c 256,458,459
 3277 3608 3277 3608 3277 3686 c 0,460,461
 3277 3765 3277 3765 3309 3843 c 256,462,463
 3341 3921 3341 3921 3397 3976 c 0,464,465
 3452 4031 3452 4031 3530 4064 c 0,466,467
 3608 4096 3608 4096 3686 4096 c 0,468,469
 3765 4096 3765 4096 3843 4064 c 0,470,471
 3921 4031 3921 4031 3976 3976 c 256,472,473
 4031 3921 4031 3921 4064 3843 c 0,474,475
 4096 3765 4096 3765 4096 3686 c 0,476,477
 4096 3608 4096 3608 4064 3530 c 0,478,479
 4031 3452 4031 3452 3976 3397 c 0,448,449
699 3397 m 0,480,481
 644 3341 644 3341 566 3309 c 256,482,483
 488 3277 488 3277 410 3277 c 0,484,485
 331 3277 331 3277 253 3309 c 256,486,487
 175 3341 175 3341 120 3397 c 0,488,489
 65 3452 65 3452 32 3530 c 0,490,491
 0 3608 0 3608 0 3686 c 0,492,493
 0 3765 0 3765 32 3843 c 0,494,495
 65 3921 65 3921 120 3976 c 256,496,497
 175 4031 175 4031 253 4064 c 0,498,499
 331 4096 331 4096 410 4096 c 0,500,501
 488 4096 488 4096 566 4064 c 0,502,503
 644 4031 644 4031 699 3976 c 0,504,505
 755 3921 755 3921 787 3843 c 256,506,507
 819 3765 819 3765 819 3686 c 0,508,509
 819 3608 819 3608 787 3530 c 256,510,511
 755 3452 755 3452 699 3397 c 0,480,481
1518 120 m 0,512,513
 1463 65 1463 65 1385 32 c 0,514,515
 1307 0 1307 0 1229 0 c 0,516,517
 1150 0 1150 0 1073 32 c 0,518,519
 995 65 995 65 939 120 c 0,520,521
 884 175 884 175 851 253 c 0,522,523
 819 331 819 331 819 410 c 0,524,525
 819 488 819 488 851 566 c 0,526,527
 884 644 884 644 939 699 c 0,528,529
 995 755 995 755 1073 787 c 0,530,531
 1150 819 1150 819 1229 819 c 0,532,533
 1287 819 1287 819 1344 802 c 0,534,535
 1365 795 1365 795 1385 787 c 0,536,537
 1463 755 1463 755 1518 699 c 0,538,539
 1574 644 1574 644 1606 566 c 256,540,541
 1638 488 1638 488 1638 410 c 0,542,543
 1638 331 1638 331 1606 253 c 256,544,545
 1574 175 1574 175 1518 120 c 0,512,513
3157 120 m 0,546,547
 3101 65 3101 65 3023 32 c 0,548,549
 2946 0 2946 0 2867 0 c 0,550,551
 2789 0 2789 0 2711 32 c 0,552,553
 2633 65 2633 65 2578 120 c 0,554,555
 2522 175 2522 175 2490 253 c 256,556,557
 2458 331 2458 331 2458 410 c 0,558,559
 2458 488 2458 488 2490 566 c 256,560,561
 2522 644 2522 644 2578 699 c 0,562,563
 2633 755 2633 755 2711 787 c 256,564,565
 2789 819 2789 819 2867 819 c 0,566,567
 2946 819 2946 819 3023 787 c 0,568,569
 3101 755 3101 755 3157 699 c 0,570,571
 3212 644 3212 644 3245 566 c 0,572,573
 3277 488 3277 488 3277 410 c 0,574,575
 3277 331 3277 331 3245 253 c 0,576,577
 3212 175 3212 175 3157 120 c 0,546,547
3157 5035 m 0,578,579
 3101 4980 3101 4980 3023 4947 c 0,580,581
 2946 4915 2946 4915 2867 4915 c 0,582,583
 2809 4915 2809 4915 2752 4933 c 0,584,585
 2731 4939 2731 4939 2711 4947 c 0,586,587
 2633 4980 2633 4980 2578 5035 c 0,588,589
 2522 5091 2522 5091 2490 5169 c 0,590,591
 2458 5246 2458 5246 2458 5325 c 0,592,593
 2458 5403 2458 5403 2490 5481 c 256,594,595
 2522 5559 2522 5559 2578 5614 c 0,596,597
 2633 5670 2633 5670 2711 5702 c 256,598,599
 2789 5734 2789 5734 2867 5734 c 0,600,601
 2946 5734 2946 5734 3023 5702 c 0,602,603
 3101 5670 3101 5670 3157 5614 c 0,604,605
 3212 5559 3212 5559 3245 5481 c 0,606,607
 3277 5403 3277 5403 3277 5325 c 0,608,609
 3277 5246 3277 5246 3245 5169 c 0,610,611
 3212 5091 3212 5091 3157 5035 c 0,578,579
1518 5035 m 0,612,613
 1463 4980 1463 4980 1385 4947 c 0,614,615
 1307 4915 1307 4915 1229 4915 c 0,616,617
 1150 4915 1150 4915 1073 4947 c 0,618,619
 995 4980 995 4980 939 5035 c 0,620,621
 884 5091 884 5091 851 5169 c 0,622,623
 819 5246 819 5246 819 5325 c 0,624,625
 819 5403 819 5403 851 5481 c 0,626,627
 884 5559 884 5559 939 5614 c 0,628,629
 995 5670 995 5670 1073 5702 c 0,630,631
 1150 5734 1150 5734 1229 5734 c 0,632,633
 1307 5734 1307 5734 1385 5702 c 256,634,635
 1463 5670 1463 5670 1518 5614 c 0,636,637
 1574 5559 1574 5559 1606 5481 c 256,638,639
 1638 5403 1638 5403 1638 5325 c 0,640,641
 1638 5246 1638 5246 1606 5169 c 0,642,643
 1574 5091 1574 5091 1518 5035 c 0,612,613
EndSplineSet
Validated: 5
EndChar

StartChar: percent
Encoding: 37 37 7
Width: 4588
GlyphClass: 1
Flags: W
LayerCount: 2
Fore
SplineSet
1518 1758 m 0,0,1
 1463 1703 1463 1703 1385 1671 c 0,2,3
 1307 1638 1307 1638 1229 1638 c 0,4,5
 1150 1638 1150 1638 1073 1671 c 0,6,7
 995 1703 995 1703 939 1758 c 0,8,9
 884 1814 884 1814 851 1892 c 0,10,11
 819 1970 819 1970 819 2048 c 256,12,13
 819 2126 819 2126 851 2204 c 0,14,15
 884 2282 884 2282 939 2338 c 0,16,17
 995 2393 995 2393 1073 2425 c 0,18,19
 1150 2458 1150 2458 1229 2458 c 0,20,21
 1307 2458 1307 2458 1385 2425 c 0,22,23
 1463 2393 1463 2393 1518 2338 c 0,24,25
 1574 2282 1574 2282 1606 2204 c 256,26,27
 1638 2126 1638 2126 1638 2048 c 256,28,29
 1638 1970 1638 1970 1606 1892 c 256,30,31
 1574 1814 1574 1814 1518 1758 c 0,0,1
2338 2578 m 0,32,33
 2282 2522 2282 2522 2204 2490 c 256,34,35
 2126 2458 2126 2458 2048 2458 c 256,36,37
 1970 2458 1970 2458 1892 2490 c 256,38,39
 1814 2522 1814 2522 1758 2578 c 0,40,41
 1703 2633 1703 2633 1671 2711 c 0,42,43
 1638 2789 1638 2789 1638 2867 c 0,44,45
 1638 2946 1638 2946 1671 3023 c 0,46,47
 1703 3101 1703 3101 1758 3157 c 0,48,49
 1814 3212 1814 3212 1892 3245 c 0,50,51
 1970 3277 1970 3277 2048 3277 c 256,52,53
 2126 3277 2126 3277 2204 3245 c 0,54,55
 2282 3212 2282 3212 2338 3157 c 0,56,57
 2393 3101 2393 3101 2425 3023 c 0,58,59
 2458 2946 2458 2946 2458 2867 c 0,60,61
 2458 2789 2458 2789 2425 2711 c 0,62,63
 2393 2633 2393 2633 2338 2578 c 0,32,33
3157 3397 m 0,64,65
 3101 3341 3101 3341 3023 3309 c 0,66,67
 2946 3277 2946 3277 2867 3277 c 0,68,69
 2789 3277 2789 3277 2711 3309 c 256,70,71
 2633 3341 2633 3341 2578 3397 c 0,72,73
 2522 3452 2522 3452 2490 3530 c 256,74,75
 2458 3608 2458 3608 2458 3686 c 0,76,77
 2458 3765 2458 3765 2490 3843 c 256,78,79
 2522 3921 2522 3921 2578 3976 c 0,80,81
 2633 4031 2633 4031 2711 4064 c 0,82,83
 2789 4096 2789 4096 2867 4096 c 0,84,85
 2946 4096 2946 4096 3023 4064 c 0,86,87
 3101 4031 3101 4031 3157 3976 c 0,88,89
 3212 3921 3212 3921 3245 3843 c 0,90,91
 3277 3765 3277 3765 3277 3686 c 0,92,93
 3277 3608 3277 3608 3245 3530 c 0,94,95
 3212 3452 3212 3452 3157 3397 c 0,64,65
699 4216 m 0,96,97
 644 4161 644 4161 566 4128 c 0,98,99
 488 4096 488 4096 410 4096 c 0,100,101
 331 4096 331 4096 253 4128 c 0,102,103
 175 4161 175 4161 120 4216 c 256,104,105
 65 4271 65 4271 32 4349 c 0,106,107
 0 4427 0 4427 0 4506 c 0,108,109
 0 4584 0 4584 32 4662 c 0,110,111
 65 4740 65 4740 120 4795 c 0,112,113
 175 4851 175 4851 253 4883 c 256,114,115
 331 4915 331 4915 410 4915 c 0,116,117
 488 4915 488 4915 566 4883 c 256,118,119
 644 4851 644 4851 699 4795 c 0,120,121
 755 4740 755 4740 787 4662 c 256,122,123
 819 4584 819 4584 819 4506 c 0,124,125
 819 4427 819 4427 787 4349 c 256,126,127
 755 4271 755 4271 699 4216 c 0,96,97
1518 4216 m 0,128,129
 1463 4161 1463 4161 1385 4128 c 0,130,131
 1307 4096 1307 4096 1229 4096 c 0,132,133
 1150 4096 1150 4096 1073 4128 c 0,134,135
 995 4161 995 4161 939 4216 c 0,136,137
 884 4271 884 4271 851 4349 c 0,138,139
 819 4427 819 4427 819 4506 c 0,140,141
 819 4584 819 4584 851 4662 c 0,142,143
 884 4740 884 4740 939 4795 c 0,144,145
 995 4851 995 4851 1073 4883 c 0,146,147
 1150 4915 1150 4915 1229 4915 c 0,148,149
 1307 4915 1307 4915 1385 4883 c 256,150,151
 1463 4851 1463 4851 1518 4795 c 0,152,153
 1574 4740 1574 4740 1606 4662 c 256,154,155
 1638 4584 1638 4584 1638 4506 c 0,156,157
 1638 4427 1638 4427 1606 4349 c 256,158,159
 1574 4271 1574 4271 1518 4216 c 0,128,129
3976 4216 m 256,160,161
 3921 4161 3921 4161 3843 4128 c 0,162,163
 3765 4096 3765 4096 3686 4096 c 0,164,165
 3608 4096 3608 4096 3530 4128 c 0,166,167
 3452 4161 3452 4161 3397 4216 c 0,168,169
 3341 4271 3341 4271 3309 4349 c 256,170,171
 3277 4427 3277 4427 3277 4506 c 0,172,173
 3277 4584 3277 4584 3309 4662 c 256,174,175
 3341 4740 3341 4740 3397 4795 c 0,176,177
 3452 4851 3452 4851 3530 4883 c 256,178,179
 3608 4915 3608 4915 3686 4915 c 0,180,181
 3765 4915 3765 4915 3843 4883 c 256,182,183
 3921 4851 3921 4851 3976 4795 c 0,184,185
 4031 4740 4031 4740 4064 4662 c 0,186,187
 4096 4584 4096 4584 4096 4506 c 0,188,189
 4096 4427 4096 4427 4064 4349 c 0,190,191
 4031 4271 4031 4271 3976 4216 c 256,160,161
699 5035 m 0,192,193
 644 4980 644 4980 566 4947 c 0,194,195
 488 4915 488 4915 410 4915 c 0,196,197
 331 4915 331 4915 253 4947 c 0,198,199
 175 4980 175 4980 120 5035 c 0,200,201
 65 5091 65 5091 32 5169 c 0,202,203
 0 5246 0 5246 0 5325 c 0,204,205
 0 5403 0 5403 32 5481 c 0,206,207
 65 5559 65 5559 120 5614 c 0,208,209
 175 5670 175 5670 253 5702 c 256,210,211
 331 5734 331 5734 410 5734 c 0,212,213
 488 5734 488 5734 566 5702 c 256,214,215
 644 5670 644 5670 699 5614 c 0,216,217
 755 5559 755 5559 787 5481 c 256,218,219
 819 5403 819 5403 819 5325 c 0,220,221
 819 5246 819 5246 787 5169 c 0,222,223
 755 5091 755 5091 699 5035 c 0,192,193
1518 5035 m 0,224,225
 1463 4980 1463 4980 1385 4947 c 0,226,227
 1307 4915 1307 4915 1229 4915 c 0,228,229
 1150 4915 1150 4915 1073 4947 c 0,230,231
 995 4980 995 4980 939 5035 c 0,232,233
 884 5091 884 5091 851 5169 c 0,234,235
 819 5246 819 5246 819 5325 c 0,236,237
 819 5403 819 5403 851 5481 c 0,238,239
 884 5559 884 5559 939 5614 c 0,240,241
 995 5670 995 5670 1073 5702 c 0,242,243
 1150 5734 1150 5734 1229 5734 c 0,244,245
 1307 5734 1307 5734 1385 5702 c 256,246,247
 1463 5670 1463 5670 1518 5614 c 0,248,249
 1574 5559 1574 5559 1606 5481 c 256,250,251
 1638 5403 1638 5403 1638 5325 c 0,252,253
 1638 5246 1638 5246 1606 5169 c 0,254,255
 1574 5091 1574 5091 1518 5035 c 0,224,225
3976 5035 m 0,256,257
 3921 4980 3921 4980 3843 4947 c 0,258,259
 3765 4915 3765 4915 3686 4915 c 0,260,261
 3608 4915 3608 4915 3530 4947 c 0,262,263
 3452 4980 3452 4980 3397 5035 c 0,264,265
 3341 5091 3341 5091 3309 5169 c 0,266,267
 3277 5246 3277 5246 3277 5325 c 0,268,269
 3277 5403 3277 5403 3309 5481 c 256,270,271
 3341 5559 3341 5559 3397 5614 c 0,272,273
 3452 5670 3452 5670 3530 5702 c 256,274,275
 3608 5734 3608 5734 3686 5734 c 0,276,277
 3765 5734 3765 5734 3843 5702 c 256,278,279
 3921 5670 3921 5670 3976 5614 c 0,280,281
 4031 5559 4031 5559 4064 5481 c 0,282,283
 4096 5403 4096 5403 4096 5325 c 0,284,285
 4096 5246 4096 5246 4064 5169 c 0,286,287
 4031 5091 4031 5091 3976 5035 c 0,256,257
699 120 m 0,288,289
 644 65 644 65 566 32 c 0,290,291
 488 0 488 0 410 0 c 0,292,293
 331 0 331 0 253 32 c 0,294,295
 175 65 175 65 120 120 c 256,296,297
 65 175 65 175 32 253 c 0,298,299
 0 331 0 331 0 410 c 0,300,301
 0 488 0 488 32 566 c 0,302,303
 65 644 65 644 120 699 c 0,304,305
 175 755 175 755 253 787 c 256,306,307
 331 819 331 819 410 819 c 0,308,309
 488 819 488 819 566 787 c 256,310,311
 644 755 644 755 699 699 c 0,312,313
 755 644 755 644 787 566 c 256,314,315
 819 488 819 488 819 410 c 0,316,317
 819 331 819 331 787 253 c 256,318,319
 755 175 755 175 699 120 c 0,288,289
3157 120 m 0,320,321
 3101 65 3101 65 3023 32 c 0,322,323
 2946 0 2946 0 2867 0 c 0,324,325
 2789 0 2789 0 2711 32 c 0,326,327
 2633 65 2633 65 2578 120 c 0,328,329
 2522 175 2522 175 2490 253 c 256,330,331
 2458 331 2458 331 2458 410 c 0,332,333
 2458 488 2458 488 2490 566 c 256,334,335
 2522 644 2522 644 2578 699 c 0,336,337
 2633 755 2633 755 2711 787 c 256,338,339
 2789 819 2789 819 2867 819 c 0,340,341
 2946 819 2946 819 3023 787 c 0,342,343
 3101 755 3101 755 3157 699 c 0,344,345
 3212 644 3212 644 3245 566 c 0,346,347
 3277 488 3277 488 3277 410 c 0,348,349
 3277 331 3277 331 3245 253 c 0,350,351
 3212 175 3212 175 3157 120 c 0,320,321
3976 120 m 256,352,353
 3921 65 3921 65 3843 32 c 0,354,355
 3765 0 3765 0 3686 0 c 0,356,357
 3608 0 3608 0 3530 32 c 0,358,359
 3452 65 3452 65 3397 120 c 0,360,361
 3341 175 3341 175 3309 253 c 256,362,363
 3277 331 3277 331 3277 410 c 0,364,365
 3277 488 3277 488 3309 566 c 256,366,367
 3341 644 3341 644 3397 699 c 0,368,369
 3452 755 3452 755 3530 787 c 256,370,371
 3608 819 3608 819 3686 819 c 0,372,373
 3765 819 3765 819 3843 787 c 256,374,375
 3921 755 3921 755 3976 699 c 0,376,377
 4031 644 4031 644 4064 566 c 0,378,379
 4096 488 4096 488 4096 410 c 0,380,381
 4096 331 4096 331 4064 253 c 0,382,383
 4031 175 4031 175 3976 120 c 256,352,353
699 939 m 0,384,385
 644 884 644 884 566 851 c 0,386,387
 488 819 488 819 410 819 c 0,388,389
 331 819 331 819 253 851 c 0,390,391
 175 884 175 884 120 939 c 0,392,393
 65 995 65 995 32 1073 c 0,394,395
 0 1150 0 1150 0 1229 c 0,396,397
 0 1307 0 1307 32 1385 c 0,398,399
 65 1463 65 1463 120 1518 c 0,400,401
 175 1574 175 1574 253 1606 c 256,402,403
 331 1638 331 1638 410 1638 c 0,404,405
 488 1638 488 1638 566 1606 c 256,406,407
 644 1574 644 1574 699 1518 c 0,408,409
 755 1463 755 1463 787 1385 c 256,410,411
 819 1307 819 1307 819 1229 c 0,412,413
 819 1150 819 1150 787 1073 c 0,414,415
 755 995 755 995 699 939 c 0,384,385
3157 939 m 0,416,417
 3101 884 3101 884 3023 851 c 0,418,419
 2946 819 2946 819 2867 819 c 0,420,421
 2789 819 2789 819 2711 851 c 0,422,423
 2633 884 2633 884 2578 939 c 0,424,425
 2522 995 2522 995 2490 1073 c 0,426,427
 2458 1150 2458 1150 2458 1229 c 0,428,429
 2458 1307 2458 1307 2490 1385 c 256,430,431
 2522 1463 2522 1463 2578 1518 c 0,432,433
 2633 1574 2633 1574 2711 1606 c 256,434,435
 2789 1638 2789 1638 2867 1638 c 0,436,437
 2946 1638 2946 1638 3023 1606 c 0,438,439
 3101 1574 3101 1574 3157 1518 c 0,440,441
 3212 1463 3212 1463 3245 1385 c 0,442,443
 3277 1307 3277 1307 3277 1229 c 0,444,445
 3277 1150 3277 1150 3245 1073 c 0,446,447
 3212 995 3212 995 3157 939 c 0,416,417
3976 939 m 0,448,449
 3921 884 3921 884 3843 851 c 0,450,451
 3765 819 3765 819 3686 819 c 0,452,453
 3608 819 3608 819 3530 851 c 0,454,455
 3452 884 3452 884 3397 939 c 0,456,457
 3341 995 3341 995 3309 1073 c 0,458,459
 3277 1150 3277 1150 3277 1229 c 0,460,461
 3277 1307 3277 1307 3309 1385 c 256,462,463
 3341 1463 3341 1463 3397 1518 c 0,464,465
 3452 1574 3452 1574 3530 1606 c 256,466,467
 3608 1638 3608 1638 3686 1638 c 0,468,469
 3765 1638 3765 1638 3843 1606 c 256,470,471
 3921 1574 3921 1574 3976 1518 c 0,472,473
 4031 1463 4031 1463 4064 1385 c 0,474,475
 4096 1307 4096 1307 4096 1229 c 0,476,477
 4096 1150 4096 1150 4064 1073 c 0,478,479
 4031 995 4031 995 3976 939 c 0,448,449
EndSplineSet
Validated: 5
EndChar

StartChar: ampersand
Encoding: 38 38 8
Width: 4915
GlyphClass: 1
Flags: W
LayerCount: 2
Fore
SplineSet
699 1758 m 0,0,1
 644 1703 644 1703 566 1671 c 0,2,3
 488 1638 488 1638 410 1638 c 0,4,5
 331 1638 331 1638 253 1671 c 0,6,7
 175 1703 175 1703 120 1758 c 0,8,9
 65 1814 65 1814 32 1892 c 0,10,11
 0 1970 0 1970 0 2048 c 256,12,13
 0 2126 0 2126 32 2204 c 0,14,15
 65 2282 65 2282 120 2338 c 0,16,17
 175 2393 175 2393 253 2425 c 0,18,19
 331 2458 331 2458 410 2458 c 0,20,21
 488 2458 488 2458 566 2425 c 0,22,23
 644 2393 644 2393 699 2338 c 0,24,25
 755 2282 755 2282 787 2204 c 256,26,27
 819 2126 819 2126 819 2048 c 256,28,29
 819 1970 819 1970 787 1892 c 256,30,31
 755 1814 755 1814 699 1758 c 0,0,1
2338 1758 m 0,32,33
 2282 1703 2282 1703 2204 1671 c 0,34,35
 2126 1638 2126 1638 2048 1638 c 256,36,37
 1970 1638 1970 1638 1892 1671 c 0,38,39
 1814 1703 1814 1703 1758 1758 c 0,40,41
 1703 1814 1703 1814 1671 1892 c 0,42,43
 1638 1970 1638 1970 1638 2048 c 256,44,45
 1638 2126 1638 2126 1671 2204 c 0,46,47
 1703 2282 1703 2282 1758 2338 c 0,48,49
 1814 2393 1814 2393 1892 2425 c 0,50,51
 1970 2458 1970 2458 2048 2458 c 256,52,53
 2126 2458 2126 2458 2204 2425 c 0,54,55
 2282 2393 2282 2393 2338 2338 c 0,56,57
 2393 2282 2393 2282 2425 2204 c 0,58,59
 2458 2126 2458 2126 2458 2048 c 256,60,61
 2458 1970 2458 1970 2425 1892 c 0,62,63
 2393 1814 2393 1814 2338 1758 c 0,32,33
1518 2578 m 0,64,65
 1463 2522 1463 2522 1385 2490 c 256,66,67
 1307 2458 1307 2458 1229 2458 c 0,68,69
 1150 2458 1150 2458 1073 2490 c 0,70,71
 995 2522 995 2522 939 2578 c 0,72,73
 884 2633 884 2633 851 2711 c 0,74,75
 819 2789 819 2789 819 2867 c 0,76,77
 819 2946 819 2946 851 3023 c 0,78,79
 884 3101 884 3101 939 3157 c 0,80,81
 995 3212 995 3212 1073 3245 c 0,82,83
 1150 3277 1150 3277 1229 3277 c 0,84,85
 1307 3277 1307 3277 1385 3245 c 0,86,87
 1463 3212 1463 3212 1518 3157 c 0,88,89
 1574 3101 1574 3101 1606 3023 c 0,90,91
 1638 2946 1638 2946 1638 2867 c 0,92,93
 1638 2789 1638 2789 1606 2711 c 256,94,95
 1574 2633 1574 2633 1518 2578 c 0,64,65
699 3397 m 0,96,97
 644 3341 644 3341 566 3309 c 256,98,99
 488 3277 488 3277 410 3277 c 0,100,101
 331 3277 331 3277 253 3309 c 256,102,103
 175 3341 175 3341 120 3397 c 0,104,105
 65 3452 65 3452 32 3530 c 0,106,107
 0 3608 0 3608 0 3686 c 0,108,109
 0 3765 0 3765 32 3843 c 0,110,111
 65 3921 65 3921 120 3976 c 256,112,113
 175 4031 175 4031 253 4064 c 0,114,115
 331 4096 331 4096 410 4096 c 0,116,117
 488 4096 488 4096 566 4064 c 0,118,119
 644 4031 644 4031 699 3976 c 0,120,121
 755 3921 755 3921 787 3843 c 256,122,123
 819 3765 819 3765 819 3686 c 0,124,125
 819 3608 819 3608 787 3530 c 256,126,127
 755 3452 755 3452 699 3397 c 0,96,97
2338 3397 m 0,128,129
 2282 3341 2282 3341 2204 3309 c 256,130,131
 2126 3277 2126 3277 2048 3277 c 256,132,133
 1970 3277 1970 3277 1892 3309 c 256,134,135
 1814 3341 1814 3341 1758 3397 c 0,136,137
 1703 3452 1703 3452 1671 3530 c 0,138,139
 1638 3608 1638 3608 1638 3686 c 0,140,141
 1638 3765 1638 3765 1671 3843 c 0,142,143
 1703 3921 1703 3921 1758 3976 c 0,144,145
 1814 4031 1814 4031 1892 4064 c 0,146,147
 1970 4096 1970 4096 2048 4096 c 256,148,149
 2126 4096 2126 4096 2204 4064 c 0,150,151
 2282 4031 2282 4031 2338 3976 c 0,152,153
 2393 3921 2393 3921 2425 3843 c 0,154,155
 2458 3765 2458 3765 2458 3686 c 0,156,157
 2458 3608 2458 3608 2425 3530 c 0,158,159
 2393 3452 2393 3452 2338 3397 c 0,128,129
699 4216 m 0,160,161
 644 4161 644 4161 566 4128 c 0,162,163
 488 4096 488 4096 410 4096 c 0,164,165
 331 4096 331 4096 253 4128 c 0,166,167
 175 4161 175 4161 120 4216 c 256,168,169
 65 4271 65 4271 32 4349 c 0,170,171
 0 4427 0 4427 0 4506 c 0,172,173
 0 4584 0 4584 32 4662 c 0,174,175
 65 4740 65 4740 120 4795 c 0,176,177
 175 4851 175 4851 253 4883 c 256,178,179
 331 4915 331 4915 410 4915 c 0,180,181
 488 4915 488 4915 566 4883 c 256,182,183
 644 4851 644 4851 699 4795 c 0,184,185
 755 4740 755 4740 787 4662 c 256,186,187
 819 4584 819 4584 819 4506 c 0,188,189
 819 4427 819 4427 787 4349 c 256,190,191
 755 4271 755 4271 699 4216 c 0,160,161
2338 4216 m 0,192,193
 2282 4161 2282 4161 2204 4128 c 0,194,195
 2126 4096 2126 4096 2048 4096 c 256,196,197
 1970 4096 1970 4096 1892 4128 c 0,198,199
 1814 4161 1814 4161 1758 4216 c 0,200,201
 1703 4271 1703 4271 1671 4349 c 0,202,203
 1638 4427 1638 4427 1638 4506 c 0,204,205
 1638 4584 1638 4584 1671 4662 c 0,206,207
 1703 4740 1703 4740 1758 4795 c 0,208,209
 1814 4851 1814 4851 1892 4883 c 256,210,211
 1970 4915 1970 4915 2048 4915 c 256,212,213
 2126 4915 2126 4915 2204 4883 c 256,214,215
 2282 4851 2282 4851 2338 4795 c 0,216,217
 2393 4740 2393 4740 2425 4662 c 0,218,219
 2458 4584 2458 4584 2458 4506 c 0,220,221
 2458 4427 2458 4427 2425 4349 c 0,222,223
 2393 4271 2393 4271 2338 4216 c 0,192,193
1518 5035 m 0,224,225
 1463 4980 1463 4980 1385 4947 c 0,226,227
 1307 4915 1307 4915 1229 4915 c 0,228,229
 1150 4915 1150 4915 1073 4947 c 0,230,231
 995 4980 995 4980 939 5035 c 0,232,233
 884 5091 884 5091 851 5169 c 0,234,235
 819 5246 819 5246 819 5325 c 0,236,237
 819 5403 819 5403 851 5481 c 0,238,239
 884 5559 884 5559 939 5614 c 0,240,241
 995 5670 995 5670 1073 5702 c 0,242,243
 1150 5734 1150 5734 1229 5734 c 0,244,245
 1307 5734 1307 5734 1385 5702 c 256,246,247
 1463 5670 1463 5670 1518 5614 c 0,248,249
 1574 5559 1574 5559 1606 5481 c 256,250,251
 1638 5403 1638 5403 1638 5325 c 0,252,253
 1638 5246 1638 5246 1606 5169 c 0,254,255
 1574 5091 1574 5091 1518 5035 c 0,224,225
1518 120 m 0,256,257
 1463 65 1463 65 1385 32 c 0,258,259
 1307 0 1307 0 1229 0 c 0,260,261
 1150 0 1150 0 1073 32 c 0,262,263
 995 65 995 65 939 120 c 0,264,265
 884 175 884 175 851 253 c 0,266,267
 819 331 819 331 819 410 c 0,268,269
 819 488 819 488 851 566 c 0,270,271
 884 644 884 644 939 699 c 0,272,273
 995 755 995 755 1073 787 c 0,274,275
 1150 819 1150 819 1229 819 c 0,276,277
 1307 819 1307 819 1385 787 c 256,278,279
 1463 755 1463 755 1518 699 c 0,280,281
 1574 644 1574 644 1606 566 c 256,282,283
 1638 488 1638 488 1638 410 c 0,284,285
 1638 331 1638 331 1606 253 c 256,286,287
 1574 175 1574 175 1518 120 c 0,256,257
2338 120 m 0,288,289
 2282 65 2282 65 2204 32 c 0,290,291
 2126 0 2126 0 2048 0 c 256,292,293
 1970 0 1970 0 1892 32 c 0,294,295
 1814 65 1814 65 1758 120 c 0,296,297
 1703 175 1703 175 1671 253 c 0,298,299
 1638 331 1638 331 1638 410 c 0,300,301
 1638 488 1638 488 1671 566 c 0,302,303
 1703 644 1703 644 1758 699 c 0,304,305
 1814 755 1814 755 1892 787 c 256,306,307
 1970 819 1970 819 2048 819 c 256,308,309
 2126 819 2126 819 2204 787 c 256,310,311
 2282 755 2282 755 2338 699 c 0,312,313
 2393 644 2393 644 2425 566 c 0,314,315
 2458 488 2458 488 2458 410 c 0,316,317
 2458 331 2458 331 2425 253 c 0,318,319
 2393 175 2393 175 2338 120 c 0,288,289
3976 120 m 256,320,321
 3921 65 3921 65 3843 32 c 0,322,323
 3765 0 3765 0 3686 0 c 0,324,325
 3608 0 3608 0 3530 32 c 0,326,327
 3452 65 3452 65 3397 120 c 0,328,329
 3341 175 3341 175 3309 253 c 256,330,331
 3277 331 3277 331 3277 410 c 0,332,333
 3277 488 3277 488 3309 566 c 256,334,335
 3341 644 3341 644 3397 699 c 0,336,337
 3452 755 3452 755 3530 787 c 256,338,339
 3608 819 3608 819 3686 819 c 0,340,341
 3765 819 3765 819 3843 787 c 256,342,343
 3921 755 3921 755 3976 699 c 0,344,345
 4031 644 4031 644 4064 566 c 0,346,347
 4096 488 4096 488 4096 410 c 0,348,349
 4096 331 4096 331 4064 253 c 0,350,351
 4031 175 4031 175 3976 120 c 256,320,321
699 939 m 0,352,353
 644 884 644 884 566 851 c 0,354,355
 488 819 488 819 410 819 c 0,356,357
 331 819 331 819 253 851 c 0,358,359
 175 884 175 884 120 939 c 0,360,361
 65 995 65 995 32 1073 c 0,362,363
 0 1150 0 1150 0 1229 c 0,364,365
 0 1307 0 1307 32 1385 c 0,366,367
 65 1463 65 1463 120 1518 c 0,368,369
 175 1574 175 1574 253 1606 c 256,370,371
 331 1638 331 1638 410 1638 c 0,372,373
 488 1638 488 1638 566 1606 c 256,374,375
 644 1574 644 1574 699 1518 c 0,376,377
 755 1463 755 1463 787 1385 c 256,378,379
 819 1307 819 1307 819 1229 c 0,380,381
 819 1150 819 1150 787 1073 c 0,382,383
 755 995 755 995 699 939 c 0,352,353
3157 939 m 0,384,385
 3101 884 3101 884 3023 851 c 0,386,387
 2946 819 2946 819 2867 819 c 0,388,389
 2789 819 2789 819 2711 851 c 0,390,391
 2633 884 2633 884 2578 939 c 0,392,393
 2522 995 2522 995 2490 1073 c 0,394,395
 2458 1150 2458 1150 2458 1229 c 0,396,397
 2458 1307 2458 1307 2490 1385 c 256,398,399
 2522 1463 2522 1463 2578 1518 c 0,400,401
 2633 1574 2633 1574 2711 1606 c 256,402,403
 2789 1638 2789 1638 2867 1638 c 0,404,405
 2946 1638 2946 1638 3023 1606 c 0,406,407
 3101 1574 3101 1574 3157 1518 c 0,408,409
 3212 1463 3212 1463 3245 1385 c 0,410,411
 3277 1307 3277 1307 3277 1229 c 0,412,413
 3277 1150 3277 1150 3245 1073 c 0,414,415
 3212 995 3212 995 3157 939 c 0,384,385
3976 1758 m 0,416,417
 3921 1703 3921 1703 3843 1671 c 0,418,419
 3765 1638 3765 1638 3686 1638 c 0,420,421
 3608 1638 3608 1638 3530 1671 c 0,422,423
 3452 1703 3452 1703 3397 1758 c 0,424,425
 3341 1814 3341 1814 3309 1892 c 256,426,427
 3277 1970 3277 1970 3277 2048 c 256,428,429
 3277 2126 3277 2126 3309 2204 c 256,430,431
 3341 2282 3341 2282 3397 2338 c 0,432,433
 3452 2393 3452 2393 3530 2425 c 0,434,435
 3608 2458 3608 2458 3686 2458 c 0,436,437
 3765 2458 3765 2458 3843 2425 c 0,438,439
 3921 2393 3921 2393 3976 2338 c 0,440,441
 4031 2282 4031 2282 4064 2204 c 0,442,443
 4096 2126 4096 2126 4096 2048 c 256,444,445
 4096 1970 4096 1970 4064 1892 c 0,446,447
 4031 1814 4031 1814 3976 1758 c 0,416,417
EndSplineSet
Validated: 5
EndChar

StartChar: quotesingle
Encoding: 39 39 9
Width: 1639
GlyphClass: 1
Flags: W
LayerCount: 2
Fore
SplineSet
699 5035 m 0,0,1
 644 4980 644 4980 566 4947 c 0,2,3
 488 4915 488 4915 410 4915 c 0,4,5
 331 4915 331 4915 253 4947 c 0,6,7
 175 4980 175 4980 120 5035 c 0,8,9
 65 5091 65 5091 32 5169 c 0,10,11
 0 5246 0 5246 0 5325 c 0,12,13
 0 5403 0 5403 32 5481 c 0,14,15
 65 5559 65 5559 120 5614 c 0,16,17
 175 5670 175 5670 253 5702 c 256,18,19
 331 5734 331 5734 410 5734 c 0,20,21
 488 5734 488 5734 566 5702 c 256,22,23
 644 5670 644 5670 699 5614 c 0,24,25
 755 5559 755 5559 787 5481 c 256,26,27
 819 5403 819 5403 819 5325 c 0,28,29
 819 5246 819 5246 787 5169 c 0,30,31
 755 5091 755 5091 699 5035 c 0,0,1
699 4216 m 0,32,33
 644 4161 644 4161 566 4128 c 0,34,35
 488 4096 488 4096 410 4096 c 0,36,37
 331 4096 331 4096 253 4128 c 0,38,39
 175 4161 175 4161 120 4216 c 256,40,41
 65 4271 65 4271 32 4349 c 0,42,43
 0 4427 0 4427 0 4506 c 0,44,45
 0 4584 0 4584 32 4662 c 0,46,47
 65 4740 65 4740 120 4795 c 0,48,49
 175 4851 175 4851 253 4883 c 256,50,51
 331 4915 331 4915 410 4915 c 0,52,53
 488 4915 488 4915 566 4883 c 256,54,55
 644 4851 644 4851 699 4795 c 0,56,57
 755 4740 755 4740 787 4662 c 256,58,59
 819 4584 819 4584 819 4506 c 0,60,61
 819 4427 819 4427 787 4349 c 256,62,63
 755 4271 755 4271 699 4216 c 0,32,33
EndSplineSet
Validated: 5
EndChar

StartChar: parenleft
Encoding: 40 40 10
Width: 3277
GlyphClass: 1
Flags: W
LayerCount: 2
Fore
SplineSet
2338 120 m 0,0,1
 2282 65 2282 65 2204 32 c 0,2,3
 2126 0 2126 0 2048 0 c 256,4,5
 1970 0 1970 0 1892 32 c 0,6,7
 1814 65 1814 65 1758 120 c 0,8,9
 1703 175 1703 175 1671 253 c 0,10,11
 1638 331 1638 331 1638 410 c 0,12,13
 1638 488 1638 488 1671 566 c 0,14,15
 1703 644 1703 644 1758 699 c 0,16,17
 1814 755 1814 755 1892 787 c 256,18,19
 1970 819 1970 819 2048 819 c 256,20,21
 2126 819 2126 819 2204 787 c 256,22,23
 2282 755 2282 755 2338 699 c 0,24,25
 2393 644 2393 644 2425 566 c 0,26,27
 2458 488 2458 488 2458 410 c 0,28,29
 2458 331 2458 331 2425 253 c 0,30,31
 2393 175 2393 175 2338 120 c 0,0,1
1518 939 m 0,32,33
 1463 884 1463 884 1385 851 c 0,34,35
 1307 819 1307 819 1229 819 c 0,36,37
 1150 819 1150 819 1073 851 c 0,38,39
 995 884 995 884 939 939 c 0,40,41
 884 995 884 995 851 1073 c 0,42,43
 819 1150 819 1150 819 1229 c 0,44,45
 819 1307 819 1307 851 1385 c 0,46,47
 884 1463 884 1463 939 1518 c 0,48,49
 995 1574 995 1574 1073 1606 c 0,50,51
 1150 1638 1150 1638 1229 1638 c 0,52,53
 1307 1638 1307 1638 1385 1606 c 256,54,55
 1463 1574 1463 1574 1518 1518 c 0,56,57
 1574 1463 1574 1463 1606 1385 c 256,58,59
 1638 1307 1638 1307 1638 1229 c 0,60,61
 1638 1150 1638 1150 1606 1073 c 0,62,63
 1574 995 1574 995 1518 939 c 0,32,33
699 1758 m 0,64,65
 644 1703 644 1703 566 1671 c 0,66,67
 488 1638 488 1638 410 1638 c 0,68,69
 331 1638 331 1638 253 1671 c 0,70,71
 175 1703 175 1703 120 1758 c 0,72,73
 65 1814 65 1814 32 1892 c 0,74,75
 0 1970 0 1970 0 2048 c 256,76,77
 0 2126 0 2126 32 2204 c 0,78,79
 65 2282 65 2282 120 2338 c 0,80,81
 175 2393 175 2393 253 2425 c 0,82,83
 331 2458 331 2458 410 2458 c 0,84,85
 488 2458 488 2458 566 2425 c 0,86,87
 644 2393 644 2393 699 2338 c 0,88,89
 755 2282 755 2282 787 2204 c 256,90,91
 819 2126 819 2126 819 2048 c 256,92,93
 819 1970 819 1970 787 1892 c 256,94,95
 755 1814 755 1814 699 1758 c 0,64,65
699 2578 m 0,96,97
 644 2522 644 2522 566 2490 c 256,98,99
 488 2458 488 2458 410 2458 c 0,100,101
 331 2458 331 2458 253 2490 c 256,102,103
 175 2522 175 2522 120 2578 c 0,104,105
 65 2633 65 2633 32 2711 c 0,106,107
 0 2789 0 2789 0 2867 c 0,108,109
 0 2946 0 2946 32 3023 c 0,110,111
 65 3101 65 3101 120 3157 c 0,112,113
 175 3212 175 3212 253 3245 c 0,114,115
 331 3277 331 3277 410 3277 c 0,116,117
 488 3277 488 3277 566 3245 c 0,118,119
 644 3212 644 3212 699 3157 c 0,120,121
 755 3101 755 3101 787 3023 c 0,122,123
 819 2946 819 2946 819 2867 c 0,124,125
 819 2789 819 2789 787 2711 c 256,126,127
 755 2633 755 2633 699 2578 c 0,96,97
699 3397 m 0,128,129
 644 3341 644 3341 566 3309 c 256,130,131
 488 3277 488 3277 410 3277 c 0,132,133
 331 3277 331 3277 253 3309 c 256,134,135
 175 3341 175 3341 120 3397 c 0,136,137
 65 3452 65 3452 32 3530 c 0,138,139
 0 3608 0 3608 0 3686 c 0,140,141
 0 3765 0 3765 32 3843 c 0,142,143
 65 3921 65 3921 120 3976 c 256,144,145
 175 4031 175 4031 253 4064 c 0,146,147
 331 4096 331 4096 410 4096 c 0,148,149
 488 4096 488 4096 566 4064 c 0,150,151
 644 4031 644 4031 699 3976 c 0,152,153
 755 3921 755 3921 787 3843 c 256,154,155
 819 3765 819 3765 819 3686 c 0,156,157
 819 3608 819 3608 787 3530 c 256,158,159
 755 3452 755 3452 699 3397 c 0,128,129
1518 4216 m 0,160,161
 1463 4161 1463 4161 1385 4128 c 0,162,163
 1307 4096 1307 4096 1229 4096 c 0,164,165
 1150 4096 1150 4096 1073 4128 c 0,166,167
 995 4161 995 4161 939 4216 c 0,168,169
 884 4271 884 4271 851 4349 c 0,170,171
 819 4427 819 4427 819 4506 c 0,172,173
 819 4584 819 4584 851 4662 c 0,174,175
 884 4740 884 4740 939 4795 c 0,176,177
 995 4851 995 4851 1073 4883 c 0,178,179
 1150 4915 1150 4915 1229 4915 c 0,180,181
 1307 4915 1307 4915 1385 4883 c 256,182,183
 1463 4851 1463 4851 1518 4795 c 0,184,185
 1574 4740 1574 4740 1606 4662 c 256,186,187
 1638 4584 1638 4584 1638 4506 c 0,188,189
 1638 4427 1638 4427 1606 4349 c 256,190,191
 1574 4271 1574 4271 1518 4216 c 0,160,161
2338 5035 m 0,192,193
 2282 4980 2282 4980 2204 4947 c 0,194,195
 2126 4915 2126 4915 2048 4915 c 256,196,197
 1970 4915 1970 4915 1892 4947 c 0,198,199
 1814 4980 1814 4980 1758 5035 c 0,200,201
 1703 5091 1703 5091 1671 5169 c 0,202,203
 1638 5246 1638 5246 1638 5325 c 0,204,205
 1638 5403 1638 5403 1671 5481 c 0,206,207
 1703 5559 1703 5559 1758 5614 c 0,208,209
 1814 5670 1814 5670 1892 5702 c 256,210,211
 1970 5734 1970 5734 2048 5734 c 256,212,213
 2126 5734 2126 5734 2204 5702 c 256,214,215
 2282 5670 2282 5670 2338 5614 c 0,216,217
 2393 5559 2393 5559 2425 5481 c 0,218,219
 2458 5403 2458 5403 2458 5325 c 0,220,221
 2458 5246 2458 5246 2425 5169 c 0,222,223
 2393 5091 2393 5091 2338 5035 c 0,192,193
EndSplineSet
Validated: 5
EndChar

StartChar: parenright
Encoding: 41 41 11
Width: 3277
GlyphClass: 1
Flags: W
LayerCount: 2
Fore
SplineSet
699 120 m 0,0,1
 644 65 644 65 566 32 c 0,2,3
 488 0 488 0 410 0 c 0,4,5
 331 0 331 0 253 32 c 0,6,7
 175 65 175 65 120 120 c 256,8,9
 65 175 65 175 32 253 c 0,10,11
 0 331 0 331 0 410 c 0,12,13
 0 488 0 488 32 566 c 0,14,15
 65 644 65 644 120 699 c 0,16,17
 175 755 175 755 253 787 c 256,18,19
 331 819 331 819 410 819 c 0,20,21
 488 819 488 819 566 787 c 256,22,23
 644 755 644 755 699 699 c 0,24,25
 755 644 755 644 787 566 c 256,26,27
 819 488 819 488 819 410 c 0,28,29
 819 331 819 331 787 253 c 256,30,31
 755 175 755 175 699 120 c 0,0,1
1518 939 m 0,32,33
 1463 884 1463 884 1385 851 c 0,34,35
 1307 819 1307 819 1229 819 c 0,36,37
 1150 819 1150 819 1073 851 c 0,38,39
 995 884 995 884 939 939 c 0,40,41
 884 995 884 995 851 1073 c 0,42,43
 819 1150 819 1150 819 1229 c 0,44,45
 819 1307 819 1307 851 1385 c 0,46,47
 884 1463 884 1463 939 1518 c 0,48,49
 995 1574 995 1574 1073 1606 c 0,50,51
 1150 1638 1150 1638 1229 1638 c 0,52,53
 1307 1638 1307 1638 1385 1606 c 256,54,55
 1463 1574 1463 1574 1518 1518 c 0,56,57
 1574 1463 1574 1463 1606 1385 c 256,58,59
 1638 1307 1638 1307 1638 1229 c 0,60,61
 1638 1150 1638 1150 1606 1073 c 0,62,63
 1574 995 1574 995 1518 939 c 0,32,33
2338 1758 m 0,64,65
 2282 1703 2282 1703 2204 1671 c 0,66,67
 2126 1638 2126 1638 2048 1638 c 256,68,69
 1970 1638 1970 1638 1892 1671 c 0,70,71
 1814 1703 1814 1703 1758 1758 c 0,72,73
 1703 1814 1703 1814 1671 1892 c 0,74,75
 1638 1970 1638 1970 1638 2048 c 256,76,77
 1638 2126 1638 2126 1671 2204 c 0,78,79
 1703 2282 1703 2282 1758 2338 c 0,80,81
 1814 2393 1814 2393 1892 2425 c 0,82,83
 1970 2458 1970 2458 2048 2458 c 256,84,85
 2126 2458 2126 2458 2204 2425 c 0,86,87
 2282 2393 2282 2393 2338 2338 c 0,88,89
 2393 2282 2393 2282 2425 2204 c 0,90,91
 2458 2126 2458 2126 2458 2048 c 256,92,93
 2458 1970 2458 1970 2425 1892 c 0,94,95
 2393 1814 2393 1814 2338 1758 c 0,64,65
2338 2578 m 0,96,97
 2282 2522 2282 2522 2204 2490 c 256,98,99
 2126 2458 2126 2458 2048 2458 c 256,100,101
 1970 2458 1970 2458 1892 2490 c 256,102,103
 1814 2522 1814 2522 1758 2578 c 0,104,105
 1703 2633 1703 2633 1671 2711 c 0,106,107
 1638 2789 1638 2789 1638 2867 c 0,108,109
 1638 2946 1638 2946 1671 3023 c 0,110,111
 1703 3101 1703 3101 1758 3157 c 0,112,113
 1814 3212 1814 3212 1892 3245 c 0,114,115
 1970 3277 1970 3277 2048 3277 c 256,116,117
 2126 3277 2126 3277 2204 3245 c 0,118,119
 2282 3212 2282 3212 2338 3157 c 0,120,121
 2393 3101 2393 3101 2425 3023 c 0,122,123
 2458 2946 2458 2946 2458 2867 c 0,124,125
 2458 2789 2458 2789 2425 2711 c 0,126,127
 2393 2633 2393 2633 2338 2578 c 0,96,97
2338 3397 m 0,128,129
 2282 3341 2282 3341 2204 3309 c 256,130,131
 2126 3277 2126 3277 2048 3277 c 256,132,133
 1970 3277 1970 3277 1892 3309 c 256,134,135
 1814 3341 1814 3341 1758 3397 c 0,136,137
 1703 3452 1703 3452 1671 3530 c 0,138,139
 1638 3608 1638 3608 1638 3686 c 0,140,141
 1638 3765 1638 3765 1671 3843 c 0,142,143
 1703 3921 1703 3921 1758 3976 c 0,144,145
 1814 4031 1814 4031 1892 4064 c 0,146,147
 1970 4096 1970 4096 2048 4096 c 256,148,149
 2126 4096 2126 4096 2204 4064 c 0,150,151
 2282 4031 2282 4031 2338 3976 c 0,152,153
 2393 3921 2393 3921 2425 3843 c 0,154,155
 2458 3765 2458 3765 2458 3686 c 0,156,157
 2458 3608 2458 3608 2425 3530 c 0,158,159
 2393 3452 2393 3452 2338 3397 c 0,128,129
1518 4216 m 0,160,161
 1463 4161 1463 4161 1385 4128 c 0,162,163
 1307 4096 1307 4096 1229 4096 c 0,164,165
 1150 4096 1150 4096 1073 4128 c 0,166,167
 995 4161 995 4161 939 4216 c 0,168,169
 884 4271 884 4271 851 4349 c 0,170,171
 819 4427 819 4427 819 4506 c 0,172,173
 819 4584 819 4584 851 4662 c 0,174,175
 884 4740 884 4740 939 4795 c 0,176,177
 995 4851 995 4851 1073 4883 c 0,178,179
 1150 4915 1150 4915 1229 4915 c 0,180,181
 1307 4915 1307 4915 1385 4883 c 256,182,183
 1463 4851 1463 4851 1518 4795 c 0,184,185
 1574 4740 1574 4740 1606 4662 c 256,186,187
 1638 4584 1638 4584 1638 4506 c 0,188,189
 1638 4427 1638 4427 1606 4349 c 256,190,191
 1574 4271 1574 4271 1518 4216 c 0,160,161
699 5035 m 0,192,193
 644 4980 644 4980 566 4947 c 0,194,195
 488 4915 488 4915 410 4915 c 0,196,197
 331 4915 331 4915 253 4947 c 0,198,199
 175 4980 175 4980 120 5035 c 0,200,201
 65 5091 65 5091 32 5169 c 0,202,203
 0 5246 0 5246 0 5325 c 0,204,205
 0 5403 0 5403 32 5481 c 0,206,207
 65 5559 65 5559 120 5614 c 0,208,209
 175 5670 175 5670 253 5702 c 256,210,211
 331 5734 331 5734 410 5734 c 0,212,213
 488 5734 488 5734 566 5702 c 256,214,215
 644 5670 644 5670 699 5614 c 0,216,217
 755 5559 755 5559 787 5481 c 256,218,219
 819 5403 819 5403 819 5325 c 0,220,221
 819 5246 819 5246 787 5169 c 0,222,223
 755 5091 755 5091 699 5035 c 0,192,193
EndSplineSet
Validated: 5
EndChar

StartChar: asterisk
Encoding: 42 42 12
Width: 4915
GlyphClass: 1
Flags: W
LayerCount: 2
Fore
SplineSet
699 1758 m 0,0,1
 644 1703 644 1703 566 1671 c 0,2,3
 488 1638 488 1638 410 1638 c 0,4,5
 331 1638 331 1638 253 1671 c 0,6,7
 175 1703 175 1703 120 1758 c 0,8,9
 65 1814 65 1814 32 1892 c 0,10,11
 0 1970 0 1970 0 2048 c 256,12,13
 0 2126 0 2126 32 2204 c 0,14,15
 65 2282 65 2282 120 2338 c 0,16,17
 175 2393 175 2393 253 2425 c 0,18,19
 331 2458 331 2458 410 2458 c 0,20,21
 488 2458 488 2458 566 2425 c 0,22,23
 644 2393 644 2393 699 2338 c 0,24,25
 755 2282 755 2282 787 2204 c 256,26,27
 819 2126 819 2126 819 2048 c 256,28,29
 819 1970 819 1970 787 1892 c 256,30,31
 755 1814 755 1814 699 1758 c 0,0,1
1518 1758 m 0,32,33
 1463 1703 1463 1703 1385 1671 c 0,34,35
 1307 1638 1307 1638 1229 1638 c 0,36,37
 1150 1638 1150 1638 1073 1671 c 0,38,39
 995 1703 995 1703 939 1758 c 0,40,41
 884 1814 884 1814 851 1892 c 0,42,43
 819 1970 819 1970 819 2048 c 256,44,45
 819 2126 819 2126 851 2204 c 0,46,47
 884 2282 884 2282 939 2338 c 0,48,49
 995 2393 995 2393 1073 2425 c 0,50,51
 1150 2458 1150 2458 1229 2458 c 0,52,53
 1307 2458 1307 2458 1385 2425 c 0,54,55
 1463 2393 1463 2393 1518 2338 c 0,56,57
 1574 2282 1574 2282 1606 2204 c 256,58,59
 1638 2126 1638 2126 1638 2048 c 256,60,61
 1638 1970 1638 1970 1606 1892 c 256,62,63
 1574 1814 1574 1814 1518 1758 c 0,32,33
2338 1758 m 0,64,65
 2282 1703 2282 1703 2204 1671 c 0,66,67
 2126 1638 2126 1638 2048 1638 c 256,68,69
 1970 1638 1970 1638 1892 1671 c 0,70,71
 1814 1703 1814 1703 1758 1758 c 0,72,73
 1703 1814 1703 1814 1671 1892 c 0,74,75
 1638 1970 1638 1970 1638 2048 c 256,76,77
 1638 2126 1638 2126 1671 2204 c 0,78,79
 1703 2282 1703 2282 1758 2338 c 0,80,81
 1814 2393 1814 2393 1892 2425 c 0,82,83
 1970 2458 1970 2458 2048 2458 c 256,84,85
 2126 2458 2126 2458 2204 2425 c 0,86,87
 2282 2393 2282 2393 2338 2338 c 0,88,89
 2393 2282 2393 2282 2425 2204 c 0,90,91
 2458 2126 2458 2126 2458 2048 c 256,92,93
 2458 1970 2458 1970 2425 1892 c 0,94,95
 2393 1814 2393 1814 2338 1758 c 0,64,65
3157 1758 m 0,96,97
 3101 1703 3101 1703 3023 1671 c 0,98,99
 2946 1638 2946 1638 2867 1638 c 0,100,101
 2789 1638 2789 1638 2711 1671 c 0,102,103
 2633 1703 2633 1703 2578 1758 c 0,104,105
 2522 1814 2522 1814 2490 1892 c 256,106,107
 2458 1970 2458 1970 2458 2048 c 256,108,109
 2458 2126 2458 2126 2490 2204 c 256,110,111
 2522 2282 2522 2282 2578 2338 c 0,112,113
 2633 2393 2633 2393 2711 2425 c 0,114,115
 2789 2458 2789 2458 2867 2458 c 0,116,117
 2946 2458 2946 2458 3023 2425 c 0,118,119
 3101 2393 3101 2393 3157 2338 c 0,120,121
 3212 2282 3212 2282 3245 2204 c 0,122,123
 3277 2126 3277 2126 3277 2048 c 256,124,125
 3277 1970 3277 1970 3245 1892 c 0,126,127
 3212 1814 3212 1814 3157 1758 c 0,96,97
3976 1758 m 0,128,129
 3921 1703 3921 1703 3843 1671 c 0,130,131
 3765 1638 3765 1638 3686 1638 c 0,132,133
 3608 1638 3608 1638 3530 1671 c 0,134,135
 3452 1703 3452 1703 3397 1758 c 0,136,137
 3341 1814 3341 1814 3309 1892 c 256,138,139
 3277 1970 3277 1970 3277 2048 c 256,140,141
 3277 2126 3277 2126 3309 2204 c 256,142,143
 3341 2282 3341 2282 3397 2338 c 0,144,145
 3452 2393 3452 2393 3530 2425 c 0,146,147
 3608 2458 3608 2458 3686 2458 c 0,148,149
 3765 2458 3765 2458 3843 2425 c 0,150,151
 3921 2393 3921 2393 3976 2338 c 0,152,153
 4031 2282 4031 2282 4064 2204 c 0,154,155
 4096 2126 4096 2126 4096 2048 c 256,156,157
 4096 1970 4096 1970 4064 1892 c 0,158,159
 4031 1814 4031 1814 3976 1758 c 0,128,129
2338 2578 m 0,160,161
 2282 2522 2282 2522 2204 2490 c 256,162,163
 2126 2458 2126 2458 2048 2458 c 256,164,165
 1970 2458 1970 2458 1892 2490 c 256,166,167
 1814 2522 1814 2522 1758 2578 c 0,168,169
 1703 2633 1703 2633 1671 2711 c 0,170,171
 1638 2789 1638 2789 1638 2867 c 0,172,173
 1638 2946 1638 2946 1671 3023 c 0,174,175
 1703 3101 1703 3101 1758 3157 c 0,176,177
 1814 3212 1814 3212 1892 3245 c 0,178,179
 1970 3277 1970 3277 2048 3277 c 256,180,181
 2126 3277 2126 3277 2204 3245 c 0,182,183
 2282 3212 2282 3212 2338 3157 c 0,184,185
 2393 3101 2393 3101 2425 3023 c 0,186,187
 2458 2946 2458 2946 2458 2867 c 0,188,189
 2458 2789 2458 2789 2425 2711 c 0,190,191
 2393 2633 2393 2633 2338 2578 c 0,160,161
2338 3397 m 0,192,193
 2282 3341 2282 3341 2204 3309 c 256,194,195
 2126 3277 2126 3277 2048 3277 c 256,196,197
 1970 3277 1970 3277 1892 3309 c 0,198,199
 1888 3311 1888 3311 1884 3313 c 0,200,201
 1811 3344 1811 3344 1758 3397 c 0,202,203
 1703 3452 1703 3452 1671 3530 c 0,204,205
 1638 3608 1638 3608 1638 3686 c 0,206,207
 1638 3765 1638 3765 1671 3843 c 0,208,209
 1703 3921 1703 3921 1758 3976 c 0,210,211
 1814 4031 1814 4031 1892 4064 c 0,212,213
 1970 4096 1970 4096 2048 4096 c 256,214,215
 2126 4096 2126 4096 2204 4064 c 0,216,217
 2282 4031 2282 4031 2338 3976 c 0,218,219
 2393 3921 2393 3921 2425 3843 c 0,220,221
 2458 3765 2458 3765 2458 3686 c 0,222,223
 2458 3608 2458 3608 2425 3530 c 0,224,225
 2393 3452 2393 3452 2338 3397 c 0,192,193
699 120 m 0,226,227
 644 65 644 65 566 32 c 0,228,229
 488 0 488 0 410 0 c 0,230,231
 331 0 331 0 253 32 c 0,232,233
 175 65 175 65 120 120 c 256,234,235
 65 175 65 175 32 253 c 0,236,237
 0 331 0 331 0 410 c 0,238,239
 0 488 0 488 32 566 c 0,240,241
 65 644 65 644 120 699 c 0,242,243
 175 755 175 755 253 787 c 256,244,245
 331 819 331 819 410 819 c 0,246,247
 488 819 488 819 566 787 c 0,248,249
 570 785 570 785 574 783 c 0,250,251
 647 752 647 752 699 699 c 0,252,253
 755 644 755 644 787 566 c 256,254,255
 819 488 819 488 819 410 c 0,256,257
 819 331 819 331 787 253 c 256,258,259
 755 175 755 175 699 120 c 0,226,227
3976 120 m 256,260,261
 3921 65 3921 65 3843 32 c 0,262,263
 3765 0 3765 0 3686 0 c 0,264,265
 3608 0 3608 0 3530 32 c 0,266,267
 3452 65 3452 65 3397 120 c 0,268,269
 3341 175 3341 175 3309 253 c 256,270,271
 3277 331 3277 331 3277 410 c 0,272,273
 3277 488 3277 488 3309 566 c 256,274,275
 3341 644 3341 644 3397 699 c 0,276,277
 3452 755 3452 755 3530 787 c 256,278,279
 3608 819 3608 819 3686 819 c 0,280,281
 3765 819 3765 819 3843 787 c 256,282,283
 3921 755 3921 755 3976 699 c 0,284,285
 4031 644 4031 644 4064 566 c 0,286,287
 4096 488 4096 488 4096 410 c 0,288,289
 4096 331 4096 331 4064 253 c 0,290,291
 4031 175 4031 175 3976 120 c 256,260,261
1518 939 m 0,292,293
 1463 884 1463 884 1385 851 c 0,294,295
 1307 819 1307 819 1229 819 c 0,296,297
 1150 819 1150 819 1073 851 c 0,298,299
 995 884 995 884 939 939 c 0,300,301
 884 995 884 995 851 1073 c 0,302,303
 819 1150 819 1150 819 1229 c 0,304,305
 819 1307 819 1307 851 1385 c 0,306,307
 884 1463 884 1463 939 1518 c 0,308,309
 995 1574 995 1574 1073 1606 c 0,310,311
 1150 1638 1150 1638 1229 1638 c 0,312,313
 1307 1638 1307 1638 1385 1606 c 256,314,315
 1463 1574 1463 1574 1518 1518 c 0,316,317
 1574 1463 1574 1463 1606 1385 c 256,318,319
 1638 1307 1638 1307 1638 1229 c 0,320,321
 1638 1150 1638 1150 1606 1073 c 0,322,323
 1574 995 1574 995 1518 939 c 0,292,293
3157 939 m 0,324,325
 3101 884 3101 884 3023 851 c 0,326,327
 2946 819 2946 819 2867 819 c 0,328,329
 2789 819 2789 819 2711 851 c 0,330,331
 2633 884 2633 884 2578 939 c 0,332,333
 2522 995 2522 995 2490 1073 c 0,334,335
 2458 1150 2458 1150 2458 1229 c 0,336,337
 2458 1307 2458 1307 2490 1385 c 256,338,339
 2522 1463 2522 1463 2578 1518 c 0,340,341
 2633 1574 2633 1574 2711 1606 c 256,342,343
 2789 1638 2789 1638 2867 1638 c 0,344,345
 2946 1638 2946 1638 3023 1606 c 0,346,347
 3101 1574 3101 1574 3157 1518 c 0,348,349
 3212 1463 3212 1463 3245 1385 c 0,350,351
 3277 1307 3277 1307 3277 1229 c 0,352,353
 3277 1150 3277 1150 3245 1073 c 0,354,355
 3212 995 3212 995 3157 939 c 0,324,325
EndSplineSet
Validated: 5
EndChar

StartChar: plus
Encoding: 43 43 13
Width: 4915
GlyphClass: 1
Flags: W
LayerCount: 2
Fore
SplineSet
699 1758 m 0,0,1
 644 1703 644 1703 566 1671 c 0,2,3
 488 1638 488 1638 410 1638 c 0,4,5
 331 1638 331 1638 253 1671 c 0,6,7
 175 1703 175 1703 120 1758 c 0,8,9
 65 1814 65 1814 32 1892 c 0,10,11
 0 1970 0 1970 0 2048 c 256,12,13
 0 2126 0 2126 32 2204 c 0,14,15
 65 2282 65 2282 120 2338 c 0,16,17
 175 2393 175 2393 253 2425 c 0,18,19
 331 2458 331 2458 410 2458 c 0,20,21
 488 2458 488 2458 566 2425 c 0,22,23
 644 2393 644 2393 699 2338 c 0,24,25
 755 2282 755 2282 787 2204 c 256,26,27
 819 2126 819 2126 819 2048 c 256,28,29
 819 1970 819 1970 787 1892 c 256,30,31
 755 1814 755 1814 699 1758 c 0,0,1
1518 1758 m 0,32,33
 1463 1703 1463 1703 1385 1671 c 0,34,35
 1307 1638 1307 1638 1229 1638 c 0,36,37
 1150 1638 1150 1638 1073 1671 c 0,38,39
 995 1703 995 1703 939 1758 c 0,40,41
 884 1814 884 1814 851 1892 c 0,42,43
 819 1970 819 1970 819 2048 c 256,44,45
 819 2126 819 2126 851 2204 c 0,46,47
 884 2282 884 2282 939 2338 c 0,48,49
 995 2393 995 2393 1073 2425 c 0,50,51
 1150 2458 1150 2458 1229 2458 c 0,52,53
 1307 2458 1307 2458 1385 2425 c 0,54,55
 1463 2393 1463 2393 1518 2338 c 0,56,57
 1574 2282 1574 2282 1606 2204 c 256,58,59
 1638 2126 1638 2126 1638 2048 c 256,60,61
 1638 1970 1638 1970 1606 1892 c 256,62,63
 1574 1814 1574 1814 1518 1758 c 0,32,33
2338 1758 m 0,64,65
 2282 1703 2282 1703 2204 1671 c 0,66,67
 2126 1638 2126 1638 2048 1638 c 256,68,69
 1970 1638 1970 1638 1892 1671 c 0,70,71
 1814 1703 1814 1703 1758 1758 c 0,72,73
 1703 1814 1703 1814 1671 1892 c 0,74,75
 1638 1970 1638 1970 1638 2048 c 256,76,77
 1638 2126 1638 2126 1671 2204 c 0,78,79
 1703 2282 1703 2282 1758 2338 c 0,80,81
 1814 2393 1814 2393 1892 2425 c 0,82,83
 1970 2458 1970 2458 2048 2458 c 256,84,85
 2126 2458 2126 2458 2204 2425 c 0,86,87
 2282 2393 2282 2393 2338 2338 c 0,88,89
 2393 2282 2393 2282 2425 2204 c 0,90,91
 2458 2126 2458 2126 2458 2048 c 256,92,93
 2458 1970 2458 1970 2425 1892 c 0,94,95
 2393 1814 2393 1814 2338 1758 c 0,64,65
3157 1758 m 0,96,97
 3101 1703 3101 1703 3023 1671 c 0,98,99
 2946 1638 2946 1638 2867 1638 c 0,100,101
 2789 1638 2789 1638 2711 1671 c 0,102,103
 2633 1703 2633 1703 2578 1758 c 0,104,105
 2522 1814 2522 1814 2490 1892 c 256,106,107
 2458 1970 2458 1970 2458 2048 c 256,108,109
 2458 2126 2458 2126 2490 2204 c 256,110,111
 2522 2282 2522 2282 2578 2338 c 0,112,113
 2633 2393 2633 2393 2711 2425 c 0,114,115
 2789 2458 2789 2458 2867 2458 c 0,116,117
 2946 2458 2946 2458 3023 2425 c 0,118,119
 3101 2393 3101 2393 3157 2338 c 0,120,121
 3212 2282 3212 2282 3245 2204 c 0,122,123
 3277 2126 3277 2126 3277 2048 c 256,124,125
 3277 1970 3277 1970 3245 1892 c 0,126,127
 3212 1814 3212 1814 3157 1758 c 0,96,97
3976 1758 m 0,128,129
 3921 1703 3921 1703 3843 1671 c 0,130,131
 3765 1638 3765 1638 3686 1638 c 0,132,133
 3608 1638 3608 1638 3530 1671 c 0,134,135
 3452 1703 3452 1703 3397 1758 c 0,136,137
 3341 1814 3341 1814 3309 1892 c 256,138,139
 3277 1970 3277 1970 3277 2048 c 256,140,141
 3277 2126 3277 2126 3309 2204 c 256,142,143
 3341 2282 3341 2282 3397 2338 c 0,144,145
 3452 2393 3452 2393 3530 2425 c 0,146,147
 3608 2458 3608 2458 3686 2458 c 0,148,149
 3765 2458 3765 2458 3843 2425 c 0,150,151
 3921 2393 3921 2393 3976 2338 c 0,152,153
 4031 2282 4031 2282 4064 2204 c 0,154,155
 4096 2126 4096 2126 4096 2048 c 256,156,157
 4096 1970 4096 1970 4064 1892 c 0,158,159
 4031 1814 4031 1814 3976 1758 c 0,128,129
2338 2578 m 0,160,161
 2282 2522 2282 2522 2204 2490 c 256,162,163
 2126 2458 2126 2458 2048 2458 c 256,164,165
 1970 2458 1970 2458 1892 2490 c 256,166,167
 1814 2522 1814 2522 1758 2578 c 0,168,169
 1703 2633 1703 2633 1671 2711 c 0,170,171
 1638 2789 1638 2789 1638 2867 c 0,172,173
 1638 2946 1638 2946 1671 3023 c 0,174,175
 1703 3101 1703 3101 1758 3157 c 0,176,177
 1814 3212 1814 3212 1892 3245 c 0,178,179
 1970 3277 1970 3277 2048 3277 c 256,180,181
 2126 3277 2126 3277 2204 3245 c 0,182,183
 2282 3212 2282 3212 2338 3157 c 0,184,185
 2393 3101 2393 3101 2425 3023 c 0,186,187
 2458 2946 2458 2946 2458 2867 c 0,188,189
 2458 2789 2458 2789 2425 2711 c 0,190,191
 2393 2633 2393 2633 2338 2578 c 0,160,161
2338 3397 m 0,192,193
 2282 3341 2282 3341 2204 3309 c 256,194,195
 2126 3277 2126 3277 2048 3277 c 256,196,197
 1970 3277 1970 3277 1892 3309 c 256,198,199
 1814 3341 1814 3341 1758 3397 c 0,200,201
 1703 3452 1703 3452 1671 3530 c 0,202,203
 1638 3608 1638 3608 1638 3686 c 0,204,205
 1638 3765 1638 3765 1671 3843 c 0,206,207
 1703 3921 1703 3921 1758 3976 c 0,208,209
 1814 4031 1814 4031 1892 4064 c 0,210,211
 1970 4096 1970 4096 2048 4096 c 256,212,213
 2126 4096 2126 4096 2204 4064 c 0,214,215
 2282 4031 2282 4031 2338 3976 c 0,216,217
 2393 3921 2393 3921 2425 3843 c 0,218,219
 2458 3765 2458 3765 2458 3686 c 0,220,221
 2458 3608 2458 3608 2425 3530 c 0,222,223
 2393 3452 2393 3452 2338 3397 c 0,192,193
2338 120 m 0,224,225
 2282 65 2282 65 2204 32 c 0,226,227
 2126 0 2126 0 2048 0 c 256,228,229
 1970 0 1970 0 1892 32 c 0,230,231
 1814 65 1814 65 1758 120 c 0,232,233
 1703 175 1703 175 1671 253 c 0,234,235
 1638 331 1638 331 1638 410 c 0,236,237
 1638 488 1638 488 1671 566 c 0,238,239
 1703 644 1703 644 1758 699 c 0,240,241
 1814 755 1814 755 1892 787 c 256,242,243
 1970 819 1970 819 2048 819 c 256,244,245
 2126 819 2126 819 2204 787 c 256,246,247
 2282 755 2282 755 2338 699 c 0,248,249
 2393 644 2393 644 2425 566 c 0,250,251
 2458 488 2458 488 2458 410 c 0,252,253
 2458 331 2458 331 2425 253 c 0,254,255
 2393 175 2393 175 2338 120 c 0,224,225
2338 939 m 0,256,257
 2282 884 2282 884 2204 851 c 0,258,259
 2126 819 2126 819 2048 819 c 256,260,261
 1970 819 1970 819 1892 851 c 0,262,263
 1814 884 1814 884 1758 939 c 0,264,265
 1703 995 1703 995 1671 1073 c 0,266,267
 1638 1150 1638 1150 1638 1229 c 0,268,269
 1638 1307 1638 1307 1671 1385 c 0,270,271
 1703 1463 1703 1463 1758 1518 c 0,272,273
 1814 1574 1814 1574 1892 1606 c 256,274,275
 1970 1638 1970 1638 2048 1638 c 256,276,277
 2126 1638 2126 1638 2204 1606 c 256,278,279
 2282 1574 2282 1574 2338 1518 c 0,280,281
 2393 1463 2393 1463 2425 1385 c 0,282,283
 2458 1307 2458 1307 2458 1229 c 0,284,285
 2458 1150 2458 1150 2425 1073 c 0,286,287
 2393 995 2393 995 2338 939 c 0,256,257
EndSplineSet
Validated: 5
EndChar

StartChar: comma
Encoding: 44 44 14
Width: 2458
GlyphClass: 1
Flags: W
LayerCount: 2
Fore
SplineSet
699 -699 m 0,0,1
 644 -755 644 -755 566 -787 c 256,2,3
 488 -819 488 -819 410 -819 c 0,4,5
 331 -819 331 -819 253 -787 c 256,6,7
 175 -755 175 -755 120 -699 c 0,8,9
 65 -644 65 -644 32 -566 c 0,10,11
 0 -488 0 -488 0 -410 c 0,12,13
 0 -331 0 -331 32 -253 c 0,14,15
 65 -175 65 -175 120 -120 c 256,16,17
 175 -65 175 -65 253 -32 c 0,18,19
 331 0 331 0 410 0 c 0,20,21
 484 0 484 0 558 -29 c 0,22,23
 562 -31 562 -31 566 -32 c 0,24,25
 644 -65 644 -65 699 -120 c 0,26,27
 755 -175 755 -175 787 -253 c 256,28,29
 819 -331 819 -331 819 -410 c 0,30,31
 819 -488 819 -488 787 -566 c 256,32,33
 755 -644 755 -644 699 -699 c 0,0,1
1518 120 m 0,34,35
 1463 65 1463 65 1385 32 c 0,36,37
 1307 0 1307 0 1229 0 c 0,38,39
 1150 0 1150 0 1073 32 c 0,40,41
 995 65 995 65 939 120 c 0,42,43
 884 175 884 175 851 253 c 0,44,45
 819 331 819 331 819 410 c 0,46,47
 819 488 819 488 851 566 c 0,48,49
 884 644 884 644 939 699 c 0,50,51
 995 755 995 755 1073 787 c 0,52,53
 1150 819 1150 819 1229 819 c 0,54,55
 1307 819 1307 819 1385 787 c 256,56,57
 1463 755 1463 755 1518 699 c 0,58,59
 1574 644 1574 644 1606 566 c 256,60,61
 1638 488 1638 488 1638 410 c 0,62,63
 1638 331 1638 331 1606 253 c 256,64,65
 1574 175 1574 175 1518 120 c 0,34,35
1518 939 m 0,66,67
 1463 884 1463 884 1385 851 c 0,68,69
 1307 819 1307 819 1229 819 c 0,70,71
 1155 819 1155 819 1081 848 c 0,72,73
 1077 850 1077 850 1073 851 c 0,74,75
 995 884 995 884 939 939 c 0,76,77
 884 995 884 995 851 1073 c 0,78,79
 819 1150 819 1150 819 1229 c 0,80,81
 819 1307 819 1307 851 1385 c 0,82,83
 884 1463 884 1463 939 1518 c 0,84,85
 995 1574 995 1574 1073 1606 c 0,86,87
 1150 1638 1150 1638 1229 1638 c 0,88,89
 1307 1638 1307 1638 1385 1606 c 256,90,91
 1463 1574 1463 1574 1518 1518 c 0,92,93
 1574 1463 1574 1463 1606 1385 c 256,94,95
 1638 1307 1638 1307 1638 1229 c 0,96,97
 1638 1150 1638 1150 1606 1073 c 0,98,99
 1574 995 1574 995 1518 939 c 0,66,67
EndSplineSet
Validated: 5
EndChar

StartChar: hyphen
Encoding: 45 45 15
Width: 3277
GlyphClass: 1
Flags: W
LayerCount: 2
Fore
SplineSet
699 1758 m 0,0,1
 644 1703 644 1703 566 1671 c 0,2,3
 488 1638 488 1638 410 1638 c 0,4,5
 331 1638 331 1638 253 1671 c 0,6,7
 175 1703 175 1703 120 1758 c 0,8,9
 65 1814 65 1814 32 1892 c 0,10,11
 0 1970 0 1970 0 2048 c 256,12,13
 0 2126 0 2126 32 2204 c 0,14,15
 65 2282 65 2282 120 2338 c 0,16,17
 175 2393 175 2393 253 2425 c 0,18,19
 331 2458 331 2458 410 2458 c 0,20,21
 488 2458 488 2458 566 2425 c 0,22,23
 644 2393 644 2393 699 2338 c 0,24,25
 755 2282 755 2282 787 2204 c 256,26,27
 819 2126 819 2126 819 2048 c 256,28,29
 819 1970 819 1970 787 1892 c 256,30,31
 755 1814 755 1814 699 1758 c 0,0,1
1518 1758 m 0,32,33
 1463 1703 1463 1703 1385 1671 c 0,34,35
 1307 1638 1307 1638 1229 1638 c 0,36,37
 1150 1638 1150 1638 1073 1671 c 0,38,39
 995 1703 995 1703 939 1758 c 0,40,41
 884 1814 884 1814 851 1892 c 0,42,43
 819 1970 819 1970 819 2048 c 256,44,45
 819 2126 819 2126 851 2204 c 0,46,47
 884 2282 884 2282 939 2338 c 0,48,49
 995 2393 995 2393 1073 2425 c 0,50,51
 1150 2458 1150 2458 1229 2458 c 0,52,53
 1307 2458 1307 2458 1385 2425 c 0,54,55
 1463 2393 1463 2393 1518 2338 c 0,56,57
 1574 2282 1574 2282 1606 2204 c 256,58,59
 1638 2126 1638 2126 1638 2048 c 256,60,61
 1638 1970 1638 1970 1606 1892 c 256,62,63
 1574 1814 1574 1814 1518 1758 c 0,32,33
2338 1758 m 0,64,65
 2282 1703 2282 1703 2204 1671 c 0,66,67
 2126 1638 2126 1638 2048 1638 c 256,68,69
 1970 1638 1970 1638 1892 1671 c 0,70,71
 1814 1703 1814 1703 1758 1758 c 0,72,73
 1703 1814 1703 1814 1671 1892 c 0,74,75
 1638 1970 1638 1970 1638 2048 c 256,76,77
 1638 2126 1638 2126 1671 2204 c 0,78,79
 1703 2282 1703 2282 1758 2338 c 0,80,81
 1814 2393 1814 2393 1892 2425 c 0,82,83
 1970 2458 1970 2458 2048 2458 c 256,84,85
 2126 2458 2126 2458 2204 2425 c 0,86,87
 2282 2393 2282 2393 2338 2338 c 0,88,89
 2393 2282 2393 2282 2425 2204 c 0,90,91
 2458 2126 2458 2126 2458 2048 c 256,92,93
 2458 1970 2458 1970 2425 1892 c 0,94,95
 2393 1814 2393 1814 2338 1758 c 0,64,65
EndSplineSet
Validated: 5
EndChar

StartChar: period
Encoding: 46 46 16
Width: 1639
GlyphClass: 1
Flags: W
LayerCount: 2
Fore
SplineSet
699 120 m 0,0,1
 644 65 644 65 566 32 c 0,2,3
 488 0 488 0 410 0 c 0,4,5
 331 0 331 0 253 32 c 0,6,7
 175 65 175 65 120 120 c 256,8,9
 65 175 65 175 32 253 c 0,10,11
 0 331 0 331 0 410 c 0,12,13
 0 488 0 488 32 566 c 0,14,15
 65 644 65 644 120 699 c 0,16,17
 175 755 175 755 253 787 c 256,18,19
 331 819 331 819 410 819 c 0,20,21
 488 819 488 819 566 787 c 256,22,23
 644 755 644 755 699 699 c 0,24,25
 755 644 755 644 787 566 c 256,26,27
 819 488 819 488 819 410 c 0,28,29
 819 331 819 331 787 253 c 256,30,31
 755 175 755 175 699 120 c 0,0,1
EndSplineSet
Validated: 1
EndChar

StartChar: slash
Encoding: 47 47 17
Width: 4915
GlyphClass: 1
Flags: W
LayerCount: 2
Fore
SplineSet
699 120 m 0,0,1
 644 65 644 65 566 32 c 0,2,3
 488 0 488 0 410 0 c 0,4,5
 331 0 331 0 253 32 c 0,6,7
 175 65 175 65 120 120 c 256,8,9
 65 175 65 175 32 253 c 0,10,11
 0 331 0 331 0 410 c 0,12,13
 0 488 0 488 32 566 c 0,14,15
 65 644 65 644 120 699 c 0,16,17
 175 755 175 755 253 787 c 256,18,19
 331 819 331 819 410 819 c 0,20,21
 488 819 488 819 566 787 c 0,22,23
 599 773 599 773 628 756 c 0,24,25
 667 731 667 731 699 699 c 0,26,27
 755 644 755 644 787 566 c 256,28,29
 819 488 819 488 819 410 c 0,30,31
 819 331 819 331 787 253 c 256,32,33
 755 175 755 175 699 120 c 0,0,1
699 939 m 0,34,35
 644 884 644 884 566 851 c 0,36,37
 488 819 488 819 410 819 c 0,38,39
 331 819 331 819 253 851 c 0,40,41
 175 884 175 884 120 939 c 0,42,43
 65 995 65 995 32 1073 c 0,44,45
 0 1150 0 1150 0 1229 c 0,46,47
 0 1307 0 1307 32 1385 c 0,48,49
 65 1463 65 1463 120 1518 c 0,50,51
 175 1574 175 1574 253 1606 c 256,52,53
 331 1638 331 1638 410 1638 c 0,54,55
 488 1638 488 1638 566 1606 c 256,56,57
 644 1574 644 1574 699 1518 c 0,58,59
 755 1463 755 1463 787 1385 c 256,60,61
 819 1307 819 1307 819 1229 c 0,62,63
 819 1150 819 1150 787 1073 c 0,64,65
 755 995 755 995 699 939 c 0,34,35
1518 1758 m 0,66,67
 1463 1703 1463 1703 1385 1671 c 0,68,69
 1307 1638 1307 1638 1229 1638 c 0,70,71
 1150 1638 1150 1638 1073 1671 c 0,72,73
 995 1703 995 1703 939 1758 c 0,74,75
 884 1814 884 1814 851 1892 c 0,76,77
 819 1970 819 1970 819 2048 c 256,78,79
 819 2126 819 2126 851 2204 c 0,80,81
 884 2282 884 2282 939 2338 c 0,82,83
 995 2393 995 2393 1073 2425 c 0,84,85
 1150 2458 1150 2458 1229 2458 c 0,86,87
 1307 2458 1307 2458 1385 2425 c 0,88,89
 1463 2393 1463 2393 1518 2338 c 0,90,91
 1574 2282 1574 2282 1606 2204 c 256,92,93
 1638 2126 1638 2126 1638 2048 c 256,94,95
 1638 1970 1638 1970 1606 1892 c 256,96,97
 1574 1814 1574 1814 1518 1758 c 0,66,67
2338 2578 m 0,98,99
 2282 2522 2282 2522 2204 2490 c 256,100,101
 2126 2458 2126 2458 2048 2458 c 256,102,103
 1970 2458 1970 2458 1892 2490 c 256,104,105
 1814 2522 1814 2522 1758 2578 c 0,106,107
 1703 2633 1703 2633 1671 2711 c 0,108,109
 1638 2789 1638 2789 1638 2867 c 0,110,111
 1638 2946 1638 2946 1671 3023 c 0,112,113
 1703 3101 1703 3101 1758 3157 c 0,114,115
 1814 3212 1814 3212 1892 3245 c 0,116,117
 1970 3277 1970 3277 2048 3277 c 256,118,119
 2126 3277 2126 3277 2204 3245 c 0,120,121
 2282 3212 2282 3212 2338 3157 c 0,122,123
 2393 3101 2393 3101 2425 3023 c 0,124,125
 2458 2946 2458 2946 2458 2867 c 0,126,127
 2458 2789 2458 2789 2425 2711 c 0,128,129
 2393 2633 2393 2633 2338 2578 c 0,98,99
3157 3397 m 0,130,131
 3101 3341 3101 3341 3023 3309 c 0,132,133
 2946 3277 2946 3277 2867 3277 c 0,134,135
 2789 3277 2789 3277 2711 3309 c 256,136,137
 2633 3341 2633 3341 2578 3397 c 0,138,139
 2522 3452 2522 3452 2490 3530 c 256,140,141
 2458 3608 2458 3608 2458 3686 c 0,142,143
 2458 3765 2458 3765 2490 3843 c 256,144,145
 2522 3921 2522 3921 2578 3976 c 0,146,147
 2633 4031 2633 4031 2711 4064 c 0,148,149
 2789 4096 2789 4096 2867 4096 c 0,150,151
 2946 4096 2946 4096 3023 4064 c 0,152,153
 3101 4031 3101 4031 3157 3976 c 0,154,155
 3212 3921 3212 3921 3245 3843 c 0,156,157
 3277 3765 3277 3765 3277 3686 c 0,158,159
 3277 3608 3277 3608 3245 3530 c 0,160,161
 3212 3452 3212 3452 3157 3397 c 0,130,131
3976 4216 m 256,162,163
 3921 4161 3921 4161 3843 4128 c 0,164,165
 3765 4096 3765 4096 3686 4096 c 0,166,167
 3608 4096 3608 4096 3530 4128 c 0,168,169
 3452 4161 3452 4161 3397 4216 c 0,170,171
 3341 4271 3341 4271 3309 4349 c 256,172,173
 3277 4427 3277 4427 3277 4506 c 0,174,175
 3277 4584 3277 4584 3309 4662 c 256,176,177
 3341 4740 3341 4740 3397 4795 c 0,178,179
 3452 4851 3452 4851 3530 4883 c 256,180,181
 3608 4915 3608 4915 3686 4915 c 0,182,183
 3765 4915 3765 4915 3843 4883 c 256,184,185
 3921 4851 3921 4851 3976 4795 c 0,186,187
 4031 4740 4031 4740 4064 4662 c 0,188,189
 4096 4584 4096 4584 4096 4506 c 0,190,191
 4096 4427 4096 4427 4064 4349 c 0,192,193
 4031 4271 4031 4271 3976 4216 c 256,162,163
3976 5035 m 0,194,195
 3921 4980 3921 4980 3843 4947 c 0,196,197
 3765 4915 3765 4915 3686 4915 c 0,198,199
 3608 4915 3608 4915 3530 4947 c 0,200,201
 3497 4961 3497 4961 3468 4979 c 0,202,203
 3429 5003 3429 5003 3397 5035 c 0,204,205
 3341 5091 3341 5091 3309 5169 c 0,206,207
 3277 5246 3277 5246 3277 5325 c 0,208,209
 3277 5403 3277 5403 3309 5481 c 256,210,211
 3341 5559 3341 5559 3397 5614 c 0,212,213
 3452 5670 3452 5670 3530 5702 c 256,214,215
 3608 5734 3608 5734 3686 5734 c 0,216,217
 3765 5734 3765 5734 3843 5702 c 256,218,219
 3921 5670 3921 5670 3976 5614 c 0,220,221
 4031 5559 4031 5559 4064 5481 c 0,222,223
 4096 5403 4096 5403 4096 5325 c 0,224,225
 4096 5246 4096 5246 4064 5169 c 0,226,227
 4031 5091 4031 5091 3976 5035 c 0,194,195
EndSplineSet
Validated: 5
EndChar

StartChar: zero
Encoding: 48 48 18
Width: 4096
GlyphClass: 1
Flags: W
LayerCount: 2
Fore
SplineSet
1518 120 m 0,0,1
 1463 65 1463 65 1385 32 c 0,2,3
 1307 0 1307 0 1229 0 c 0,4,5
 1150 0 1150 0 1073 32 c 0,6,7
 995 65 995 65 939 120 c 0,8,9
 884 175 884 175 851 253 c 0,10,11
 819 331 819 331 819 410 c 0,12,13
 819 488 819 488 851 566 c 0,14,15
 884 644 884 644 939 699 c 0,16,17
 995 755 995 755 1073 787 c 0,18,19
 1150 819 1150 819 1229 819 c 0,20,21
 1307 819 1307 819 1385 787 c 256,22,23
 1463 755 1463 755 1518 699 c 0,24,25
 1574 644 1574 644 1606 566 c 256,26,27
 1638 488 1638 488 1638 410 c 0,28,29
 1638 331 1638 331 1606 253 c 256,30,31
 1574 175 1574 175 1518 120 c 0,0,1
2338 120 m 0,32,33
 2282 65 2282 65 2204 32 c 0,34,35
 2126 0 2126 0 2048 0 c 256,36,37
 1970 0 1970 0 1892 32 c 0,38,39
 1814 65 1814 65 1758 120 c 0,40,41
 1703 175 1703 175 1671 253 c 0,42,43
 1638 331 1638 331 1638 410 c 0,44,45
 1638 488 1638 488 1671 566 c 0,46,47
 1703 644 1703 644 1758 699 c 0,48,49
 1814 755 1814 755 1892 787 c 256,50,51
 1970 819 1970 819 2048 819 c 256,52,53
 2126 819 2126 819 2204 787 c 256,54,55
 2282 755 2282 755 2338 699 c 0,56,57
 2393 644 2393 644 2425 566 c 0,58,59
 2458 488 2458 488 2458 410 c 0,60,61
 2458 331 2458 331 2425 253 c 0,62,63
 2393 175 2393 175 2338 120 c 0,32,33
699 939 m 0,64,65
 644 884 644 884 566 851 c 0,66,67
 488 819 488 819 410 819 c 0,68,69
 331 819 331 819 253 851 c 0,70,71
 175 884 175 884 120 939 c 0,72,73
 65 995 65 995 32 1073 c 0,74,75
 0 1150 0 1150 0 1229 c 0,76,77
 0 1307 0 1307 32 1385 c 0,78,79
 65 1463 65 1463 120 1518 c 0,80,81
 175 1574 175 1574 253 1606 c 256,82,83
 331 1638 331 1638 410 1638 c 0,84,85
 488 1638 488 1638 566 1606 c 256,86,87
 644 1574 644 1574 699 1518 c 0,88,89
 755 1463 755 1463 787 1385 c 256,90,91
 819 1307 819 1307 819 1229 c 0,92,93
 819 1150 819 1150 787 1073 c 0,94,95
 755 995 755 995 699 939 c 0,64,65
3157 939 m 0,96,97
 3101 884 3101 884 3023 851 c 0,98,99
 2946 819 2946 819 2867 819 c 0,100,101
 2789 819 2789 819 2711 851 c 0,102,103
 2633 884 2633 884 2578 939 c 0,104,105
 2522 995 2522 995 2490 1073 c 0,106,107
 2458 1150 2458 1150 2458 1229 c 0,108,109
 2458 1307 2458 1307 2490 1385 c 256,110,111
 2522 1463 2522 1463 2578 1518 c 0,112,113
 2633 1574 2633 1574 2711 1606 c 256,114,115
 2789 1638 2789 1638 2867 1638 c 0,116,117
 2946 1638 2946 1638 3023 1606 c 0,118,119
 3101 1574 3101 1574 3157 1518 c 0,120,121
 3212 1463 3212 1463 3245 1385 c 0,122,123
 3277 1307 3277 1307 3277 1229 c 0,124,125
 3277 1150 3277 1150 3245 1073 c 0,126,127
 3212 995 3212 995 3157 939 c 0,96,97
699 1758 m 0,128,129
 644 1703 644 1703 566 1671 c 0,130,131
 488 1638 488 1638 410 1638 c 0,132,133
 331 1638 331 1638 253 1671 c 0,134,135
 175 1703 175 1703 120 1758 c 0,136,137
 65 1814 65 1814 32 1892 c 0,138,139
 0 1970 0 1970 0 2048 c 256,140,141
 0 2126 0 2126 32 2204 c 0,142,143
 65 2282 65 2282 120 2338 c 0,144,145
 175 2393 175 2393 253 2425 c 0,146,147
 331 2458 331 2458 410 2458 c 0,148,149
 488 2458 488 2458 566 2425 c 0,150,151
 644 2393 644 2393 699 2338 c 0,152,153
 755 2282 755 2282 787 2204 c 256,154,155
 819 2126 819 2126 819 2048 c 256,156,157
 819 1970 819 1970 787 1892 c 256,158,159
 755 1814 755 1814 699 1758 c 0,128,129
3157 1758 m 0,160,161
 3101 1703 3101 1703 3023 1671 c 0,162,163
 2946 1638 2946 1638 2867 1638 c 0,164,165
 2789 1638 2789 1638 2711 1671 c 0,166,167
 2633 1703 2633 1703 2578 1758 c 0,168,169
 2522 1814 2522 1814 2490 1892 c 256,170,171
 2458 1970 2458 1970 2458 2048 c 256,172,173
 2458 2126 2458 2126 2490 2204 c 256,174,175
 2522 2282 2522 2282 2578 2338 c 0,176,177
 2633 2393 2633 2393 2711 2425 c 0,178,179
 2789 2458 2789 2458 2867 2458 c 0,180,181
 2946 2458 2946 2458 3023 2425 c 0,182,183
 3101 2393 3101 2393 3157 2338 c 0,184,185
 3212 2282 3212 2282 3245 2204 c 0,186,187
 3277 2126 3277 2126 3277 2048 c 256,188,189
 3277 1970 3277 1970 3245 1892 c 0,190,191
 3212 1814 3212 1814 3157 1758 c 0,160,161
699 2578 m 0,192,193
 644 2522 644 2522 566 2490 c 256,194,195
 488 2458 488 2458 410 2458 c 0,196,197
 331 2458 331 2458 253 2490 c 256,198,199
 175 2522 175 2522 120 2578 c 0,200,201
 65 2633 65 2633 32 2711 c 0,202,203
 0 2789 0 2789 0 2867 c 0,204,205
 0 2946 0 2946 32 3023 c 0,206,207
 65 3101 65 3101 120 3157 c 0,208,209
 175 3212 175 3212 253 3245 c 0,210,211
 331 3277 331 3277 410 3277 c 0,212,213
 488 3277 488 3277 566 3245 c 0,214,215
 644 3212 644 3212 699 3157 c 0,216,217
 755 3101 755 3101 787 3023 c 0,218,219
 819 2946 819 2946 819 2867 c 0,220,221
 819 2789 819 2789 787 2711 c 256,222,223
 755 2633 755 2633 699 2578 c 0,192,193
3157 2578 m 0,224,225
 3101 2522 3101 2522 3023 2490 c 0,226,227
 2946 2458 2946 2458 2867 2458 c 0,228,229
 2789 2458 2789 2458 2711 2490 c 256,230,231
 2633 2522 2633 2522 2578 2578 c 0,232,233
 2522 2633 2522 2633 2490 2711 c 256,234,235
 2458 2789 2458 2789 2458 2867 c 0,236,237
 2458 2946 2458 2946 2490 3023 c 0,238,239
 2522 3101 2522 3101 2578 3157 c 0,240,241
 2633 3212 2633 3212 2711 3245 c 0,242,243
 2789 3277 2789 3277 2867 3277 c 0,244,245
 2946 3277 2946 3277 3023 3245 c 0,246,247
 3101 3212 3101 3212 3157 3157 c 0,248,249
 3212 3101 3212 3101 3245 3023 c 0,250,251
 3277 2946 3277 2946 3277 2867 c 0,252,253
 3277 2789 3277 2789 3245 2711 c 0,254,255
 3212 2633 3212 2633 3157 2578 c 0,224,225
699 3397 m 0,256,257
 644 3341 644 3341 566 3309 c 256,258,259
 488 3277 488 3277 410 3277 c 0,260,261
 331 3277 331 3277 253 3309 c 256,262,263
 175 3341 175 3341 120 3397 c 0,264,265
 65 3452 65 3452 32 3530 c 0,266,267
 0 3608 0 3608 0 3686 c 0,268,269
 0 3765 0 3765 32 3843 c 0,270,271
 65 3921 65 3921 120 3976 c 256,272,273
 175 4031 175 4031 253 4064 c 0,274,275
 331 4096 331 4096 410 4096 c 0,276,277
 488 4096 488 4096 566 4064 c 0,278,279
 644 4031 644 4031 699 3976 c 0,280,281
 755 3921 755 3921 787 3843 c 256,282,283
 819 3765 819 3765 819 3686 c 0,284,285
 819 3608 819 3608 787 3530 c 256,286,287
 755 3452 755 3452 699 3397 c 0,256,257
3157 3397 m 0,288,289
 3101 3341 3101 3341 3023 3309 c 0,290,291
 2946 3277 2946 3277 2867 3277 c 0,292,293
 2789 3277 2789 3277 2711 3309 c 256,294,295
 2633 3341 2633 3341 2578 3397 c 0,296,297
 2522 3452 2522 3452 2490 3530 c 256,298,299
 2458 3608 2458 3608 2458 3686 c 0,300,301
 2458 3765 2458 3765 2490 3843 c 256,302,303
 2522 3921 2522 3921 2578 3976 c 0,304,305
 2633 4031 2633 4031 2711 4064 c 0,306,307
 2789 4096 2789 4096 2867 4096 c 0,308,309
 2946 4096 2946 4096 3023 4064 c 0,310,311
 3101 4031 3101 4031 3157 3976 c 0,312,313
 3212 3921 3212 3921 3245 3843 c 0,314,315
 3277 3765 3277 3765 3277 3686 c 0,316,317
 3277 3608 3277 3608 3245 3530 c 0,318,319
 3212 3452 3212 3452 3157 3397 c 0,288,289
699 4216 m 0,320,321
 644 4161 644 4161 566 4128 c 0,322,323
 488 4096 488 4096 410 4096 c 0,324,325
 331 4096 331 4096 253 4128 c 0,326,327
 175 4161 175 4161 120 4216 c 256,328,329
 65 4271 65 4271 32 4349 c 0,330,331
 0 4427 0 4427 0 4506 c 0,332,333
 0 4584 0 4584 32 4662 c 0,334,335
 65 4740 65 4740 120 4795 c 0,336,337
 175 4851 175 4851 253 4883 c 256,338,339
 331 4915 331 4915 410 4915 c 0,340,341
 488 4915 488 4915 566 4883 c 256,342,343
 644 4851 644 4851 699 4795 c 0,344,345
 755 4740 755 4740 787 4662 c 256,346,347
 819 4584 819 4584 819 4506 c 0,348,349
 819 4427 819 4427 787 4349 c 256,350,351
 755 4271 755 4271 699 4216 c 0,320,321
3157 4216 m 0,352,353
 3101 4161 3101 4161 3023 4128 c 0,354,355
 2946 4096 2946 4096 2867 4096 c 0,356,357
 2789 4096 2789 4096 2711 4128 c 0,358,359
 2633 4161 2633 4161 2578 4216 c 0,360,361
 2522 4271 2522 4271 2490 4349 c 256,362,363
 2458 4427 2458 4427 2458 4506 c 0,364,365
 2458 4584 2458 4584 2490 4662 c 256,366,367
 2522 4740 2522 4740 2578 4795 c 0,368,369
 2633 4851 2633 4851 2711 4883 c 256,370,371
 2789 4915 2789 4915 2867 4915 c 0,372,373
 2946 4915 2946 4915 3023 4883 c 0,374,375
 3101 4851 3101 4851 3157 4795 c 0,376,377
 3212 4740 3212 4740 3245 4662 c 0,378,379
 3277 4584 3277 4584 3277 4506 c 0,380,381
 3277 4427 3277 4427 3245 4349 c 0,382,383
 3212 4271 3212 4271 3157 4216 c 0,352,353
1518 5035 m 0,384,385
 1463 4980 1463 4980 1385 4947 c 0,386,387
 1307 4915 1307 4915 1229 4915 c 0,388,389
 1150 4915 1150 4915 1073 4947 c 0,390,391
 995 4980 995 4980 939 5035 c 0,392,393
 884 5091 884 5091 851 5169 c 0,394,395
 819 5246 819 5246 819 5325 c 0,396,397
 819 5403 819 5403 851 5481 c 0,398,399
 884 5559 884 5559 939 5614 c 0,400,401
 995 5670 995 5670 1073 5702 c 0,402,403
 1150 5734 1150 5734 1229 5734 c 0,404,405
 1307 5734 1307 5734 1385 5702 c 256,406,407
 1463 5670 1463 5670 1518 5614 c 0,408,409
 1574 5559 1574 5559 1606 5481 c 256,410,411
 1638 5403 1638 5403 1638 5325 c 0,412,413
 1638 5246 1638 5246 1606 5169 c 0,414,415
 1574 5091 1574 5091 1518 5035 c 0,384,385
2338 5035 m 0,416,417
 2282 4980 2282 4980 2204 4947 c 0,418,419
 2126 4915 2126 4915 2048 4915 c 256,420,421
 1970 4915 1970 4915 1892 4947 c 0,422,423
 1814 4980 1814 4980 1758 5035 c 0,424,425
 1703 5091 1703 5091 1671 5169 c 0,426,427
 1638 5246 1638 5246 1638 5325 c 0,428,429
 1638 5403 1638 5403 1671 5481 c 0,430,431
 1703 5559 1703 5559 1758 5614 c 0,432,433
 1814 5670 1814 5670 1892 5702 c 256,434,435
 1970 5734 1970 5734 2048 5734 c 256,436,437
 2126 5734 2126 5734 2204 5702 c 256,438,439
 2282 5670 2282 5670 2338 5614 c 0,440,441
 2393 5559 2393 5559 2425 5481 c 0,442,443
 2458 5403 2458 5403 2458 5325 c 0,444,445
 2458 5246 2458 5246 2425 5169 c 0,446,447
 2393 5091 2393 5091 2338 5035 c 0,416,417
EndSplineSet
Validated: 5
EndChar

StartChar: one
Encoding: 49 49 19
Width: 3277
GlyphClass: 1
Flags: W
LayerCount: 2
Fore
SplineSet
699 120 m 0,0,1
 644 65 644 65 566 32 c 0,2,3
 488 0 488 0 410 0 c 0,4,5
 331 0 331 0 253 32 c 0,6,7
 175 65 175 65 120 120 c 256,8,9
 65 175 65 175 32 253 c 0,10,11
 0 331 0 331 0 410 c 0,12,13
 0 488 0 488 32 566 c 0,14,15
 65 644 65 644 120 699 c 0,16,17
 175 755 175 755 253 787 c 256,18,19
 331 819 331 819 410 819 c 0,20,21
 438 819 438 819 467 815 c 0,22,23
 517 807 517 807 566 787 c 0,24,25
 644 755 644 755 699 699 c 0,26,27
 755 644 755 644 787 566 c 256,28,29
 819 488 819 488 819 410 c 0,30,31
 819 331 819 331 787 253 c 256,32,33
 755 175 755 175 699 120 c 0,0,1
1518 120 m 0,34,35
 1463 65 1463 65 1385 32 c 0,36,37
 1307 0 1307 0 1229 0 c 0,38,39
 1150 0 1150 0 1073 32 c 0,40,41
 995 65 995 65 939 120 c 0,42,43
 884 175 884 175 851 253 c 0,44,45
 819 331 819 331 819 410 c 0,46,47
 819 488 819 488 851 566 c 0,48,49
 884 644 884 644 939 699 c 0,50,51
 995 755 995 755 1073 787 c 0,52,53
 1150 819 1150 819 1229 819 c 0,54,55
 1307 819 1307 819 1385 787 c 256,56,57
 1463 755 1463 755 1518 699 c 0,58,59
 1574 644 1574 644 1606 566 c 256,60,61
 1638 488 1638 488 1638 410 c 0,62,63
 1638 331 1638 331 1606 253 c 256,64,65
 1574 175 1574 175 1518 120 c 0,34,35
2338 120 m 0,66,67
 2282 65 2282 65 2204 32 c 0,68,69
 2126 0 2126 0 2048 0 c 256,70,71
 1970 0 1970 0 1892 32 c 0,72,73
 1814 65 1814 65 1758 120 c 0,74,75
 1703 175 1703 175 1671 253 c 0,76,77
 1638 331 1638 331 1638 410 c 0,78,79
 1638 488 1638 488 1671 566 c 0,80,81
 1703 644 1703 644 1758 699 c 0,82,83
 1814 755 1814 755 1892 787 c 256,84,85
 1970 819 1970 819 2048 819 c 256,86,87
 2126 819 2126 819 2204 787 c 256,88,89
 2282 755 2282 755 2338 699 c 0,90,91
 2393 644 2393 644 2425 566 c 0,92,93
 2458 488 2458 488 2458 410 c 0,94,95
 2458 331 2458 331 2425 253 c 0,96,97
 2393 175 2393 175 2338 120 c 0,66,67
1518 939 m 0,98,99
 1463 884 1463 884 1385 851 c 0,100,101
 1307 819 1307 819 1229 819 c 0,102,103
 1150 819 1150 819 1073 851 c 0,104,105
 995 884 995 884 939 939 c 0,106,107
 884 995 884 995 851 1073 c 0,108,109
 819 1150 819 1150 819 1229 c 0,110,111
 819 1307 819 1307 851 1385 c 0,112,113
 884 1463 884 1463 939 1518 c 0,114,115
 995 1574 995 1574 1073 1606 c 0,116,117
 1150 1638 1150 1638 1229 1638 c 0,118,119
 1307 1638 1307 1638 1385 1606 c 256,120,121
 1463 1574 1463 1574 1518 1518 c 0,122,123
 1574 1463 1574 1463 1606 1385 c 256,124,125
 1638 1307 1638 1307 1638 1229 c 0,126,127
 1638 1150 1638 1150 1606 1073 c 0,128,129
 1574 995 1574 995 1518 939 c 0,98,99
1518 1758 m 0,130,131
 1463 1703 1463 1703 1385 1671 c 0,132,133
 1307 1638 1307 1638 1229 1638 c 0,134,135
 1150 1638 1150 1638 1073 1671 c 0,136,137
 995 1703 995 1703 939 1758 c 0,138,139
 884 1814 884 1814 851 1892 c 0,140,141
 819 1970 819 1970 819 2048 c 256,142,143
 819 2126 819 2126 851 2204 c 0,144,145
 884 2282 884 2282 939 2338 c 0,146,147
 995 2393 995 2393 1073 2425 c 0,148,149
 1150 2458 1150 2458 1229 2458 c 0,150,151
 1307 2458 1307 2458 1385 2425 c 0,152,153
 1463 2393 1463 2393 1518 2338 c 0,154,155
 1574 2282 1574 2282 1606 2204 c 256,156,157
 1638 2126 1638 2126 1638 2048 c 256,158,159
 1638 1970 1638 1970 1606 1892 c 256,160,161
 1574 1814 1574 1814 1518 1758 c 0,130,131
1518 2578 m 0,162,163
 1463 2522 1463 2522 1385 2490 c 256,164,165
 1307 2458 1307 2458 1229 2458 c 0,166,167
 1150 2458 1150 2458 1073 2490 c 0,168,169
 995 2522 995 2522 939 2578 c 0,170,171
 884 2633 884 2633 851 2711 c 0,172,173
 819 2789 819 2789 819 2867 c 0,174,175
 819 2946 819 2946 851 3023 c 0,176,177
 884 3101 884 3101 939 3157 c 0,178,179
 995 3212 995 3212 1073 3245 c 0,180,181
 1150 3277 1150 3277 1229 3277 c 0,182,183
 1307 3277 1307 3277 1385 3245 c 0,184,185
 1463 3212 1463 3212 1518 3157 c 0,186,187
 1574 3101 1574 3101 1606 3023 c 0,188,189
 1638 2946 1638 2946 1638 2867 c 0,190,191
 1638 2789 1638 2789 1606 2711 c 256,192,193
 1574 2633 1574 2633 1518 2578 c 0,162,163
1518 3397 m 0,194,195
 1463 3341 1463 3341 1385 3309 c 256,196,197
 1307 3277 1307 3277 1229 3277 c 0,198,199
 1150 3277 1150 3277 1073 3309 c 0,200,201
 995 3341 995 3341 939 3397 c 0,202,203
 884 3452 884 3452 851 3530 c 0,204,205
 819 3608 819 3608 819 3686 c 0,206,207
 819 3765 819 3765 851 3843 c 0,208,209
 884 3921 884 3921 939 3976 c 0,210,211
 995 4031 995 4031 1073 4064 c 0,212,213
 1150 4096 1150 4096 1229 4096 c 0,214,215
 1307 4096 1307 4096 1385 4064 c 0,216,217
 1463 4031 1463 4031 1518 3976 c 0,218,219
 1574 3921 1574 3921 1606 3843 c 256,220,221
 1638 3765 1638 3765 1638 3686 c 0,222,223
 1638 3608 1638 3608 1606 3530 c 256,224,225
 1574 3452 1574 3452 1518 3397 c 0,194,195
699 4216 m 0,226,227
 644 4161 644 4161 566 4128 c 0,228,229
 488 4096 488 4096 410 4096 c 0,230,231
 331 4096 331 4096 253 4128 c 0,232,233
 175 4161 175 4161 120 4216 c 256,234,235
 65 4271 65 4271 32 4349 c 0,236,237
 0 4427 0 4427 0 4506 c 0,238,239
 0 4584 0 4584 32 4662 c 0,240,241
 65 4740 65 4740 120 4795 c 0,242,243
 175 4851 175 4851 253 4883 c 256,244,245
 331 4915 331 4915 410 4915 c 0,246,247
 488 4915 488 4915 566 4883 c 256,248,249
 644 4851 644 4851 699 4795 c 0,250,251
 755 4740 755 4740 787 4662 c 256,252,253
 819 4584 819 4584 819 4506 c 0,254,255
 819 4427 819 4427 787 4349 c 256,256,257
 755 4271 755 4271 699 4216 c 0,226,227
1518 4216 m 0,258,259
 1463 4161 1463 4161 1385 4128 c 0,260,261
 1307 4096 1307 4096 1229 4096 c 0,262,263
 1150 4096 1150 4096 1073 4128 c 0,264,265
 995 4161 995 4161 939 4216 c 0,266,267
 884 4271 884 4271 851 4349 c 0,268,269
 819 4427 819 4427 819 4506 c 0,270,271
 819 4584 819 4584 851 4662 c 0,272,273
 884 4740 884 4740 939 4795 c 0,274,275
 995 4851 995 4851 1073 4883 c 0,276,277
 1150 4915 1150 4915 1229 4915 c 0,278,279
 1307 4915 1307 4915 1385 4883 c 256,280,281
 1463 4851 1463 4851 1518 4795 c 0,282,283
 1574 4740 1574 4740 1606 4662 c 256,284,285
 1638 4584 1638 4584 1638 4506 c 0,286,287
 1638 4427 1638 4427 1606 4349 c 256,288,289
 1574 4271 1574 4271 1518 4216 c 0,258,259
1518 5035 m 0,290,291
 1463 4980 1463 4980 1385 4947 c 0,292,293
 1307 4915 1307 4915 1229 4915 c 0,294,295
 1200 4915 1200 4915 1171 4920 c 0,296,297
 1122 4927 1122 4927 1073 4947 c 0,298,299
 995 4980 995 4980 939 5035 c 0,300,301
 884 5091 884 5091 851 5169 c 0,302,303
 819 5246 819 5246 819 5325 c 0,304,305
 819 5403 819 5403 851 5481 c 0,306,307
 884 5559 884 5559 939 5614 c 0,308,309
 995 5670 995 5670 1073 5702 c 0,310,311
 1150 5734 1150 5734 1229 5734 c 0,312,313
 1307 5734 1307 5734 1385 5702 c 256,314,315
 1463 5670 1463 5670 1518 5614 c 0,316,317
 1574 5559 1574 5559 1606 5481 c 256,318,319
 1638 5403 1638 5403 1638 5325 c 0,320,321
 1638 5246 1638 5246 1606 5169 c 0,322,323
 1574 5091 1574 5091 1518 5035 c 0,290,291
EndSplineSet
Validated: 5
EndChar

StartChar: two
Encoding: 50 50 20
Width: 4096
GlyphClass: 1
Flags: W
LayerCount: 2
Fore
SplineSet
699 120 m 0,0,1
 644 65 644 65 566 32 c 0,2,3
 488 0 488 0 410 0 c 0,4,5
 331 0 331 0 253 32 c 0,6,7
 175 65 175 65 120 120 c 256,8,9
 65 175 65 175 32 253 c 0,10,11
 0 331 0 331 0 410 c 0,12,13
 0 488 0 488 32 566 c 0,14,15
 65 644 65 644 120 699 c 0,16,17
 175 755 175 755 253 787 c 256,18,19
 331 819 331 819 410 819 c 0,20,21
 438 819 438 819 467 815 c 0,22,23
 517 807 517 807 566 787 c 0,24,25
 644 755 644 755 699 699 c 0,26,27
 755 644 755 644 787 566 c 256,28,29
 819 488 819 488 819 410 c 0,30,31
 819 331 819 331 787 253 c 256,32,33
 755 175 755 175 699 120 c 0,0,1
1518 120 m 0,34,35
 1463 65 1463 65 1385 32 c 0,36,37
 1307 0 1307 0 1229 0 c 0,38,39
 1150 0 1150 0 1073 32 c 0,40,41
 995 65 995 65 939 120 c 0,42,43
 884 175 884 175 851 253 c 0,44,45
 819 331 819 331 819 410 c 0,46,47
 819 488 819 488 851 566 c 0,48,49
 884 644 884 644 939 699 c 0,50,51
 995 755 995 755 1073 787 c 0,52,53
 1150 819 1150 819 1229 819 c 0,54,55
 1307 819 1307 819 1385 787 c 256,56,57
 1463 755 1463 755 1518 699 c 0,58,59
 1574 644 1574 644 1606 566 c 256,60,61
 1638 488 1638 488 1638 410 c 0,62,63
 1638 331 1638 331 1606 253 c 256,64,65
 1574 175 1574 175 1518 120 c 0,34,35
2338 120 m 0,66,67
 2282 65 2282 65 2204 32 c 0,68,69
 2126 0 2126 0 2048 0 c 256,70,71
 1970 0 1970 0 1892 32 c 0,72,73
 1814 65 1814 65 1758 120 c 0,74,75
 1703 175 1703 175 1671 253 c 0,76,77
 1638 331 1638 331 1638 410 c 0,78,79
 1638 488 1638 488 1671 566 c 0,80,81
 1703 644 1703 644 1758 699 c 0,82,83
 1814 755 1814 755 1892 787 c 256,84,85
 1970 819 1970 819 2048 819 c 256,86,87
 2126 819 2126 819 2204 787 c 256,88,89
 2282 755 2282 755 2338 699 c 0,90,91
 2393 644 2393 644 2425 566 c 0,92,93
 2458 488 2458 488 2458 410 c 0,94,95
 2458 331 2458 331 2425 253 c 0,96,97
 2393 175 2393 175 2338 120 c 0,66,67
3157 120 m 0,98,99
 3101 65 3101 65 3023 32 c 0,100,101
 2946 0 2946 0 2867 0 c 0,102,103
 2789 0 2789 0 2711 32 c 0,104,105
 2633 65 2633 65 2578 120 c 0,106,107
 2522 175 2522 175 2490 253 c 256,108,109
 2458 331 2458 331 2458 410 c 0,110,111
 2458 488 2458 488 2490 566 c 256,112,113
 2522 644 2522 644 2578 699 c 0,114,115
 2633 755 2633 755 2711 787 c 256,116,117
 2789 819 2789 819 2867 819 c 0,118,119
 2946 819 2946 819 3023 787 c 0,120,121
 3101 755 3101 755 3157 699 c 0,122,123
 3212 644 3212 644 3245 566 c 0,124,125
 3277 488 3277 488 3277 410 c 0,126,127
 3277 331 3277 331 3245 253 c 0,128,129
 3212 175 3212 175 3157 120 c 0,98,99
699 939 m 0,130,131
 644 884 644 884 566 851 c 0,132,133
 488 819 488 819 410 819 c 0,134,135
 331 819 331 819 253 851 c 0,136,137
 175 884 175 884 120 939 c 0,138,139
 65 995 65 995 32 1073 c 0,140,141
 0 1150 0 1150 0 1229 c 0,142,143
 0 1307 0 1307 32 1385 c 0,144,145
 65 1463 65 1463 120 1518 c 0,146,147
 175 1574 175 1574 253 1606 c 256,148,149
 331 1638 331 1638 410 1638 c 0,150,151
 488 1638 488 1638 566 1606 c 256,152,153
 644 1574 644 1574 699 1518 c 0,154,155
 755 1463 755 1463 787 1385 c 256,156,157
 819 1307 819 1307 819 1229 c 0,158,159
 819 1150 819 1150 787 1073 c 0,160,161
 755 995 755 995 699 939 c 0,130,131
1518 1758 m 0,162,163
 1463 1703 1463 1703 1385 1671 c 0,164,165
 1307 1638 1307 1638 1229 1638 c 0,166,167
 1150 1638 1150 1638 1073 1671 c 0,168,169
 995 1703 995 1703 939 1758 c 0,170,171
 884 1814 884 1814 851 1892 c 0,172,173
 819 1970 819 1970 819 2048 c 256,174,175
 819 2126 819 2126 851 2204 c 0,176,177
 884 2282 884 2282 939 2338 c 0,178,179
 995 2393 995 2393 1073 2425 c 0,180,181
 1150 2458 1150 2458 1229 2458 c 0,182,183
 1307 2458 1307 2458 1385 2425 c 0,184,185
 1463 2393 1463 2393 1518 2338 c 0,186,187
 1574 2282 1574 2282 1606 2204 c 256,188,189
 1638 2126 1638 2126 1638 2048 c 256,190,191
 1638 1970 1638 1970 1606 1892 c 256,192,193
 1574 1814 1574 1814 1518 1758 c 0,162,163
2338 2578 m 0,194,195
 2282 2522 2282 2522 2204 2490 c 256,196,197
 2126 2458 2126 2458 2048 2458 c 256,198,199
 1970 2458 1970 2458 1892 2490 c 256,200,201
 1814 2522 1814 2522 1758 2578 c 0,202,203
 1703 2633 1703 2633 1671 2711 c 0,204,205
 1638 2789 1638 2789 1638 2867 c 0,206,207
 1638 2946 1638 2946 1671 3023 c 0,208,209
 1703 3101 1703 3101 1758 3157 c 0,210,211
 1814 3212 1814 3212 1892 3245 c 0,212,213
 1970 3277 1970 3277 2048 3277 c 256,214,215
 2126 3277 2126 3277 2204 3245 c 0,216,217
 2282 3212 2282 3212 2338 3157 c 0,218,219
 2393 3101 2393 3101 2425 3023 c 0,220,221
 2458 2946 2458 2946 2458 2867 c 0,222,223
 2458 2789 2458 2789 2425 2711 c 0,224,225
 2393 2633 2393 2633 2338 2578 c 0,194,195
3157 3397 m 0,226,227
 3101 3341 3101 3341 3023 3309 c 0,228,229
 2946 3277 2946 3277 2867 3277 c 0,230,231
 2789 3277 2789 3277 2711 3309 c 256,232,233
 2633 3341 2633 3341 2578 3397 c 0,234,235
 2522 3452 2522 3452 2490 3530 c 256,236,237
 2458 3608 2458 3608 2458 3686 c 0,238,239
 2458 3765 2458 3765 2490 3843 c 256,240,241
 2522 3921 2522 3921 2578 3976 c 0,242,243
 2633 4031 2633 4031 2711 4064 c 0,244,245
 2789 4096 2789 4096 2867 4096 c 0,246,247
 2946 4096 2946 4096 3023 4064 c 0,248,249
 3101 4031 3101 4031 3157 3976 c 0,250,251
 3212 3921 3212 3921 3245 3843 c 0,252,253
 3277 3765 3277 3765 3277 3686 c 0,254,255
 3277 3608 3277 3608 3245 3530 c 0,256,257
 3212 3452 3212 3452 3157 3397 c 0,226,227
699 4216 m 0,258,259
 644 4161 644 4161 566 4128 c 0,260,261
 488 4096 488 4096 410 4096 c 0,262,263
 331 4096 331 4096 253 4128 c 0,264,265
 175 4161 175 4161 120 4216 c 256,266,267
 65 4271 65 4271 32 4349 c 0,268,269
 0 4427 0 4427 0 4506 c 0,270,271
 0 4584 0 4584 32 4662 c 0,272,273
 65 4740 65 4740 120 4795 c 0,274,275
 175 4851 175 4851 253 4883 c 256,276,277
 331 4915 331 4915 410 4915 c 0,278,279
 488 4915 488 4915 566 4883 c 256,280,281
 644 4851 644 4851 699 4795 c 0,282,283
 755 4740 755 4740 787 4662 c 256,284,285
 819 4584 819 4584 819 4506 c 0,286,287
 819 4427 819 4427 787 4349 c 256,288,289
 755 4271 755 4271 699 4216 c 0,258,259
3157 4216 m 0,290,291
 3101 4161 3101 4161 3023 4128 c 0,292,293
 2946 4096 2946 4096 2867 4096 c 0,294,295
 2789 4096 2789 4096 2711 4128 c 0,296,297
 2633 4161 2633 4161 2578 4216 c 0,298,299
 2522 4271 2522 4271 2490 4349 c 256,300,301
 2458 4427 2458 4427 2458 4506 c 0,302,303
 2458 4584 2458 4584 2490 4662 c 256,304,305
 2522 4740 2522 4740 2578 4795 c 0,306,307
 2633 4851 2633 4851 2711 4883 c 256,308,309
 2789 4915 2789 4915 2867 4915 c 0,310,311
 2946 4915 2946 4915 3023 4883 c 0,312,313
 3101 4851 3101 4851 3157 4795 c 0,314,315
 3212 4740 3212 4740 3245 4662 c 0,316,317
 3277 4584 3277 4584 3277 4506 c 0,318,319
 3277 4427 3277 4427 3245 4349 c 0,320,321
 3212 4271 3212 4271 3157 4216 c 0,290,291
1518 5035 m 0,322,323
 1463 4980 1463 4980 1385 4947 c 0,324,325
 1307 4915 1307 4915 1229 4915 c 0,326,327
 1200 4915 1200 4915 1171 4920 c 0,328,329
 1122 4927 1122 4927 1073 4947 c 0,330,331
 995 4980 995 4980 939 5035 c 0,332,333
 884 5091 884 5091 851 5169 c 0,334,335
 819 5246 819 5246 819 5325 c 0,336,337
 819 5403 819 5403 851 5481 c 0,338,339
 884 5559 884 5559 939 5614 c 0,340,341
 995 5670 995 5670 1073 5702 c 0,342,343
 1150 5734 1150 5734 1229 5734 c 0,344,345
 1307 5734 1307 5734 1385 5702 c 256,346,347
 1463 5670 1463 5670 1518 5614 c 0,348,349
 1574 5559 1574 5559 1606 5481 c 256,350,351
 1638 5403 1638 5403 1638 5325 c 0,352,353
 1638 5246 1638 5246 1606 5169 c 0,354,355
 1574 5091 1574 5091 1518 5035 c 0,322,323
2338 5035 m 0,356,357
 2282 4980 2282 4980 2204 4947 c 0,358,359
 2126 4915 2126 4915 2048 4915 c 256,360,361
 1970 4915 1970 4915 1892 4947 c 0,362,363
 1814 4980 1814 4980 1758 5035 c 0,364,365
 1703 5091 1703 5091 1671 5169 c 0,366,367
 1638 5246 1638 5246 1638 5325 c 0,368,369
 1638 5403 1638 5403 1671 5481 c 0,370,371
 1703 5559 1703 5559 1758 5614 c 0,372,373
 1814 5670 1814 5670 1892 5702 c 256,374,375
 1970 5734 1970 5734 2048 5734 c 256,376,377
 2126 5734 2126 5734 2204 5702 c 256,378,379
 2282 5670 2282 5670 2338 5614 c 0,380,381
 2393 5559 2393 5559 2425 5481 c 0,382,383
 2458 5403 2458 5403 2458 5325 c 0,384,385
 2458 5246 2458 5246 2425 5169 c 0,386,387
 2393 5091 2393 5091 2338 5035 c 0,356,357
EndSplineSet
Validated: 5
EndChar

StartChar: three
Encoding: 51 51 21
Width: 4096
GlyphClass: 1
Flags: W
LayerCount: 2
Fore
SplineSet
1518 120 m 0,0,1
 1463 65 1463 65 1385 32 c 0,2,3
 1307 0 1307 0 1229 0 c 0,4,5
 1150 0 1150 0 1073 32 c 0,6,7
 995 65 995 65 939 120 c 0,8,9
 884 175 884 175 851 253 c 0,10,11
 819 331 819 331 819 410 c 0,12,13
 819 488 819 488 851 566 c 0,14,15
 884 644 884 644 939 699 c 0,16,17
 995 755 995 755 1073 787 c 0,18,19
 1150 819 1150 819 1229 819 c 0,20,21
 1307 819 1307 819 1385 787 c 256,22,23
 1463 755 1463 755 1518 699 c 0,24,25
 1574 644 1574 644 1606 566 c 256,26,27
 1638 488 1638 488 1638 410 c 0,28,29
 1638 331 1638 331 1606 253 c 256,30,31
 1574 175 1574 175 1518 120 c 0,0,1
2338 120 m 0,32,33
 2282 65 2282 65 2204 32 c 0,34,35
 2126 0 2126 0 2048 0 c 256,36,37
 1970 0 1970 0 1892 32 c 0,38,39
 1814 65 1814 65 1758 120 c 0,40,41
 1703 175 1703 175 1671 253 c 0,42,43
 1638 331 1638 331 1638 410 c 0,44,45
 1638 488 1638 488 1671 566 c 0,46,47
 1703 644 1703 644 1758 699 c 0,48,49
 1814 755 1814 755 1892 787 c 256,50,51
 1970 819 1970 819 2048 819 c 256,52,53
 2126 819 2126 819 2204 787 c 256,54,55
 2282 755 2282 755 2338 699 c 0,56,57
 2393 644 2393 644 2425 566 c 0,58,59
 2458 488 2458 488 2458 410 c 0,60,61
 2458 331 2458 331 2425 253 c 0,62,63
 2393 175 2393 175 2338 120 c 0,32,33
699 939 m 0,64,65
 644 884 644 884 566 851 c 0,66,67
 488 819 488 819 410 819 c 0,68,69
 331 819 331 819 253 851 c 0,70,71
 175 884 175 884 120 939 c 0,72,73
 65 995 65 995 32 1073 c 0,74,75
 0 1150 0 1150 0 1229 c 0,76,77
 0 1307 0 1307 32 1385 c 0,78,79
 65 1463 65 1463 120 1518 c 0,80,81
 175 1574 175 1574 253 1606 c 256,82,83
 331 1638 331 1638 410 1638 c 0,84,85
 488 1638 488 1638 566 1606 c 256,86,87
 644 1574 644 1574 699 1518 c 0,88,89
 755 1463 755 1463 787 1385 c 256,90,91
 819 1307 819 1307 819 1229 c 0,92,93
 819 1150 819 1150 787 1073 c 0,94,95
 755 995 755 995 699 939 c 0,64,65
3157 939 m 0,96,97
 3101 884 3101 884 3023 851 c 0,98,99
 2946 819 2946 819 2867 819 c 0,100,101
 2789 819 2789 819 2711 851 c 0,102,103
 2633 884 2633 884 2578 939 c 0,104,105
 2522 995 2522 995 2490 1073 c 0,106,107
 2458 1150 2458 1150 2458 1229 c 0,108,109
 2458 1307 2458 1307 2490 1385 c 256,110,111
 2522 1463 2522 1463 2578 1518 c 0,112,113
 2633 1574 2633 1574 2711 1606 c 256,114,115
 2789 1638 2789 1638 2867 1638 c 0,116,117
 2946 1638 2946 1638 3023 1606 c 0,118,119
 3101 1574 3101 1574 3157 1518 c 0,120,121
 3212 1463 3212 1463 3245 1385 c 0,122,123
 3277 1307 3277 1307 3277 1229 c 0,124,125
 3277 1150 3277 1150 3245 1073 c 0,126,127
 3212 995 3212 995 3157 939 c 0,96,97
3157 1758 m 0,128,129
 3101 1703 3101 1703 3023 1671 c 0,130,131
 2946 1638 2946 1638 2867 1638 c 0,132,133
 2789 1638 2789 1638 2711 1671 c 0,134,135
 2633 1703 2633 1703 2578 1758 c 0,136,137
 2522 1814 2522 1814 2490 1892 c 256,138,139
 2458 1970 2458 1970 2458 2048 c 256,140,141
 2458 2126 2458 2126 2490 2204 c 256,142,143
 2522 2282 2522 2282 2578 2338 c 0,144,145
 2633 2393 2633 2393 2711 2425 c 0,146,147
 2789 2458 2789 2458 2867 2458 c 0,148,149
 2946 2458 2946 2458 3023 2425 c 0,150,151
 3101 2393 3101 2393 3157 2338 c 0,152,153
 3212 2282 3212 2282 3245 2204 c 0,154,155
 3277 2126 3277 2126 3277 2048 c 256,156,157
 3277 1970 3277 1970 3245 1892 c 0,158,159
 3212 1814 3212 1814 3157 1758 c 0,128,129
2338 2578 m 0,160,161
 2282 2522 2282 2522 2204 2490 c 256,162,163
 2126 2458 2126 2458 2048 2458 c 256,164,165
 1970 2458 1970 2458 1892 2490 c 256,166,167
 1814 2522 1814 2522 1758 2578 c 0,168,169
 1703 2633 1703 2633 1671 2711 c 0,170,171
 1638 2789 1638 2789 1638 2867 c 0,172,173
 1638 2946 1638 2946 1671 3023 c 0,174,175
 1703 3101 1703 3101 1758 3157 c 0,176,177
 1814 3212 1814 3212 1892 3245 c 0,178,179
 1970 3277 1970 3277 2048 3277 c 256,180,181
 2126 3277 2126 3277 2204 3245 c 0,182,183
 2282 3212 2282 3212 2338 3157 c 0,184,185
 2393 3101 2393 3101 2425 3023 c 0,186,187
 2458 2946 2458 2946 2458 2867 c 0,188,189
 2458 2789 2458 2789 2425 2711 c 0,190,191
 2393 2633 2393 2633 2338 2578 c 0,160,161
3157 3397 m 0,192,193
 3101 3341 3101 3341 3023 3309 c 0,194,195
 2946 3277 2946 3277 2867 3277 c 0,196,197
 2789 3277 2789 3277 2711 3309 c 256,198,199
 2633 3341 2633 3341 2578 3397 c 0,200,201
 2522 3452 2522 3452 2490 3530 c 256,202,203
 2458 3608 2458 3608 2458 3686 c 0,204,205
 2458 3765 2458 3765 2490 3843 c 256,206,207
 2522 3921 2522 3921 2578 3976 c 0,208,209
 2633 4031 2633 4031 2711 4064 c 0,210,211
 2789 4096 2789 4096 2867 4096 c 0,212,213
 2946 4096 2946 4096 3023 4064 c 0,214,215
 3101 4031 3101 4031 3157 3976 c 0,216,217
 3212 3921 3212 3921 3245 3843 c 0,218,219
 3277 3765 3277 3765 3277 3686 c 0,220,221
 3277 3608 3277 3608 3245 3530 c 0,222,223
 3212 3452 3212 3452 3157 3397 c 0,192,193
699 4216 m 0,224,225
 644 4161 644 4161 566 4128 c 0,226,227
 488 4096 488 4096 410 4096 c 0,228,229
 331 4096 331 4096 253 4128 c 0,230,231
 175 4161 175 4161 120 4216 c 256,232,233
 65 4271 65 4271 32 4349 c 0,234,235
 0 4427 0 4427 0 4506 c 0,236,237
 0 4584 0 4584 32 4662 c 0,238,239
 65 4740 65 4740 120 4795 c 0,240,241
 175 4851 175 4851 253 4883 c 256,242,243
 331 4915 331 4915 410 4915 c 0,244,245
 488 4915 488 4915 566 4883 c 256,246,247
 644 4851 644 4851 699 4795 c 0,248,249
 755 4740 755 4740 787 4662 c 256,250,251
 819 4584 819 4584 819 4506 c 0,252,253
 819 4427 819 4427 787 4349 c 256,254,255
 755 4271 755 4271 699 4216 c 0,224,225
3157 4216 m 0,256,257
 3101 4161 3101 4161 3023 4128 c 0,258,259
 2946 4096 2946 4096 2867 4096 c 0,260,261
 2789 4096 2789 4096 2711 4128 c 0,262,263
 2633 4161 2633 4161 2578 4216 c 0,264,265
 2522 4271 2522 4271 2490 4349 c 256,266,267
 2458 4427 2458 4427 2458 4506 c 0,268,269
 2458 4584 2458 4584 2490 4662 c 256,270,271
 2522 4740 2522 4740 2578 4795 c 0,272,273
 2633 4851 2633 4851 2711 4883 c 256,274,275
 2789 4915 2789 4915 2867 4915 c 0,276,277
 2946 4915 2946 4915 3023 4883 c 0,278,279
 3101 4851 3101 4851 3157 4795 c 0,280,281
 3212 4740 3212 4740 3245 4662 c 0,282,283
 3277 4584 3277 4584 3277 4506 c 0,284,285
 3277 4427 3277 4427 3245 4349 c 0,286,287
 3212 4271 3212 4271 3157 4216 c 0,256,257
1518 5035 m 0,288,289
 1463 4980 1463 4980 1385 4947 c 0,290,291
 1307 4915 1307 4915 1229 4915 c 0,292,293
 1150 4915 1150 4915 1073 4947 c 0,294,295
 995 4980 995 4980 939 5035 c 0,296,297
 884 5091 884 5091 851 5169 c 0,298,299
 819 5246 819 5246 819 5325 c 0,300,301
 819 5403 819 5403 851 5481 c 0,302,303
 884 5559 884 5559 939 5614 c 0,304,305
 995 5670 995 5670 1073 5702 c 0,306,307
 1150 5734 1150 5734 1229 5734 c 0,308,309
 1307 5734 1307 5734 1385 5702 c 256,310,311
 1463 5670 1463 5670 1518 5614 c 0,312,313
 1574 5559 1574 5559 1606 5481 c 256,314,315
 1638 5403 1638 5403 1638 5325 c 0,316,317
 1638 5246 1638 5246 1606 5169 c 0,318,319
 1574 5091 1574 5091 1518 5035 c 0,288,289
2338 5035 m 0,320,321
 2282 4980 2282 4980 2204 4947 c 0,322,323
 2126 4915 2126 4915 2048 4915 c 256,324,325
 1970 4915 1970 4915 1892 4947 c 0,326,327
 1814 4980 1814 4980 1758 5035 c 0,328,329
 1703 5091 1703 5091 1671 5169 c 0,330,331
 1638 5246 1638 5246 1638 5325 c 0,332,333
 1638 5403 1638 5403 1671 5481 c 0,334,335
 1703 5559 1703 5559 1758 5614 c 0,336,337
 1814 5670 1814 5670 1892 5702 c 256,338,339
 1970 5734 1970 5734 2048 5734 c 256,340,341
 2126 5734 2126 5734 2204 5702 c 256,342,343
 2282 5670 2282 5670 2338 5614 c 0,344,345
 2393 5559 2393 5559 2425 5481 c 0,346,347
 2458 5403 2458 5403 2458 5325 c 0,348,349
 2458 5246 2458 5246 2425 5169 c 0,350,351
 2393 5091 2393 5091 2338 5035 c 0,320,321
EndSplineSet
Validated: 5
EndChar

StartChar: four
Encoding: 52 52 22
Width: 4096
GlyphClass: 1
Flags: W
LayerCount: 2
Fore
SplineSet
3157 120 m 0,0,1
 3101 65 3101 65 3023 32 c 0,2,3
 2946 0 2946 0 2867 0 c 0,4,5
 2789 0 2789 0 2711 32 c 0,6,7
 2633 65 2633 65 2578 120 c 0,8,9
 2522 175 2522 175 2490 253 c 256,10,11
 2458 331 2458 331 2458 410 c 0,12,13
 2458 488 2458 488 2490 566 c 256,14,15
 2522 644 2522 644 2578 699 c 0,16,17
 2633 755 2633 755 2711 787 c 256,18,19
 2789 819 2789 819 2867 819 c 0,20,21
 2946 819 2946 819 3023 787 c 0,22,23
 3101 755 3101 755 3157 699 c 0,24,25
 3212 644 3212 644 3245 566 c 0,26,27
 3277 488 3277 488 3277 410 c 0,28,29
 3277 331 3277 331 3245 253 c 0,30,31
 3212 175 3212 175 3157 120 c 0,0,1
3157 939 m 0,32,33
 3101 884 3101 884 3023 851 c 0,34,35
 2946 819 2946 819 2867 819 c 0,36,37
 2789 819 2789 819 2711 851 c 0,38,39
 2633 884 2633 884 2578 939 c 0,40,41
 2522 995 2522 995 2490 1073 c 0,42,43
 2458 1150 2458 1150 2458 1229 c 0,44,45
 2458 1307 2458 1307 2490 1385 c 256,46,47
 2522 1463 2522 1463 2578 1518 c 0,48,49
 2633 1574 2633 1574 2711 1606 c 256,50,51
 2789 1638 2789 1638 2867 1638 c 0,52,53
 2946 1638 2946 1638 3023 1606 c 0,54,55
 3101 1574 3101 1574 3157 1518 c 0,56,57
 3212 1463 3212 1463 3245 1385 c 0,58,59
 3277 1307 3277 1307 3277 1229 c 0,60,61
 3277 1150 3277 1150 3245 1073 c 0,62,63
 3212 995 3212 995 3157 939 c 0,32,33
3157 1758 m 0,64,65
 3101 1703 3101 1703 3023 1671 c 0,66,67
 2946 1638 2946 1638 2867 1638 c 0,68,69
 2789 1638 2789 1638 2711 1671 c 0,70,71
 2633 1703 2633 1703 2578 1758 c 0,72,73
 2522 1814 2522 1814 2490 1892 c 256,74,75
 2458 1970 2458 1970 2458 2048 c 256,76,77
 2458 2126 2458 2126 2490 2204 c 256,78,79
 2522 2282 2522 2282 2578 2338 c 0,80,81
 2633 2393 2633 2393 2711 2425 c 0,82,83
 2789 2458 2789 2458 2867 2458 c 0,84,85
 2946 2458 2946 2458 3023 2425 c 0,86,87
 3101 2393 3101 2393 3157 2338 c 0,88,89
 3212 2282 3212 2282 3245 2204 c 0,90,91
 3277 2126 3277 2126 3277 2048 c 256,92,93
 3277 1970 3277 1970 3245 1892 c 0,94,95
 3212 1814 3212 1814 3157 1758 c 0,64,65
699 1758 m 0,96,97
 644 1703 644 1703 566 1671 c 0,98,99
 488 1638 488 1638 410 1638 c 0,100,101
 331 1638 331 1638 253 1671 c 0,102,103
 175 1703 175 1703 120 1758 c 0,104,105
 65 1814 65 1814 32 1892 c 0,106,107
 0 1970 0 1970 0 2048 c 256,108,109
 0 2126 0 2126 32 2204 c 0,110,111
 65 2282 65 2282 120 2338 c 0,112,113
 175 2393 175 2393 253 2425 c 0,114,115
 331 2458 331 2458 410 2458 c 0,116,117
 488 2458 488 2458 566 2425 c 0,118,119
 644 2393 644 2393 699 2338 c 0,120,121
 755 2282 755 2282 787 2204 c 256,122,123
 819 2126 819 2126 819 2048 c 256,124,125
 819 1970 819 1970 787 1892 c 256,126,127
 755 1814 755 1814 699 1758 c 0,96,97
1518 1758 m 0,128,129
 1463 1703 1463 1703 1385 1671 c 0,130,131
 1307 1638 1307 1638 1229 1638 c 0,132,133
 1150 1638 1150 1638 1073 1671 c 0,134,135
 995 1703 995 1703 939 1758 c 0,136,137
 884 1814 884 1814 851 1892 c 0,138,139
 819 1970 819 1970 819 2048 c 256,140,141
 819 2126 819 2126 851 2204 c 0,142,143
 884 2282 884 2282 939 2338 c 0,144,145
 995 2393 995 2393 1073 2425 c 0,146,147
 1150 2458 1150 2458 1229 2458 c 0,148,149
 1307 2458 1307 2458 1385 2425 c 0,150,151
 1463 2393 1463 2393 1518 2338 c 0,152,153
 1574 2282 1574 2282 1606 2204 c 256,154,155
 1638 2126 1638 2126 1638 2048 c 256,156,157
 1638 1970 1638 1970 1606 1892 c 256,158,159
 1574 1814 1574 1814 1518 1758 c 0,128,129
2338 1758 m 0,160,161
 2282 1703 2282 1703 2204 1671 c 0,162,163
 2126 1638 2126 1638 2048 1638 c 256,164,165
 1970 1638 1970 1638 1892 1671 c 0,166,167
 1814 1703 1814 1703 1758 1758 c 0,168,169
 1703 1814 1703 1814 1671 1892 c 0,170,171
 1638 1970 1638 1970 1638 2048 c 256,172,173
 1638 2126 1638 2126 1671 2204 c 0,174,175
 1703 2282 1703 2282 1758 2338 c 0,176,177
 1814 2393 1814 2393 1892 2425 c 0,178,179
 1970 2458 1970 2458 2048 2458 c 256,180,181
 2126 2458 2126 2458 2204 2425 c 0,182,183
 2282 2393 2282 2393 2338 2338 c 0,184,185
 2393 2282 2393 2282 2425 2204 c 0,186,187
 2458 2126 2458 2126 2458 2048 c 256,188,189
 2458 1970 2458 1970 2425 1892 c 0,190,191
 2393 1814 2393 1814 2338 1758 c 0,160,161
3157 2578 m 0,192,193
 3101 2522 3101 2522 3023 2490 c 0,194,195
 2946 2458 2946 2458 2867 2458 c 0,196,197
 2789 2458 2789 2458 2711 2490 c 256,198,199
 2633 2522 2633 2522 2578 2578 c 0,200,201
 2522 2633 2522 2633 2490 2711 c 256,202,203
 2458 2789 2458 2789 2458 2867 c 0,204,205
 2458 2946 2458 2946 2490 3023 c 0,206,207
 2522 3101 2522 3101 2578 3157 c 0,208,209
 2633 3212 2633 3212 2711 3245 c 0,210,211
 2789 3277 2789 3277 2867 3277 c 0,212,213
 2946 3277 2946 3277 3023 3245 c 0,214,215
 3101 3212 3101 3212 3157 3157 c 0,216,217
 3212 3101 3212 3101 3245 3023 c 0,218,219
 3277 2946 3277 2946 3277 2867 c 0,220,221
 3277 2789 3277 2789 3245 2711 c 0,222,223
 3212 2633 3212 2633 3157 2578 c 0,192,193
699 2578 m 0,224,225
 644 2522 644 2522 566 2490 c 256,226,227
 488 2458 488 2458 410 2458 c 0,228,229
 331 2458 331 2458 253 2490 c 256,230,231
 175 2522 175 2522 120 2578 c 0,232,233
 65 2633 65 2633 32 2711 c 0,234,235
 0 2789 0 2789 0 2867 c 0,236,237
 0 2946 0 2946 32 3023 c 0,238,239
 65 3101 65 3101 120 3157 c 0,240,241
 175 3212 175 3212 253 3245 c 0,242,243
 331 3277 331 3277 410 3277 c 0,244,245
 488 3277 488 3277 566 3245 c 0,246,247
 644 3212 644 3212 699 3157 c 0,248,249
 755 3101 755 3101 787 3023 c 0,250,251
 819 2946 819 2946 819 2867 c 0,252,253
 819 2789 819 2789 787 2711 c 256,254,255
 755 2633 755 2633 699 2578 c 0,224,225
3157 3397 m 0,256,257
 3101 3341 3101 3341 3023 3309 c 0,258,259
 2946 3277 2946 3277 2867 3277 c 0,260,261
 2789 3277 2789 3277 2711 3309 c 256,262,263
 2633 3341 2633 3341 2578 3397 c 0,264,265
 2522 3452 2522 3452 2490 3530 c 256,266,267
 2458 3608 2458 3608 2458 3686 c 0,268,269
 2458 3765 2458 3765 2490 3843 c 256,270,271
 2522 3921 2522 3921 2578 3976 c 0,272,273
 2633 4031 2633 4031 2711 4064 c 0,274,275
 2789 4096 2789 4096 2867 4096 c 0,276,277
 2946 4096 2946 4096 3023 4064 c 0,278,279
 3101 4031 3101 4031 3157 3976 c 0,280,281
 3212 3921 3212 3921 3245 3843 c 0,282,283
 3277 3765 3277 3765 3277 3686 c 0,284,285
 3277 3608 3277 3608 3245 3530 c 0,286,287
 3212 3452 3212 3452 3157 3397 c 0,256,257
1518 3397 m 0,288,289
 1463 3341 1463 3341 1385 3309 c 256,290,291
 1307 3277 1307 3277 1229 3277 c 0,292,293
 1150 3277 1150 3277 1073 3309 c 0,294,295
 995 3341 995 3341 939 3397 c 0,296,297
 884 3452 884 3452 851 3530 c 0,298,299
 819 3608 819 3608 819 3686 c 0,300,301
 819 3765 819 3765 851 3843 c 0,302,303
 884 3921 884 3921 939 3976 c 0,304,305
 995 4031 995 4031 1073 4064 c 0,306,307
 1150 4096 1150 4096 1229 4096 c 0,308,309
 1307 4096 1307 4096 1385 4064 c 0,310,311
 1463 4031 1463 4031 1518 3976 c 0,312,313
 1574 3921 1574 3921 1606 3843 c 256,314,315
 1638 3765 1638 3765 1638 3686 c 0,316,317
 1638 3608 1638 3608 1606 3530 c 256,318,319
 1574 3452 1574 3452 1518 3397 c 0,288,289
3157 4216 m 0,320,321
 3101 4161 3101 4161 3023 4128 c 0,322,323
 2946 4096 2946 4096 2867 4096 c 0,324,325
 2789 4096 2789 4096 2711 4128 c 0,326,327
 2633 4161 2633 4161 2578 4216 c 0,328,329
 2522 4271 2522 4271 2490 4349 c 256,330,331
 2458 4427 2458 4427 2458 4506 c 0,332,333
 2458 4584 2458 4584 2490 4662 c 256,334,335
 2522 4740 2522 4740 2578 4795 c 0,336,337
 2633 4851 2633 4851 2711 4883 c 256,338,339
 2789 4915 2789 4915 2867 4915 c 0,340,341
 2946 4915 2946 4915 3023 4883 c 0,342,343
 3101 4851 3101 4851 3157 4795 c 0,344,345
 3212 4740 3212 4740 3245 4662 c 0,346,347
 3277 4584 3277 4584 3277 4506 c 0,348,349
 3277 4427 3277 4427 3245 4349 c 0,350,351
 3212 4271 3212 4271 3157 4216 c 0,320,321
2338 4216 m 0,352,353
 2282 4161 2282 4161 2204 4128 c 0,354,355
 2126 4096 2126 4096 2048 4096 c 256,356,357
 1970 4096 1970 4096 1892 4128 c 0,358,359
 1814 4161 1814 4161 1758 4216 c 0,360,361
 1703 4271 1703 4271 1671 4349 c 0,362,363
 1638 4427 1638 4427 1638 4506 c 0,364,365
 1638 4584 1638 4584 1671 4662 c 0,366,367
 1703 4740 1703 4740 1758 4795 c 0,368,369
 1814 4851 1814 4851 1892 4883 c 256,370,371
 1970 4915 1970 4915 2048 4915 c 256,372,373
 2126 4915 2126 4915 2204 4883 c 256,374,375
 2282 4851 2282 4851 2338 4795 c 0,376,377
 2393 4740 2393 4740 2425 4662 c 0,378,379
 2458 4584 2458 4584 2458 4506 c 0,380,381
 2458 4427 2458 4427 2425 4349 c 0,382,383
 2393 4271 2393 4271 2338 4216 c 0,352,353
3157 5035 m 0,384,385
 3101 4980 3101 4980 3023 4947 c 0,386,387
 2946 4915 2946 4915 2867 4915 c 0,388,389
 2789 4915 2789 4915 2711 4947 c 0,390,391
 2633 4980 2633 4980 2578 5035 c 0,392,393
 2522 5091 2522 5091 2490 5169 c 0,394,395
 2458 5246 2458 5246 2458 5325 c 0,396,397
 2458 5403 2458 5403 2490 5481 c 256,398,399
 2522 5559 2522 5559 2578 5614 c 0,400,401
 2633 5670 2633 5670 2711 5702 c 256,402,403
 2789 5734 2789 5734 2867 5734 c 0,404,405
 2946 5734 2946 5734 3023 5702 c 0,406,407
 3101 5670 3101 5670 3157 5614 c 0,408,409
 3212 5559 3212 5559 3245 5481 c 0,410,411
 3277 5403 3277 5403 3277 5325 c 0,412,413
 3277 5246 3277 5246 3245 5169 c 0,414,415
 3212 5091 3212 5091 3157 5035 c 0,384,385
EndSplineSet
Validated: 5
EndChar

StartChar: five
Encoding: 53 53 23
Width: 4096
GlyphClass: 1
Flags: W
LayerCount: 2
Fore
SplineSet
1518 120 m 0,0,1
 1463 65 1463 65 1385 32 c 0,2,3
 1307 0 1307 0 1229 0 c 0,4,5
 1150 0 1150 0 1073 32 c 0,6,7
 995 65 995 65 939 120 c 0,8,9
 884 175 884 175 851 253 c 0,10,11
 819 331 819 331 819 410 c 0,12,13
 819 488 819 488 851 566 c 0,14,15
 884 644 884 644 939 699 c 0,16,17
 995 755 995 755 1073 787 c 0,18,19
 1122 807 1122 807 1171 815 c 0,20,21
 1200 819 1200 819 1229 819 c 0,22,23
 1307 819 1307 819 1385 787 c 256,24,25
 1463 755 1463 755 1518 699 c 0,26,27
 1574 644 1574 644 1606 566 c 256,28,29
 1638 488 1638 488 1638 410 c 0,30,31
 1638 331 1638 331 1606 253 c 256,32,33
 1574 175 1574 175 1518 120 c 0,0,1
2338 120 m 0,34,35
 2282 65 2282 65 2204 32 c 0,36,37
 2126 0 2126 0 2048 0 c 256,38,39
 1970 0 1970 0 1892 32 c 0,40,41
 1814 65 1814 65 1758 120 c 0,42,43
 1703 175 1703 175 1671 253 c 0,44,45
 1638 331 1638 331 1638 410 c 0,46,47
 1638 488 1638 488 1671 566 c 0,48,49
 1703 644 1703 644 1758 699 c 0,50,51
 1814 755 1814 755 1892 787 c 256,52,53
 1970 819 1970 819 2048 819 c 256,54,55
 2126 819 2126 819 2204 787 c 256,56,57
 2282 755 2282 755 2338 699 c 0,58,59
 2393 644 2393 644 2425 566 c 0,60,61
 2458 488 2458 488 2458 410 c 0,62,63
 2458 331 2458 331 2425 253 c 0,64,65
 2393 175 2393 175 2338 120 c 0,34,35
699 939 m 0,66,67
 644 884 644 884 566 851 c 0,68,69
 488 819 488 819 410 819 c 0,70,71
 331 819 331 819 253 851 c 0,72,73
 175 884 175 884 120 939 c 0,74,75
 65 995 65 995 32 1073 c 0,76,77
 0 1150 0 1150 0 1229 c 0,78,79
 0 1307 0 1307 32 1385 c 0,80,81
 65 1463 65 1463 120 1518 c 0,82,83
 175 1574 175 1574 253 1606 c 256,84,85
 331 1638 331 1638 410 1638 c 0,86,87
 488 1638 488 1638 566 1606 c 256,88,89
 644 1574 644 1574 699 1518 c 0,90,91
 755 1463 755 1463 787 1385 c 256,92,93
 819 1307 819 1307 819 1229 c 0,94,95
 819 1150 819 1150 787 1073 c 0,96,97
 755 995 755 995 699 939 c 0,66,67
3157 939 m 0,98,99
 3101 884 3101 884 3023 851 c 0,100,101
 2946 819 2946 819 2867 819 c 0,102,103
 2789 819 2789 819 2711 851 c 0,104,105
 2633 884 2633 884 2578 939 c 0,106,107
 2522 995 2522 995 2490 1073 c 0,108,109
 2458 1150 2458 1150 2458 1229 c 0,110,111
 2458 1307 2458 1307 2490 1385 c 256,112,113
 2522 1463 2522 1463 2578 1518 c 0,114,115
 2633 1574 2633 1574 2711 1606 c 256,116,117
 2789 1638 2789 1638 2867 1638 c 0,118,119
 2946 1638 2946 1638 3023 1606 c 0,120,121
 3101 1574 3101 1574 3157 1518 c 0,122,123
 3212 1463 3212 1463 3245 1385 c 0,124,125
 3277 1307 3277 1307 3277 1229 c 0,126,127
 3277 1150 3277 1150 3245 1073 c 0,128,129
 3212 995 3212 995 3157 939 c 0,98,99
3157 1758 m 0,130,131
 3101 1703 3101 1703 3023 1671 c 0,132,133
 2946 1638 2946 1638 2867 1638 c 0,134,135
 2789 1638 2789 1638 2711 1671 c 0,136,137
 2633 1703 2633 1703 2578 1758 c 0,138,139
 2522 1814 2522 1814 2490 1892 c 256,140,141
 2458 1970 2458 1970 2458 2048 c 256,142,143
 2458 2126 2458 2126 2490 2204 c 256,144,145
 2522 2282 2522 2282 2578 2338 c 0,146,147
 2633 2393 2633 2393 2711 2425 c 0,148,149
 2789 2458 2789 2458 2867 2458 c 0,150,151
 2946 2458 2946 2458 3023 2425 c 0,152,153
 3101 2393 3101 2393 3157 2338 c 0,154,155
 3212 2282 3212 2282 3245 2204 c 0,156,157
 3277 2126 3277 2126 3277 2048 c 256,158,159
 3277 1970 3277 1970 3245 1892 c 0,160,161
 3212 1814 3212 1814 3157 1758 c 0,130,131
3157 2578 m 0,162,163
 3101 2522 3101 2522 3023 2490 c 0,164,165
 2946 2458 2946 2458 2867 2458 c 0,166,167
 2789 2458 2789 2458 2711 2490 c 256,168,169
 2633 2522 2633 2522 2578 2578 c 0,170,171
 2522 2633 2522 2633 2490 2711 c 256,172,173
 2458 2789 2458 2789 2458 2867 c 0,174,175
 2458 2946 2458 2946 2490 3023 c 0,176,177
 2522 3101 2522 3101 2578 3157 c 0,178,179
 2633 3212 2633 3212 2711 3245 c 0,180,181
 2789 3277 2789 3277 2867 3277 c 0,182,183
 2946 3277 2946 3277 3023 3245 c 0,184,185
 3101 3212 3101 3212 3157 3157 c 0,186,187
 3212 3101 3212 3101 3245 3023 c 0,188,189
 3277 2946 3277 2946 3277 2867 c 0,190,191
 3277 2789 3277 2789 3245 2711 c 0,192,193
 3212 2633 3212 2633 3157 2578 c 0,162,163
699 3397 m 0,194,195
 644 3341 644 3341 566 3309 c 256,196,197
 488 3277 488 3277 410 3277 c 0,198,199
 331 3277 331 3277 253 3309 c 256,200,201
 175 3341 175 3341 120 3397 c 0,202,203
 65 3452 65 3452 32 3530 c 0,204,205
 0 3608 0 3608 0 3686 c 0,206,207
 0 3765 0 3765 32 3843 c 0,208,209
 65 3921 65 3921 120 3976 c 256,210,211
 175 4031 175 4031 253 4064 c 0,212,213
 331 4096 331 4096 410 4096 c 0,214,215
 488 4096 488 4096 566 4064 c 0,216,217
 644 4031 644 4031 699 3976 c 0,218,219
 755 3921 755 3921 787 3843 c 256,220,221
 819 3765 819 3765 819 3686 c 0,222,223
 819 3608 819 3608 787 3530 c 256,224,225
 755 3452 755 3452 699 3397 c 0,194,195
1518 3397 m 0,226,227
 1463 3341 1463 3341 1385 3309 c 256,228,229
 1307 3277 1307 3277 1229 3277 c 0,230,231
 1150 3277 1150 3277 1073 3309 c 0,232,233
 995 3341 995 3341 939 3397 c 0,234,235
 884 3452 884 3452 851 3530 c 0,236,237
 819 3608 819 3608 819 3686 c 0,238,239
 819 3765 819 3765 851 3843 c 0,240,241
 884 3921 884 3921 939 3976 c 0,242,243
 995 4031 995 4031 1073 4064 c 0,244,245
 1150 4096 1150 4096 1229 4096 c 0,246,247
 1307 4096 1307 4096 1385 4064 c 0,248,249
 1463 4031 1463 4031 1518 3976 c 0,250,251
 1574 3921 1574 3921 1606 3843 c 256,252,253
 1638 3765 1638 3765 1638 3686 c 0,254,255
 1638 3608 1638 3608 1606 3530 c 256,256,257
 1574 3452 1574 3452 1518 3397 c 0,226,227
2338 3397 m 0,258,259
 2282 3341 2282 3341 2204 3309 c 256,260,261
 2126 3277 2126 3277 2048 3277 c 256,262,263
 1970 3277 1970 3277 1892 3309 c 256,264,265
 1814 3341 1814 3341 1758 3397 c 0,266,267
 1703 3452 1703 3452 1671 3530 c 0,268,269
 1638 3608 1638 3608 1638 3686 c 0,270,271
 1638 3765 1638 3765 1671 3843 c 0,272,273
 1703 3921 1703 3921 1758 3976 c 0,274,275
 1814 4031 1814 4031 1892 4064 c 0,276,277
 1970 4096 1970 4096 2048 4096 c 256,278,279
 2126 4096 2126 4096 2204 4064 c 0,280,281
 2282 4031 2282 4031 2338 3976 c 0,282,283
 2393 3921 2393 3921 2425 3843 c 0,284,285
 2458 3765 2458 3765 2458 3686 c 0,286,287
 2458 3608 2458 3608 2425 3530 c 0,288,289
 2393 3452 2393 3452 2338 3397 c 0,258,259
699 4216 m 0,290,291
 644 4161 644 4161 566 4128 c 0,292,293
 488 4096 488 4096 410 4096 c 0,294,295
 331 4096 331 4096 253 4128 c 0,296,297
 175 4161 175 4161 120 4216 c 256,298,299
 65 4271 65 4271 32 4349 c 0,300,301
 0 4427 0 4427 0 4506 c 0,302,303
 0 4584 0 4584 32 4662 c 0,304,305
 65 4740 65 4740 120 4795 c 0,306,307
 175 4851 175 4851 253 4883 c 256,308,309
 331 4915 331 4915 410 4915 c 0,310,311
 488 4915 488 4915 566 4883 c 256,312,313
 644 4851 644 4851 699 4795 c 0,314,315
 755 4740 755 4740 787 4662 c 256,316,317
 819 4584 819 4584 819 4506 c 0,318,319
 819 4427 819 4427 787 4349 c 256,320,321
 755 4271 755 4271 699 4216 c 0,290,291
699 5035 m 0,322,323
 644 4980 644 4980 566 4947 c 0,324,325
 517 4927 517 4927 467 4920 c 0,326,327
 438 4915 438 4915 410 4915 c 0,328,329
 331 4915 331 4915 253 4947 c 0,330,331
 175 4980 175 4980 120 5035 c 0,332,333
 65 5091 65 5091 32 5169 c 0,334,335
 0 5246 0 5246 0 5325 c 0,336,337
 0 5403 0 5403 32 5481 c 0,338,339
 65 5559 65 5559 120 5614 c 0,340,341
 175 5670 175 5670 253 5702 c 256,342,343
 331 5734 331 5734 410 5734 c 0,344,345
 488 5734 488 5734 566 5702 c 256,346,347
 644 5670 644 5670 699 5614 c 0,348,349
 755 5559 755 5559 787 5481 c 256,350,351
 819 5403 819 5403 819 5325 c 0,352,353
 819 5246 819 5246 787 5169 c 0,354,355
 755 5091 755 5091 699 5035 c 0,322,323
1518 5035 m 0,356,357
 1463 4980 1463 4980 1385 4947 c 0,358,359
 1307 4915 1307 4915 1229 4915 c 0,360,361
 1150 4915 1150 4915 1073 4947 c 0,362,363
 995 4980 995 4980 939 5035 c 0,364,365
 884 5091 884 5091 851 5169 c 0,366,367
 819 5246 819 5246 819 5325 c 0,368,369
 819 5403 819 5403 851 5481 c 0,370,371
 884 5559 884 5559 939 5614 c 0,372,373
 995 5670 995 5670 1073 5702 c 0,374,375
 1150 5734 1150 5734 1229 5734 c 0,376,377
 1307 5734 1307 5734 1385 5702 c 256,378,379
 1463 5670 1463 5670 1518 5614 c 0,380,381
 1574 5559 1574 5559 1606 5481 c 256,382,383
 1638 5403 1638 5403 1638 5325 c 0,384,385
 1638 5246 1638 5246 1606 5169 c 0,386,387
 1574 5091 1574 5091 1518 5035 c 0,356,357
2338 5035 m 0,388,389
 2282 4980 2282 4980 2204 4947 c 0,390,391
 2126 4915 2126 4915 2048 4915 c 256,392,393
 1970 4915 1970 4915 1892 4947 c 0,394,395
 1814 4980 1814 4980 1758 5035 c 0,396,397
 1703 5091 1703 5091 1671 5169 c 0,398,399
 1638 5246 1638 5246 1638 5325 c 0,400,401
 1638 5403 1638 5403 1671 5481 c 0,402,403
 1703 5559 1703 5559 1758 5614 c 0,404,405
 1814 5670 1814 5670 1892 5702 c 256,406,407
 1970 5734 1970 5734 2048 5734 c 256,408,409
 2126 5734 2126 5734 2204 5702 c 256,410,411
 2282 5670 2282 5670 2338 5614 c 0,412,413
 2393 5559 2393 5559 2425 5481 c 0,414,415
 2458 5403 2458 5403 2458 5325 c 0,416,417
 2458 5246 2458 5246 2425 5169 c 0,418,419
 2393 5091 2393 5091 2338 5035 c 0,388,389
3157 5035 m 0,420,421
 3101 4980 3101 4980 3023 4947 c 0,422,423
 2946 4915 2946 4915 2867 4915 c 0,424,425
 2789 4915 2789 4915 2711 4947 c 0,426,427
 2633 4980 2633 4980 2578 5035 c 0,428,429
 2522 5091 2522 5091 2490 5169 c 0,430,431
 2458 5246 2458 5246 2458 5325 c 0,432,433
 2458 5403 2458 5403 2490 5481 c 256,434,435
 2522 5559 2522 5559 2578 5614 c 0,436,437
 2633 5670 2633 5670 2711 5702 c 256,438,439
 2789 5734 2789 5734 2867 5734 c 0,440,441
 2946 5734 2946 5734 3023 5702 c 0,442,443
 3101 5670 3101 5670 3157 5614 c 0,444,445
 3212 5559 3212 5559 3245 5481 c 0,446,447
 3277 5403 3277 5403 3277 5325 c 0,448,449
 3277 5246 3277 5246 3245 5169 c 0,450,451
 3212 5091 3212 5091 3157 5035 c 0,420,421
EndSplineSet
Validated: 5
EndChar

StartChar: six
Encoding: 54 54 24
Width: 4096
GlyphClass: 1
Flags: W
LayerCount: 2
Fore
SplineSet
1518 120 m 0,0,1
 1463 65 1463 65 1385 32 c 0,2,3
 1307 0 1307 0 1229 0 c 0,4,5
 1150 0 1150 0 1073 32 c 0,6,7
 995 65 995 65 939 120 c 0,8,9
 884 175 884 175 851 253 c 0,10,11
 819 331 819 331 819 410 c 0,12,13
 819 488 819 488 851 566 c 0,14,15
 884 644 884 644 939 699 c 0,16,17
 995 755 995 755 1073 787 c 0,18,19
 1150 819 1150 819 1229 819 c 0,20,21
 1307 819 1307 819 1385 787 c 256,22,23
 1463 755 1463 755 1518 699 c 0,24,25
 1574 644 1574 644 1606 566 c 256,26,27
 1638 488 1638 488 1638 410 c 0,28,29
 1638 331 1638 331 1606 253 c 256,30,31
 1574 175 1574 175 1518 120 c 0,0,1
2338 120 m 0,32,33
 2282 65 2282 65 2204 32 c 0,34,35
 2126 0 2126 0 2048 0 c 256,36,37
 1970 0 1970 0 1892 32 c 0,38,39
 1814 65 1814 65 1758 120 c 0,40,41
 1703 175 1703 175 1671 253 c 0,42,43
 1638 331 1638 331 1638 410 c 0,44,45
 1638 488 1638 488 1671 566 c 0,46,47
 1703 644 1703 644 1758 699 c 0,48,49
 1814 755 1814 755 1892 787 c 256,50,51
 1970 819 1970 819 2048 819 c 256,52,53
 2126 819 2126 819 2204 787 c 256,54,55
 2282 755 2282 755 2338 699 c 0,56,57
 2393 644 2393 644 2425 566 c 0,58,59
 2458 488 2458 488 2458 410 c 0,60,61
 2458 331 2458 331 2425 253 c 0,62,63
 2393 175 2393 175 2338 120 c 0,32,33
699 939 m 0,64,65
 644 884 644 884 566 851 c 0,66,67
 488 819 488 819 410 819 c 0,68,69
 331 819 331 819 253 851 c 0,70,71
 175 884 175 884 120 939 c 0,72,73
 65 995 65 995 32 1073 c 0,74,75
 0 1150 0 1150 0 1229 c 0,76,77
 0 1307 0 1307 32 1385 c 0,78,79
 65 1463 65 1463 120 1518 c 0,80,81
 175 1574 175 1574 253 1606 c 256,82,83
 331 1638 331 1638 410 1638 c 0,84,85
 488 1638 488 1638 566 1606 c 256,86,87
 644 1574 644 1574 699 1518 c 0,88,89
 755 1463 755 1463 787 1385 c 256,90,91
 819 1307 819 1307 819 1229 c 0,92,93
 819 1150 819 1150 787 1073 c 0,94,95
 755 995 755 995 699 939 c 0,64,65
3157 939 m 0,96,97
 3101 884 3101 884 3023 851 c 0,98,99
 2946 819 2946 819 2867 819 c 0,100,101
 2789 819 2789 819 2711 851 c 0,102,103
 2633 884 2633 884 2578 939 c 0,104,105
 2522 995 2522 995 2490 1073 c 0,106,107
 2458 1150 2458 1150 2458 1229 c 0,108,109
 2458 1307 2458 1307 2490 1385 c 256,110,111
 2522 1463 2522 1463 2578 1518 c 0,112,113
 2633 1574 2633 1574 2711 1606 c 256,114,115
 2789 1638 2789 1638 2867 1638 c 0,116,117
 2946 1638 2946 1638 3023 1606 c 0,118,119
 3101 1574 3101 1574 3157 1518 c 0,120,121
 3212 1463 3212 1463 3245 1385 c 0,122,123
 3277 1307 3277 1307 3277 1229 c 0,124,125
 3277 1150 3277 1150 3245 1073 c 0,126,127
 3212 995 3212 995 3157 939 c 0,96,97
699 1758 m 0,128,129
 644 1703 644 1703 566 1671 c 0,130,131
 488 1638 488 1638 410 1638 c 0,132,133
 331 1638 331 1638 253 1671 c 0,134,135
 175 1703 175 1703 120 1758 c 0,136,137
 65 1814 65 1814 32 1892 c 0,138,139
 0 1970 0 1970 0 2048 c 256,140,141
 0 2126 0 2126 32 2204 c 0,142,143
 65 2282 65 2282 120 2338 c 0,144,145
 175 2393 175 2393 253 2425 c 0,146,147
 331 2458 331 2458 410 2458 c 0,148,149
 488 2458 488 2458 566 2425 c 0,150,151
 644 2393 644 2393 699 2338 c 0,152,153
 755 2282 755 2282 787 2204 c 256,154,155
 819 2126 819 2126 819 2048 c 256,156,157
 819 1970 819 1970 787 1892 c 256,158,159
 755 1814 755 1814 699 1758 c 0,128,129
3157 1758 m 0,160,161
 3101 1703 3101 1703 3023 1671 c 0,162,163
 2946 1638 2946 1638 2867 1638 c 0,164,165
 2789 1638 2789 1638 2711 1671 c 0,166,167
 2633 1703 2633 1703 2578 1758 c 0,168,169
 2522 1814 2522 1814 2490 1892 c 256,170,171
 2458 1970 2458 1970 2458 2048 c 256,172,173
 2458 2126 2458 2126 2490 2204 c 256,174,175
 2522 2282 2522 2282 2578 2338 c 0,176,177
 2633 2393 2633 2393 2711 2425 c 0,178,179
 2789 2458 2789 2458 2867 2458 c 0,180,181
 2946 2458 2946 2458 3023 2425 c 0,182,183
 3101 2393 3101 2393 3157 2338 c 0,184,185
 3212 2282 3212 2282 3245 2204 c 0,186,187
 3277 2126 3277 2126 3277 2048 c 256,188,189
 3277 1970 3277 1970 3245 1892 c 0,190,191
 3212 1814 3212 1814 3157 1758 c 0,160,161
699 2578 m 0,192,193
 644 2522 644 2522 566 2490 c 256,194,195
 488 2458 488 2458 410 2458 c 0,196,197
 331 2458 331 2458 253 2490 c 256,198,199
 175 2522 175 2522 120 2578 c 0,200,201
 65 2633 65 2633 32 2711 c 0,202,203
 0 2789 0 2789 0 2867 c 0,204,205
 0 2946 0 2946 32 3023 c 0,206,207
 65 3101 65 3101 120 3157 c 0,208,209
 175 3212 175 3212 253 3245 c 0,210,211
 331 3277 331 3277 410 3277 c 0,212,213
 488 3277 488 3277 566 3245 c 0,214,215
 644 3212 644 3212 699 3157 c 0,216,217
 755 3101 755 3101 787 3023 c 0,218,219
 819 2946 819 2946 819 2867 c 0,220,221
 819 2789 819 2789 787 2711 c 256,222,223
 755 2633 755 2633 699 2578 c 0,192,193
3157 2578 m 0,224,225
 3101 2522 3101 2522 3023 2490 c 0,226,227
 2946 2458 2946 2458 2867 2458 c 0,228,229
 2789 2458 2789 2458 2711 2490 c 256,230,231
 2633 2522 2633 2522 2578 2578 c 0,232,233
 2522 2633 2522 2633 2490 2711 c 256,234,235
 2458 2789 2458 2789 2458 2867 c 0,236,237
 2458 2946 2458 2946 2490 3023 c 0,238,239
 2522 3101 2522 3101 2578 3157 c 0,240,241
 2633 3212 2633 3212 2711 3245 c 0,242,243
 2789 3277 2789 3277 2867 3277 c 0,244,245
 2946 3277 2946 3277 3023 3245 c 0,246,247
 3101 3212 3101 3212 3157 3157 c 0,248,249
 3212 3101 3212 3101 3245 3023 c 0,250,251
 3277 2946 3277 2946 3277 2867 c 0,252,253
 3277 2789 3277 2789 3245 2711 c 0,254,255
 3212 2633 3212 2633 3157 2578 c 0,224,225
699 3397 m 0,256,257
 644 3341 644 3341 566 3309 c 256,258,259
 488 3277 488 3277 410 3277 c 0,260,261
 331 3277 331 3277 253 3309 c 256,262,263
 175 3341 175 3341 120 3397 c 0,264,265
 65 3452 65 3452 32 3530 c 0,266,267
 0 3608 0 3608 0 3686 c 0,268,269
 0 3765 0 3765 32 3843 c 0,270,271
 65 3921 65 3921 120 3976 c 256,272,273
 175 4031 175 4031 253 4064 c 0,274,275
 331 4096 331 4096 410 4096 c 0,276,277
 488 4096 488 4096 566 4064 c 0,278,279
 644 4031 644 4031 699 3976 c 0,280,281
 755 3921 755 3921 787 3843 c 256,282,283
 819 3765 819 3765 819 3686 c 0,284,285
 819 3608 819 3608 787 3530 c 256,286,287
 755 3452 755 3452 699 3397 c 0,256,257
1518 3397 m 0,288,289
 1463 3341 1463 3341 1385 3309 c 256,290,291
 1307 3277 1307 3277 1229 3277 c 0,292,293
 1150 3277 1150 3277 1073 3309 c 0,294,295
 995 3341 995 3341 939 3397 c 0,296,297
 884 3452 884 3452 851 3530 c 0,298,299
 819 3608 819 3608 819 3686 c 0,300,301
 819 3765 819 3765 851 3843 c 0,302,303
 884 3921 884 3921 939 3976 c 0,304,305
 995 4031 995 4031 1073 4064 c 0,306,307
 1150 4096 1150 4096 1229 4096 c 0,308,309
 1307 4096 1307 4096 1385 4064 c 0,310,311
 1463 4031 1463 4031 1518 3976 c 0,312,313
 1574 3921 1574 3921 1606 3843 c 256,314,315
 1638 3765 1638 3765 1638 3686 c 0,316,317
 1638 3608 1638 3608 1606 3530 c 256,318,319
 1574 3452 1574 3452 1518 3397 c 0,288,289
2338 3397 m 0,320,321
 2282 3341 2282 3341 2204 3309 c 256,322,323
 2126 3277 2126 3277 2048 3277 c 256,324,325
 1970 3277 1970 3277 1892 3309 c 256,326,327
 1814 3341 1814 3341 1758 3397 c 0,328,329
 1703 3452 1703 3452 1671 3530 c 0,330,331
 1638 3608 1638 3608 1638 3686 c 0,332,333
 1638 3765 1638 3765 1671 3843 c 0,334,335
 1703 3921 1703 3921 1758 3976 c 0,336,337
 1814 4031 1814 4031 1892 4064 c 0,338,339
 1970 4096 1970 4096 2048 4096 c 256,340,341
 2126 4096 2126 4096 2204 4064 c 0,342,343
 2282 4031 2282 4031 2338 3976 c 0,344,345
 2393 3921 2393 3921 2425 3843 c 0,346,347
 2458 3765 2458 3765 2458 3686 c 0,348,349
 2458 3608 2458 3608 2425 3530 c 0,350,351
 2393 3452 2393 3452 2338 3397 c 0,320,321
699 4216 m 0,352,353
 644 4161 644 4161 566 4128 c 0,354,355
 488 4096 488 4096 410 4096 c 0,356,357
 331 4096 331 4096 253 4128 c 0,358,359
 175 4161 175 4161 120 4216 c 256,360,361
 65 4271 65 4271 32 4349 c 0,362,363
 0 4427 0 4427 0 4506 c 0,364,365
 0 4584 0 4584 32 4662 c 0,366,367
 65 4740 65 4740 120 4795 c 0,368,369
 175 4851 175 4851 253 4883 c 256,370,371
 331 4915 331 4915 410 4915 c 0,372,373
 488 4915 488 4915 566 4883 c 256,374,375
 644 4851 644 4851 699 4795 c 0,376,377
 755 4740 755 4740 787 4662 c 256,378,379
 819 4584 819 4584 819 4506 c 0,380,381
 819 4427 819 4427 787 4349 c 256,382,383
 755 4271 755 4271 699 4216 c 0,352,353
1518 5035 m 0,384,385
 1463 4980 1463 4980 1385 4947 c 0,386,387
 1307 4915 1307 4915 1229 4915 c 0,388,389
 1150 4915 1150 4915 1073 4947 c 0,390,391
 995 4980 995 4980 939 5035 c 0,392,393
 884 5091 884 5091 851 5169 c 0,394,395
 819 5246 819 5246 819 5325 c 0,396,397
 819 5403 819 5403 851 5481 c 0,398,399
 884 5559 884 5559 939 5614 c 0,400,401
 995 5670 995 5670 1073 5702 c 0,402,403
 1150 5734 1150 5734 1229 5734 c 0,404,405
 1307 5734 1307 5734 1385 5702 c 256,406,407
 1463 5670 1463 5670 1518 5614 c 0,408,409
 1574 5559 1574 5559 1606 5481 c 256,410,411
 1638 5403 1638 5403 1638 5325 c 0,412,413
 1638 5246 1638 5246 1606 5169 c 0,414,415
 1574 5091 1574 5091 1518 5035 c 0,384,385
2338 5035 m 0,416,417
 2282 4980 2282 4980 2204 4947 c 0,418,419
 2126 4915 2126 4915 2048 4915 c 256,420,421
 1970 4915 1970 4915 1892 4947 c 0,422,423
 1814 4980 1814 4980 1758 5035 c 0,424,425
 1703 5091 1703 5091 1671 5169 c 0,426,427
 1638 5246 1638 5246 1638 5325 c 0,428,429
 1638 5403 1638 5403 1671 5481 c 0,430,431
 1703 5559 1703 5559 1758 5614 c 0,432,433
 1814 5670 1814 5670 1892 5702 c 256,434,435
 1970 5734 1970 5734 2048 5734 c 256,436,437
 2126 5734 2126 5734 2204 5702 c 256,438,439
 2282 5670 2282 5670 2338 5614 c 0,440,441
 2393 5559 2393 5559 2425 5481 c 0,442,443
 2458 5403 2458 5403 2458 5325 c 0,444,445
 2458 5246 2458 5246 2425 5169 c 0,446,447
 2393 5091 2393 5091 2338 5035 c 0,416,417
3157 5035 m 0,448,449
 3101 4980 3101 4980 3023 4947 c 0,450,451
 2946 4915 2946 4915 2867 4915 c 0,452,453
 2789 4915 2789 4915 2711 4947 c 0,454,455
 2633 4980 2633 4980 2578 5035 c 0,456,457
 2522 5091 2522 5091 2490 5169 c 0,458,459
 2458 5246 2458 5246 2458 5325 c 0,460,461
 2458 5403 2458 5403 2490 5481 c 256,462,463
 2522 5559 2522 5559 2578 5614 c 0,464,465
 2633 5670 2633 5670 2711 5702 c 256,466,467
 2789 5734 2789 5734 2867 5734 c 0,468,469
 2946 5734 2946 5734 3023 5702 c 0,470,471
 3101 5670 3101 5670 3157 5614 c 0,472,473
 3212 5559 3212 5559 3245 5481 c 0,474,475
 3277 5403 3277 5403 3277 5325 c 0,476,477
 3277 5246 3277 5246 3245 5169 c 0,478,479
 3212 5091 3212 5091 3157 5035 c 0,448,449
EndSplineSet
Validated: 5
EndChar

StartChar: seven
Encoding: 55 55 25
Width: 4096
GlyphClass: 1
Flags: W
LayerCount: 2
Fore
SplineSet
1518 120 m 0,0,1
 1463 65 1463 65 1385 32 c 0,2,3
 1307 0 1307 0 1229 0 c 0,4,5
 1150 0 1150 0 1073 32 c 0,6,7
 995 65 995 65 939 120 c 0,8,9
 884 175 884 175 851 253 c 0,10,11
 819 331 819 331 819 410 c 0,12,13
 819 488 819 488 851 566 c 0,14,15
 884 644 884 644 939 699 c 0,16,17
 995 755 995 755 1073 787 c 0,18,19
 1122 807 1122 807 1171 815 c 0,20,21
 1200 819 1200 819 1229 819 c 0,22,23
 1307 819 1307 819 1385 787 c 256,24,25
 1463 755 1463 755 1518 699 c 0,26,27
 1574 644 1574 644 1606 566 c 256,28,29
 1638 488 1638 488 1638 410 c 0,30,31
 1638 331 1638 331 1606 253 c 256,32,33
 1574 175 1574 175 1518 120 c 0,0,1
1518 939 m 0,34,35
 1463 884 1463 884 1385 851 c 0,36,37
 1307 819 1307 819 1229 819 c 0,38,39
 1150 819 1150 819 1073 851 c 0,40,41
 995 884 995 884 939 939 c 0,42,43
 884 995 884 995 851 1073 c 0,44,45
 819 1150 819 1150 819 1229 c 0,46,47
 819 1307 819 1307 851 1385 c 0,48,49
 884 1463 884 1463 939 1518 c 0,50,51
 995 1574 995 1574 1073 1606 c 0,52,53
 1150 1638 1150 1638 1229 1638 c 0,54,55
 1307 1638 1307 1638 1385 1606 c 256,56,57
 1463 1574 1463 1574 1518 1518 c 0,58,59
 1574 1463 1574 1463 1606 1385 c 256,60,61
 1638 1307 1638 1307 1638 1229 c 0,62,63
 1638 1150 1638 1150 1606 1073 c 0,64,65
 1574 995 1574 995 1518 939 c 0,34,35
1518 1758 m 0,66,67
 1463 1703 1463 1703 1385 1671 c 0,68,69
 1307 1638 1307 1638 1229 1638 c 0,70,71
 1150 1638 1150 1638 1073 1671 c 0,72,73
 995 1703 995 1703 939 1758 c 0,74,75
 884 1814 884 1814 851 1892 c 0,76,77
 819 1970 819 1970 819 2048 c 256,78,79
 819 2126 819 2126 851 2204 c 0,80,81
 884 2282 884 2282 939 2338 c 0,82,83
 995 2393 995 2393 1073 2425 c 0,84,85
 1150 2458 1150 2458 1229 2458 c 0,86,87
 1307 2458 1307 2458 1385 2425 c 0,88,89
 1463 2393 1463 2393 1518 2338 c 0,90,91
 1574 2282 1574 2282 1606 2204 c 256,92,93
 1638 2126 1638 2126 1638 2048 c 256,94,95
 1638 1970 1638 1970 1606 1892 c 256,96,97
 1574 1814 1574 1814 1518 1758 c 0,66,67
1518 2578 m 0,98,99
 1463 2522 1463 2522 1385 2490 c 256,100,101
 1307 2458 1307 2458 1229 2458 c 0,102,103
 1150 2458 1150 2458 1073 2490 c 0,104,105
 995 2522 995 2522 939 2578 c 0,106,107
 884 2633 884 2633 851 2711 c 0,108,109
 819 2789 819 2789 819 2867 c 0,110,111
 819 2946 819 2946 851 3023 c 0,112,113
 884 3101 884 3101 939 3157 c 0,114,115
 995 3212 995 3212 1073 3245 c 0,116,117
 1150 3277 1150 3277 1229 3277 c 0,118,119
 1307 3277 1307 3277 1385 3245 c 0,120,121
 1463 3212 1463 3212 1518 3157 c 0,122,123
 1574 3101 1574 3101 1606 3023 c 0,124,125
 1638 2946 1638 2946 1638 2867 c 0,126,127
 1638 2789 1638 2789 1606 2711 c 256,128,129
 1574 2633 1574 2633 1518 2578 c 0,98,99
2338 3397 m 0,130,131
 2282 3341 2282 3341 2204 3309 c 256,132,133
 2126 3277 2126 3277 2048 3277 c 256,134,135
 1970 3277 1970 3277 1892 3309 c 256,136,137
 1814 3341 1814 3341 1758 3397 c 0,138,139
 1703 3452 1703 3452 1671 3530 c 0,140,141
 1638 3608 1638 3608 1638 3686 c 0,142,143
 1638 3765 1638 3765 1671 3843 c 0,144,145
 1703 3921 1703 3921 1758 3976 c 0,146,147
 1814 4031 1814 4031 1892 4064 c 0,148,149
 1970 4096 1970 4096 2048 4096 c 256,150,151
 2126 4096 2126 4096 2204 4064 c 0,152,153
 2282 4031 2282 4031 2338 3976 c 0,154,155
 2393 3921 2393 3921 2425 3843 c 0,156,157
 2458 3765 2458 3765 2458 3686 c 0,158,159
 2458 3608 2458 3608 2425 3530 c 0,160,161
 2393 3452 2393 3452 2338 3397 c 0,130,131
3157 4216 m 0,162,163
 3101 4161 3101 4161 3023 4128 c 0,164,165
 2946 4096 2946 4096 2867 4096 c 0,166,167
 2789 4096 2789 4096 2711 4128 c 0,168,169
 2633 4161 2633 4161 2578 4216 c 0,170,171
 2522 4271 2522 4271 2490 4349 c 256,172,173
 2458 4427 2458 4427 2458 4506 c 0,174,175
 2458 4584 2458 4584 2490 4662 c 256,176,177
 2522 4740 2522 4740 2578 4795 c 0,178,179
 2633 4851 2633 4851 2711 4883 c 256,180,181
 2789 4915 2789 4915 2867 4915 c 0,182,183
 2946 4915 2946 4915 3023 4883 c 0,184,185
 3101 4851 3101 4851 3157 4795 c 0,186,187
 3212 4740 3212 4740 3245 4662 c 0,188,189
 3277 4584 3277 4584 3277 4506 c 0,190,191
 3277 4427 3277 4427 3245 4349 c 0,192,193
 3212 4271 3212 4271 3157 4216 c 0,162,163
699 5035 m 0,194,195
 644 4980 644 4980 566 4947 c 0,196,197
 517 4927 517 4927 467 4920 c 0,198,199
 438 4915 438 4915 410 4915 c 0,200,201
 331 4915 331 4915 253 4947 c 0,202,203
 175 4980 175 4980 120 5035 c 0,204,205
 65 5091 65 5091 32 5169 c 0,206,207
 0 5246 0 5246 0 5325 c 0,208,209
 0 5403 0 5403 32 5481 c 0,210,211
 65 5559 65 5559 120 5614 c 0,212,213
 175 5670 175 5670 253 5702 c 256,214,215
 331 5734 331 5734 410 5734 c 0,216,217
 488 5734 488 5734 566 5702 c 256,218,219
 644 5670 644 5670 699 5614 c 0,220,221
 755 5559 755 5559 787 5481 c 256,222,223
 819 5403 819 5403 819 5325 c 0,224,225
 819 5246 819 5246 787 5169 c 0,226,227
 755 5091 755 5091 699 5035 c 0,194,195
1518 5035 m 0,228,229
 1463 4980 1463 4980 1385 4947 c 0,230,231
 1307 4915 1307 4915 1229 4915 c 0,232,233
 1150 4915 1150 4915 1073 4947 c 0,234,235
 995 4980 995 4980 939 5035 c 0,236,237
 884 5091 884 5091 851 5169 c 0,238,239
 819 5246 819 5246 819 5325 c 0,240,241
 819 5403 819 5403 851 5481 c 0,242,243
 884 5559 884 5559 939 5614 c 0,244,245
 995 5670 995 5670 1073 5702 c 0,246,247
 1150 5734 1150 5734 1229 5734 c 0,248,249
 1307 5734 1307 5734 1385 5702 c 256,250,251
 1463 5670 1463 5670 1518 5614 c 0,252,253
 1574 5559 1574 5559 1606 5481 c 256,254,255
 1638 5403 1638 5403 1638 5325 c 0,256,257
 1638 5246 1638 5246 1606 5169 c 0,258,259
 1574 5091 1574 5091 1518 5035 c 0,228,229
2338 5035 m 0,260,261
 2282 4980 2282 4980 2204 4947 c 0,262,263
 2126 4915 2126 4915 2048 4915 c 256,264,265
 1970 4915 1970 4915 1892 4947 c 0,266,267
 1814 4980 1814 4980 1758 5035 c 0,268,269
 1703 5091 1703 5091 1671 5169 c 0,270,271
 1638 5246 1638 5246 1638 5325 c 0,272,273
 1638 5403 1638 5403 1671 5481 c 0,274,275
 1703 5559 1703 5559 1758 5614 c 0,276,277
 1814 5670 1814 5670 1892 5702 c 256,278,279
 1970 5734 1970 5734 2048 5734 c 256,280,281
 2126 5734 2126 5734 2204 5702 c 256,282,283
 2282 5670 2282 5670 2338 5614 c 0,284,285
 2393 5559 2393 5559 2425 5481 c 0,286,287
 2458 5403 2458 5403 2458 5325 c 0,288,289
 2458 5246 2458 5246 2425 5169 c 0,290,291
 2393 5091 2393 5091 2338 5035 c 0,260,261
3157 5035 m 0,292,293
 3101 4980 3101 4980 3023 4947 c 0,294,295
 2946 4915 2946 4915 2867 4915 c 0,296,297
 2789 4915 2789 4915 2711 4947 c 0,298,299
 2633 4980 2633 4980 2578 5035 c 0,300,301
 2522 5091 2522 5091 2490 5169 c 0,302,303
 2458 5246 2458 5246 2458 5325 c 0,304,305
 2458 5403 2458 5403 2490 5481 c 256,306,307
 2522 5559 2522 5559 2578 5614 c 0,308,309
 2633 5670 2633 5670 2711 5702 c 256,310,311
 2789 5734 2789 5734 2867 5734 c 0,312,313
 2946 5734 2946 5734 3023 5702 c 0,314,315
 3101 5670 3101 5670 3157 5614 c 0,316,317
 3212 5559 3212 5559 3245 5481 c 0,318,319
 3277 5403 3277 5403 3277 5325 c 0,320,321
 3277 5246 3277 5246 3245 5169 c 0,322,323
 3212 5091 3212 5091 3157 5035 c 0,292,293
EndSplineSet
Validated: 5
EndChar

StartChar: eight
Encoding: 56 56 26
Width: 4096
GlyphClass: 1
Flags: W
LayerCount: 2
Fore
SplineSet
1518 120 m 0,0,1
 1463 65 1463 65 1385 32 c 0,2,3
 1307 0 1307 0 1229 0 c 0,4,5
 1150 0 1150 0 1073 32 c 0,6,7
 995 65 995 65 939 120 c 0,8,9
 884 175 884 175 851 253 c 0,10,11
 819 331 819 331 819 410 c 0,12,13
 819 488 819 488 851 566 c 0,14,15
 884 644 884 644 939 699 c 0,16,17
 995 755 995 755 1073 787 c 0,18,19
 1150 819 1150 819 1229 819 c 0,20,21
 1307 819 1307 819 1385 787 c 256,22,23
 1463 755 1463 755 1518 699 c 0,24,25
 1574 644 1574 644 1606 566 c 256,26,27
 1638 488 1638 488 1638 410 c 0,28,29
 1638 331 1638 331 1606 253 c 256,30,31
 1574 175 1574 175 1518 120 c 0,0,1
2338 120 m 0,32,33
 2282 65 2282 65 2204 32 c 0,34,35
 2126 0 2126 0 2048 0 c 256,36,37
 1970 0 1970 0 1892 32 c 0,38,39
 1814 65 1814 65 1758 120 c 0,40,41
 1703 175 1703 175 1671 253 c 0,42,43
 1638 331 1638 331 1638 410 c 0,44,45
 1638 488 1638 488 1671 566 c 0,46,47
 1703 644 1703 644 1758 699 c 0,48,49
 1814 755 1814 755 1892 787 c 256,50,51
 1970 819 1970 819 2048 819 c 256,52,53
 2126 819 2126 819 2204 787 c 256,54,55
 2282 755 2282 755 2338 699 c 0,56,57
 2393 644 2393 644 2425 566 c 0,58,59
 2458 488 2458 488 2458 410 c 0,60,61
 2458 331 2458 331 2425 253 c 0,62,63
 2393 175 2393 175 2338 120 c 0,32,33
699 939 m 0,64,65
 644 884 644 884 566 851 c 0,66,67
 488 819 488 819 410 819 c 0,68,69
 331 819 331 819 253 851 c 0,70,71
 175 884 175 884 120 939 c 0,72,73
 65 995 65 995 32 1073 c 0,74,75
 0 1150 0 1150 0 1229 c 0,76,77
 0 1307 0 1307 32 1385 c 0,78,79
 65 1463 65 1463 120 1518 c 0,80,81
 175 1574 175 1574 253 1606 c 256,82,83
 331 1638 331 1638 410 1638 c 0,84,85
 488 1638 488 1638 566 1606 c 256,86,87
 644 1574 644 1574 699 1518 c 0,88,89
 755 1463 755 1463 787 1385 c 256,90,91
 819 1307 819 1307 819 1229 c 0,92,93
 819 1150 819 1150 787 1073 c 0,94,95
 755 995 755 995 699 939 c 0,64,65
3157 939 m 0,96,97
 3101 884 3101 884 3023 851 c 0,98,99
 2946 819 2946 819 2867 819 c 0,100,101
 2789 819 2789 819 2711 851 c 0,102,103
 2633 884 2633 884 2578 939 c 0,104,105
 2522 995 2522 995 2490 1073 c 0,106,107
 2458 1150 2458 1150 2458 1229 c 0,108,109
 2458 1307 2458 1307 2490 1385 c 256,110,111
 2522 1463 2522 1463 2578 1518 c 0,112,113
 2633 1574 2633 1574 2711 1606 c 256,114,115
 2789 1638 2789 1638 2867 1638 c 0,116,117
 2946 1638 2946 1638 3023 1606 c 0,118,119
 3101 1574 3101 1574 3157 1518 c 0,120,121
 3212 1463 3212 1463 3245 1385 c 0,122,123
 3277 1307 3277 1307 3277 1229 c 0,124,125
 3277 1150 3277 1150 3245 1073 c 0,126,127
 3212 995 3212 995 3157 939 c 0,96,97
699 1758 m 0,128,129
 644 1703 644 1703 566 1671 c 0,130,131
 488 1638 488 1638 410 1638 c 0,132,133
 331 1638 331 1638 253 1671 c 0,134,135
 175 1703 175 1703 120 1758 c 0,136,137
 65 1814 65 1814 32 1892 c 0,138,139
 0 1970 0 1970 0 2048 c 256,140,141
 0 2126 0 2126 32 2204 c 0,142,143
 65 2282 65 2282 120 2338 c 0,144,145
 175 2393 175 2393 253 2425 c 0,146,147
 331 2458 331 2458 410 2458 c 0,148,149
 488 2458 488 2458 566 2425 c 0,150,151
 644 2393 644 2393 699 2338 c 0,152,153
 755 2282 755 2282 787 2204 c 256,154,155
 819 2126 819 2126 819 2048 c 256,156,157
 819 1970 819 1970 787 1892 c 256,158,159
 755 1814 755 1814 699 1758 c 0,128,129
3157 1758 m 0,160,161
 3101 1703 3101 1703 3023 1671 c 0,162,163
 2946 1638 2946 1638 2867 1638 c 0,164,165
 2789 1638 2789 1638 2711 1671 c 0,166,167
 2633 1703 2633 1703 2578 1758 c 0,168,169
 2522 1814 2522 1814 2490 1892 c 256,170,171
 2458 1970 2458 1970 2458 2048 c 256,172,173
 2458 2126 2458 2126 2490 2204 c 256,174,175
 2522 2282 2522 2282 2578 2338 c 0,176,177
 2633 2393 2633 2393 2711 2425 c 0,178,179
 2789 2458 2789 2458 2867 2458 c 0,180,181
 2946 2458 2946 2458 3023 2425 c 0,182,183
 3101 2393 3101 2393 3157 2338 c 0,184,185
 3212 2282 3212 2282 3245 2204 c 0,186,187
 3277 2126 3277 2126 3277 2048 c 256,188,189
 3277 1970 3277 1970 3245 1892 c 0,190,191
 3212 1814 3212 1814 3157 1758 c 0,160,161
1518 2578 m 0,192,193
 1463 2522 1463 2522 1385 2490 c 256,194,195
 1307 2458 1307 2458 1229 2458 c 0,196,197
 1150 2458 1150 2458 1073 2490 c 0,198,199
 995 2522 995 2522 939 2578 c 0,200,201
 884 2633 884 2633 851 2711 c 0,202,203
 819 2789 819 2789 819 2867 c 0,204,205
 819 2946 819 2946 851 3023 c 0,206,207
 884 3101 884 3101 939 3157 c 0,208,209
 995 3212 995 3212 1073 3245 c 0,210,211
 1150 3277 1150 3277 1229 3277 c 0,212,213
 1307 3277 1307 3277 1385 3245 c 0,214,215
 1463 3212 1463 3212 1518 3157 c 0,216,217
 1574 3101 1574 3101 1606 3023 c 0,218,219
 1638 2946 1638 2946 1638 2867 c 0,220,221
 1638 2789 1638 2789 1606 2711 c 256,222,223
 1574 2633 1574 2633 1518 2578 c 0,192,193
2338 2578 m 0,224,225
 2282 2522 2282 2522 2204 2490 c 256,226,227
 2126 2458 2126 2458 2048 2458 c 256,228,229
 1970 2458 1970 2458 1892 2490 c 256,230,231
 1814 2522 1814 2522 1758 2578 c 0,232,233
 1703 2633 1703 2633 1671 2711 c 0,234,235
 1638 2789 1638 2789 1638 2867 c 0,236,237
 1638 2946 1638 2946 1671 3023 c 0,238,239
 1703 3101 1703 3101 1758 3157 c 0,240,241
 1814 3212 1814 3212 1892 3245 c 0,242,243
 1970 3277 1970 3277 2048 3277 c 256,244,245
 2126 3277 2126 3277 2204 3245 c 0,246,247
 2282 3212 2282 3212 2338 3157 c 0,248,249
 2393 3101 2393 3101 2425 3023 c 0,250,251
 2458 2946 2458 2946 2458 2867 c 0,252,253
 2458 2789 2458 2789 2425 2711 c 0,254,255
 2393 2633 2393 2633 2338 2578 c 0,224,225
699 3397 m 0,256,257
 644 3341 644 3341 566 3309 c 256,258,259
 488 3277 488 3277 410 3277 c 0,260,261
 331 3277 331 3277 253 3309 c 256,262,263
 175 3341 175 3341 120 3397 c 0,264,265
 65 3452 65 3452 32 3530 c 0,266,267
 0 3608 0 3608 0 3686 c 0,268,269
 0 3765 0 3765 32 3843 c 0,270,271
 65 3921 65 3921 120 3976 c 256,272,273
 175 4031 175 4031 253 4064 c 0,274,275
 331 4096 331 4096 410 4096 c 0,276,277
 488 4096 488 4096 566 4064 c 0,278,279
 644 4031 644 4031 699 3976 c 0,280,281
 755 3921 755 3921 787 3843 c 256,282,283
 819 3765 819 3765 819 3686 c 0,284,285
 819 3608 819 3608 787 3530 c 256,286,287
 755 3452 755 3452 699 3397 c 0,256,257
3157 3397 m 0,288,289
 3101 3341 3101 3341 3023 3309 c 0,290,291
 2946 3277 2946 3277 2867 3277 c 0,292,293
 2789 3277 2789 3277 2711 3309 c 256,294,295
 2633 3341 2633 3341 2578 3397 c 0,296,297
 2522 3452 2522 3452 2490 3530 c 256,298,299
 2458 3608 2458 3608 2458 3686 c 0,300,301
 2458 3765 2458 3765 2490 3843 c 256,302,303
 2522 3921 2522 3921 2578 3976 c 0,304,305
 2633 4031 2633 4031 2711 4064 c 0,306,307
 2789 4096 2789 4096 2867 4096 c 0,308,309
 2946 4096 2946 4096 3023 4064 c 0,310,311
 3101 4031 3101 4031 3157 3976 c 0,312,313
 3212 3921 3212 3921 3245 3843 c 0,314,315
 3277 3765 3277 3765 3277 3686 c 0,316,317
 3277 3608 3277 3608 3245 3530 c 0,318,319
 3212 3452 3212 3452 3157 3397 c 0,288,289
699 4216 m 0,320,321
 644 4161 644 4161 566 4128 c 0,322,323
 488 4096 488 4096 410 4096 c 0,324,325
 331 4096 331 4096 253 4128 c 0,326,327
 175 4161 175 4161 120 4216 c 256,328,329
 65 4271 65 4271 32 4349 c 0,330,331
 0 4427 0 4427 0 4506 c 0,332,333
 0 4584 0 4584 32 4662 c 0,334,335
 65 4740 65 4740 120 4795 c 0,336,337
 175 4851 175 4851 253 4883 c 256,338,339
 331 4915 331 4915 410 4915 c 0,340,341
 488 4915 488 4915 566 4883 c 256,342,343
 644 4851 644 4851 699 4795 c 0,344,345
 755 4740 755 4740 787 4662 c 256,346,347
 819 4584 819 4584 819 4506 c 0,348,349
 819 4427 819 4427 787 4349 c 256,350,351
 755 4271 755 4271 699 4216 c 0,320,321
3157 4216 m 0,352,353
 3101 4161 3101 4161 3023 4128 c 0,354,355
 2946 4096 2946 4096 2867 4096 c 0,356,357
 2789 4096 2789 4096 2711 4128 c 0,358,359
 2633 4161 2633 4161 2578 4216 c 0,360,361
 2522 4271 2522 4271 2490 4349 c 256,362,363
 2458 4427 2458 4427 2458 4506 c 0,364,365
 2458 4584 2458 4584 2490 4662 c 256,366,367
 2522 4740 2522 4740 2578 4795 c 0,368,369
 2633 4851 2633 4851 2711 4883 c 256,370,371
 2789 4915 2789 4915 2867 4915 c 0,372,373
 2946 4915 2946 4915 3023 4883 c 0,374,375
 3101 4851 3101 4851 3157 4795 c 0,376,377
 3212 4740 3212 4740 3245 4662 c 0,378,379
 3277 4584 3277 4584 3277 4506 c 0,380,381
 3277 4427 3277 4427 3245 4349 c 0,382,383
 3212 4271 3212 4271 3157 4216 c 0,352,353
1518 5035 m 0,384,385
 1463 4980 1463 4980 1385 4947 c 0,386,387
 1307 4915 1307 4915 1229 4915 c 0,388,389
 1150 4915 1150 4915 1073 4947 c 0,390,391
 995 4980 995 4980 939 5035 c 0,392,393
 884 5091 884 5091 851 5169 c 0,394,395
 819 5246 819 5246 819 5325 c 0,396,397
 819 5403 819 5403 851 5481 c 0,398,399
 884 5559 884 5559 939 5614 c 0,400,401
 995 5670 995 5670 1073 5702 c 0,402,403
 1150 5734 1150 5734 1229 5734 c 0,404,405
 1307 5734 1307 5734 1385 5702 c 256,406,407
 1463 5670 1463 5670 1518 5614 c 0,408,409
 1574 5559 1574 5559 1606 5481 c 256,410,411
 1638 5403 1638 5403 1638 5325 c 0,412,413
 1638 5246 1638 5246 1606 5169 c 0,414,415
 1574 5091 1574 5091 1518 5035 c 0,384,385
2338 5035 m 0,416,417
 2282 4980 2282 4980 2204 4947 c 0,418,419
 2126 4915 2126 4915 2048 4915 c 256,420,421
 1970 4915 1970 4915 1892 4947 c 0,422,423
 1814 4980 1814 4980 1758 5035 c 0,424,425
 1703 5091 1703 5091 1671 5169 c 0,426,427
 1638 5246 1638 5246 1638 5325 c 0,428,429
 1638 5403 1638 5403 1671 5481 c 0,430,431
 1703 5559 1703 5559 1758 5614 c 0,432,433
 1814 5670 1814 5670 1892 5702 c 256,434,435
 1970 5734 1970 5734 2048 5734 c 256,436,437
 2126 5734 2126 5734 2204 5702 c 256,438,439
 2282 5670 2282 5670 2338 5614 c 0,440,441
 2393 5559 2393 5559 2425 5481 c 0,442,443
 2458 5403 2458 5403 2458 5325 c 0,444,445
 2458 5246 2458 5246 2425 5169 c 0,446,447
 2393 5091 2393 5091 2338 5035 c 0,416,417
EndSplineSet
Validated: 5
EndChar

StartChar: nine
Encoding: 57 57 27
Width: 4096
GlyphClass: 1
Flags: W
LayerCount: 2
Fore
SplineSet
1518 120 m 0,0,1
 1463 65 1463 65 1385 32 c 0,2,3
 1307 0 1307 0 1229 0 c 0,4,5
 1150 0 1150 0 1073 32 c 0,6,7
 995 65 995 65 939 120 c 0,8,9
 884 175 884 175 851 253 c 0,10,11
 819 331 819 331 819 410 c 0,12,13
 819 488 819 488 851 566 c 0,14,15
 884 644 884 644 939 699 c 0,16,17
 995 755 995 755 1073 787 c 0,18,19
 1150 819 1150 819 1229 819 c 0,20,21
 1307 819 1307 819 1385 787 c 256,22,23
 1463 755 1463 755 1518 699 c 0,24,25
 1574 644 1574 644 1606 566 c 256,26,27
 1638 488 1638 488 1638 410 c 0,28,29
 1638 331 1638 331 1606 253 c 256,30,31
 1574 175 1574 175 1518 120 c 0,0,1
2338 120 m 0,32,33
 2282 65 2282 65 2204 32 c 0,34,35
 2126 0 2126 0 2048 0 c 256,36,37
 1970 0 1970 0 1892 32 c 0,38,39
 1814 65 1814 65 1758 120 c 0,40,41
 1703 175 1703 175 1671 253 c 0,42,43
 1638 331 1638 331 1638 410 c 0,44,45
 1638 488 1638 488 1671 566 c 0,46,47
 1703 644 1703 644 1758 699 c 0,48,49
 1814 755 1814 755 1892 787 c 256,50,51
 1970 819 1970 819 2048 819 c 256,52,53
 2126 819 2126 819 2204 787 c 256,54,55
 2282 755 2282 755 2338 699 c 0,56,57
 2393 644 2393 644 2425 566 c 0,58,59
 2458 488 2458 488 2458 410 c 0,60,61
 2458 331 2458 331 2425 253 c 0,62,63
 2393 175 2393 175 2338 120 c 0,32,33
699 939 m 0,64,65
 644 884 644 884 566 851 c 0,66,67
 488 819 488 819 410 819 c 0,68,69
 331 819 331 819 253 851 c 0,70,71
 175 884 175 884 120 939 c 0,72,73
 65 995 65 995 32 1073 c 0,74,75
 0 1150 0 1150 0 1229 c 0,76,77
 0 1307 0 1307 32 1385 c 0,78,79
 65 1463 65 1463 120 1518 c 0,80,81
 175 1574 175 1574 253 1606 c 256,82,83
 331 1638 331 1638 410 1638 c 0,84,85
 488 1638 488 1638 566 1606 c 256,86,87
 644 1574 644 1574 699 1518 c 0,88,89
 755 1463 755 1463 787 1385 c 256,90,91
 819 1307 819 1307 819 1229 c 0,92,93
 819 1150 819 1150 787 1073 c 0,94,95
 755 995 755 995 699 939 c 0,64,65
3157 939 m 0,96,97
 3101 884 3101 884 3023 851 c 0,98,99
 2946 819 2946 819 2867 819 c 0,100,101
 2789 819 2789 819 2711 851 c 0,102,103
 2633 884 2633 884 2578 939 c 0,104,105
 2522 995 2522 995 2490 1073 c 0,106,107
 2458 1150 2458 1150 2458 1229 c 0,108,109
 2458 1307 2458 1307 2490 1385 c 256,110,111
 2522 1463 2522 1463 2578 1518 c 0,112,113
 2633 1574 2633 1574 2711 1606 c 256,114,115
 2789 1638 2789 1638 2867 1638 c 0,116,117
 2946 1638 2946 1638 3023 1606 c 0,118,119
 3101 1574 3101 1574 3157 1518 c 0,120,121
 3212 1463 3212 1463 3245 1385 c 0,122,123
 3277 1307 3277 1307 3277 1229 c 0,124,125
 3277 1150 3277 1150 3245 1073 c 0,126,127
 3212 995 3212 995 3157 939 c 0,96,97
3157 1758 m 0,128,129
 3101 1703 3101 1703 3023 1671 c 0,130,131
 2946 1638 2946 1638 2867 1638 c 0,132,133
 2789 1638 2789 1638 2711 1671 c 0,134,135
 2633 1703 2633 1703 2578 1758 c 0,136,137
 2522 1814 2522 1814 2490 1892 c 256,138,139
 2458 1970 2458 1970 2458 2048 c 256,140,141
 2458 2126 2458 2126 2490 2204 c 256,142,143
 2522 2282 2522 2282 2578 2338 c 0,144,145
 2633 2393 2633 2393 2711 2425 c 0,146,147
 2789 2458 2789 2458 2867 2458 c 0,148,149
 2946 2458 2946 2458 3023 2425 c 0,150,151
 3101 2393 3101 2393 3157 2338 c 0,152,153
 3212 2282 3212 2282 3245 2204 c 0,154,155
 3277 2126 3277 2126 3277 2048 c 256,156,157
 3277 1970 3277 1970 3245 1892 c 0,158,159
 3212 1814 3212 1814 3157 1758 c 0,128,129
1518 2578 m 0,160,161
 1463 2522 1463 2522 1385 2490 c 256,162,163
 1307 2458 1307 2458 1229 2458 c 0,164,165
 1150 2458 1150 2458 1073 2490 c 0,166,167
 995 2522 995 2522 939 2578 c 0,168,169
 884 2633 884 2633 851 2711 c 0,170,171
 819 2789 819 2789 819 2867 c 0,172,173
 819 2946 819 2946 851 3023 c 0,174,175
 884 3101 884 3101 939 3157 c 0,176,177
 995 3212 995 3212 1073 3245 c 0,178,179
 1150 3277 1150 3277 1229 3277 c 0,180,181
 1307 3277 1307 3277 1385 3245 c 0,182,183
 1463 3212 1463 3212 1518 3157 c 0,184,185
 1574 3101 1574 3101 1606 3023 c 0,186,187
 1638 2946 1638 2946 1638 2867 c 0,188,189
 1638 2789 1638 2789 1606 2711 c 256,190,191
 1574 2633 1574 2633 1518 2578 c 0,160,161
2338 2578 m 0,192,193
 2282 2522 2282 2522 2204 2490 c 256,194,195
 2126 2458 2126 2458 2048 2458 c 256,196,197
 1970 2458 1970 2458 1892 2490 c 256,198,199
 1814 2522 1814 2522 1758 2578 c 0,200,201
 1703 2633 1703 2633 1671 2711 c 0,202,203
 1638 2789 1638 2789 1638 2867 c 0,204,205
 1638 2946 1638 2946 1671 3023 c 0,206,207
 1703 3101 1703 3101 1758 3157 c 0,208,209
 1814 3212 1814 3212 1892 3245 c 0,210,211
 1970 3277 1970 3277 2048 3277 c 256,212,213
 2126 3277 2126 3277 2204 3245 c 0,214,215
 2282 3212 2282 3212 2338 3157 c 0,216,217
 2393 3101 2393 3101 2425 3023 c 0,218,219
 2458 2946 2458 2946 2458 2867 c 0,220,221
 2458 2789 2458 2789 2425 2711 c 0,222,223
 2393 2633 2393 2633 2338 2578 c 0,192,193
3157 2578 m 0,224,225
 3101 2522 3101 2522 3023 2490 c 0,226,227
 2946 2458 2946 2458 2867 2458 c 0,228,229
 2789 2458 2789 2458 2711 2490 c 256,230,231
 2633 2522 2633 2522 2578 2578 c 0,232,233
 2522 2633 2522 2633 2490 2711 c 256,234,235
 2458 2789 2458 2789 2458 2867 c 0,236,237
 2458 2946 2458 2946 2490 3023 c 0,238,239
 2522 3101 2522 3101 2578 3157 c 0,240,241
 2633 3212 2633 3212 2711 3245 c 0,242,243
 2789 3277 2789 3277 2867 3277 c 0,244,245
 2946 3277 2946 3277 3023 3245 c 0,246,247
 3101 3212 3101 3212 3157 3157 c 0,248,249
 3212 3101 3212 3101 3245 3023 c 0,250,251
 3277 2946 3277 2946 3277 2867 c 0,252,253
 3277 2789 3277 2789 3245 2711 c 0,254,255
 3212 2633 3212 2633 3157 2578 c 0,224,225
699 3397 m 0,256,257
 644 3341 644 3341 566 3309 c 256,258,259
 488 3277 488 3277 410 3277 c 0,260,261
 331 3277 331 3277 253 3309 c 256,262,263
 175 3341 175 3341 120 3397 c 0,264,265
 65 3452 65 3452 32 3530 c 0,266,267
 0 3608 0 3608 0 3686 c 0,268,269
 0 3765 0 3765 32 3843 c 0,270,271
 65 3921 65 3921 120 3976 c 256,272,273
 175 4031 175 4031 253 4064 c 0,274,275
 331 4096 331 4096 410 4096 c 0,276,277
 488 4096 488 4096 566 4064 c 0,278,279
 644 4031 644 4031 699 3976 c 0,280,281
 755 3921 755 3921 787 3843 c 256,282,283
 819 3765 819 3765 819 3686 c 0,284,285
 819 3608 819 3608 787 3530 c 256,286,287
 755 3452 755 3452 699 3397 c 0,256,257
3157 3397 m 0,288,289
 3101 3341 3101 3341 3023 3309 c 0,290,291
 2946 3277 2946 3277 2867 3277 c 0,292,293
 2789 3277 2789 3277 2711 3309 c 256,294,295
 2633 3341 2633 3341 2578 3397 c 0,296,297
 2522 3452 2522 3452 2490 3530 c 256,298,299
 2458 3608 2458 3608 2458 3686 c 0,300,301
 2458 3765 2458 3765 2490 3843 c 256,302,303
 2522 3921 2522 3921 2578 3976 c 0,304,305
 2633 4031 2633 4031 2711 4064 c 0,306,307
 2789 4096 2789 4096 2867 4096 c 0,308,309
 2946 4096 2946 4096 3023 4064 c 0,310,311
 3101 4031 3101 4031 3157 3976 c 0,312,313
 3212 3921 3212 3921 3245 3843 c 0,314,315
 3277 3765 3277 3765 3277 3686 c 0,316,317
 3277 3608 3277 3608 3245 3530 c 0,318,319
 3212 3452 3212 3452 3157 3397 c 0,288,289
699 4216 m 0,320,321
 644 4161 644 4161 566 4128 c 0,322,323
 488 4096 488 4096 410 4096 c 0,324,325
 331 4096 331 4096 253 4128 c 0,326,327
 175 4161 175 4161 120 4216 c 256,328,329
 65 4271 65 4271 32 4349 c 0,330,331
 0 4427 0 4427 0 4506 c 0,332,333
 0 4584 0 4584 32 4662 c 0,334,335
 65 4740 65 4740 120 4795 c 0,336,337
 175 4851 175 4851 253 4883 c 256,338,339
 331 4915 331 4915 410 4915 c 0,340,341
 488 4915 488 4915 566 4883 c 256,342,343
 644 4851 644 4851 699 4795 c 0,344,345
 755 4740 755 4740 787 4662 c 256,346,347
 819 4584 819 4584 819 4506 c 0,348,349
 819 4427 819 4427 787 4349 c 256,350,351
 755 4271 755 4271 699 4216 c 0,320,321
3157 4216 m 0,352,353
 3101 4161 3101 4161 3023 4128 c 0,354,355
 2946 4096 2946 4096 2867 4096 c 0,356,357
 2789 4096 2789 4096 2711 4128 c 0,358,359
 2633 4161 2633 4161 2578 4216 c 0,360,361
 2522 4271 2522 4271 2490 4349 c 256,362,363
 2458 4427 2458 4427 2458 4506 c 0,364,365
 2458 4584 2458 4584 2490 4662 c 256,366,367
 2522 4740 2522 4740 2578 4795 c 0,368,369
 2633 4851 2633 4851 2711 4883 c 256,370,371
 2789 4915 2789 4915 2867 4915 c 0,372,373
 2946 4915 2946 4915 3023 4883 c 0,374,375
 3101 4851 3101 4851 3157 4795 c 0,376,377
 3212 4740 3212 4740 3245 4662 c 0,378,379
 3277 4584 3277 4584 3277 4506 c 0,380,381
 3277 4427 3277 4427 3245 4349 c 0,382,383
 3212 4271 3212 4271 3157 4216 c 0,352,353
1518 5035 m 0,384,385
 1463 4980 1463 4980 1385 4947 c 0,386,387
 1307 4915 1307 4915 1229 4915 c 0,388,389
 1150 4915 1150 4915 1073 4947 c 0,390,391
 995 4980 995 4980 939 5035 c 0,392,393
 884 5091 884 5091 851 5169 c 0,394,395
 819 5246 819 5246 819 5325 c 0,396,397
 819 5403 819 5403 851 5481 c 0,398,399
 884 5559 884 5559 939 5614 c 0,400,401
 995 5670 995 5670 1073 5702 c 0,402,403
 1150 5734 1150 5734 1229 5734 c 0,404,405
 1307 5734 1307 5734 1385 5702 c 256,406,407
 1463 5670 1463 5670 1518 5614 c 0,408,409
 1574 5559 1574 5559 1606 5481 c 256,410,411
 1638 5403 1638 5403 1638 5325 c 0,412,413
 1638 5246 1638 5246 1606 5169 c 0,414,415
 1574 5091 1574 5091 1518 5035 c 0,384,385
2338 5035 m 0,416,417
 2282 4980 2282 4980 2204 4947 c 0,418,419
 2126 4915 2126 4915 2048 4915 c 256,420,421
 1970 4915 1970 4915 1892 4947 c 0,422,423
 1814 4980 1814 4980 1758 5035 c 0,424,425
 1703 5091 1703 5091 1671 5169 c 0,426,427
 1638 5246 1638 5246 1638 5325 c 0,428,429
 1638 5403 1638 5403 1671 5481 c 0,430,431
 1703 5559 1703 5559 1758 5614 c 0,432,433
 1814 5670 1814 5670 1892 5702 c 256,434,435
 1970 5734 1970 5734 2048 5734 c 256,436,437
 2126 5734 2126 5734 2204 5702 c 256,438,439
 2282 5670 2282 5670 2338 5614 c 0,440,441
 2393 5559 2393 5559 2425 5481 c 0,442,443
 2458 5403 2458 5403 2458 5325 c 0,444,445
 2458 5246 2458 5246 2425 5169 c 0,446,447
 2393 5091 2393 5091 2338 5035 c 0,416,417
EndSplineSet
Validated: 5
EndChar

StartChar: colon
Encoding: 58 58 28
Width: 1639
GlyphClass: 1
Flags: W
LayerCount: 2
Fore
SplineSet
699 939 m 0,0,1
 644 884 644 884 566 851 c 0,2,3
 488 819 488 819 410 819 c 0,4,5
 331 819 331 819 253 851 c 0,6,7
 175 884 175 884 120 939 c 0,8,9
 65 995 65 995 32 1073 c 0,10,11
 0 1150 0 1150 0 1229 c 0,12,13
 0 1307 0 1307 32 1385 c 0,14,15
 65 1463 65 1463 120 1518 c 0,16,17
 175 1574 175 1574 253 1606 c 256,18,19
 331 1638 331 1638 410 1638 c 0,20,21
 488 1638 488 1638 566 1606 c 256,22,23
 644 1574 644 1574 699 1518 c 0,24,25
 755 1463 755 1463 787 1385 c 256,26,27
 819 1307 819 1307 819 1229 c 0,28,29
 819 1150 819 1150 787 1073 c 0,30,31
 755 995 755 995 699 939 c 0,0,1
699 2578 m 0,32,33
 644 2522 644 2522 566 2490 c 256,34,35
 488 2458 488 2458 410 2458 c 0,36,37
 331 2458 331 2458 253 2490 c 256,38,39
 175 2522 175 2522 120 2578 c 0,40,41
 65 2633 65 2633 32 2711 c 0,42,43
 0 2789 0 2789 0 2867 c 0,44,45
 0 2946 0 2946 32 3023 c 0,46,47
 65 3101 65 3101 120 3157 c 0,48,49
 175 3212 175 3212 253 3245 c 0,50,51
 331 3277 331 3277 410 3277 c 0,52,53
 488 3277 488 3277 566 3245 c 0,54,55
 644 3212 644 3212 699 3157 c 0,56,57
 755 3101 755 3101 787 3023 c 0,58,59
 819 2946 819 2946 819 2867 c 0,60,61
 819 2789 819 2789 787 2711 c 256,62,63
 755 2633 755 2633 699 2578 c 0,32,33
EndSplineSet
Validated: 1
EndChar

StartChar: semicolon
Encoding: 59 59 29
Width: 2458
GlyphClass: 1
Flags: W
LayerCount: 2
Fore
SplineSet
699 -699 m 0,0,1
 644 -755 644 -755 566 -787 c 256,2,3
 488 -819 488 -819 410 -819 c 0,4,5
 331 -819 331 -819 253 -787 c 256,6,7
 175 -755 175 -755 120 -699 c 0,8,9
 65 -644 65 -644 32 -566 c 0,10,11
 0 -488 0 -488 0 -410 c 0,12,13
 0 -331 0 -331 32 -253 c 0,14,15
 65 -175 65 -175 120 -120 c 256,16,17
 175 -65 175 -65 253 -32 c 0,18,19
 331 0 331 0 410 0 c 0,20,21
 451 0 451 0 492 -9 c 0,22,23
 529 -17 529 -17 566 -32 c 0,24,25
 644 -65 644 -65 699 -120 c 0,26,27
 755 -175 755 -175 787 -253 c 256,28,29
 819 -331 819 -331 819 -410 c 0,30,31
 819 -488 819 -488 787 -566 c 256,32,33
 755 -644 755 -644 699 -699 c 0,0,1
1518 120 m 0,34,35
 1463 65 1463 65 1385 32 c 0,36,37
 1307 0 1307 0 1229 0 c 0,38,39
 1150 0 1150 0 1073 32 c 0,40,41
 995 65 995 65 939 120 c 0,42,43
 884 175 884 175 851 253 c 0,44,45
 819 331 819 331 819 410 c 0,46,47
 819 488 819 488 851 566 c 0,48,49
 884 644 884 644 939 699 c 0,50,51
 995 755 995 755 1073 787 c 0,52,53
 1150 819 1150 819 1229 819 c 0,54,55
 1307 819 1307 819 1385 787 c 256,56,57
 1463 755 1463 755 1518 699 c 0,58,59
 1574 644 1574 644 1606 566 c 256,60,61
 1638 488 1638 488 1638 410 c 0,62,63
 1638 331 1638 331 1606 253 c 256,64,65
 1574 175 1574 175 1518 120 c 0,34,35
1518 2578 m 0,66,67
 1463 2522 1463 2522 1385 2490 c 256,68,69
 1307 2458 1307 2458 1229 2458 c 0,70,71
 1188 2458 1188 2458 1146 2467 c 0,72,73
 1109 2475 1109 2475 1073 2490 c 0,74,75
 995 2522 995 2522 939 2578 c 0,76,77
 884 2633 884 2633 851 2711 c 0,78,79
 819 2789 819 2789 819 2867 c 0,80,81
 819 2946 819 2946 851 3023 c 0,82,83
 884 3101 884 3101 939 3157 c 0,84,85
 995 3212 995 3212 1073 3245 c 0,86,87
 1150 3277 1150 3277 1229 3277 c 0,88,89
 1307 3277 1307 3277 1385 3245 c 0,90,91
 1463 3212 1463 3212 1518 3157 c 0,92,93
 1574 3101 1574 3101 1606 3023 c 0,94,95
 1638 2946 1638 2946 1638 2867 c 0,96,97
 1638 2789 1638 2789 1606 2711 c 256,98,99
 1574 2633 1574 2633 1518 2578 c 0,66,67
1518 939 m 0,100,101
 1463 884 1463 884 1385 851 c 0,102,103
 1307 819 1307 819 1229 819 c 0,104,105
 1150 819 1150 819 1073 851 c 0,106,107
 995 884 995 884 939 939 c 0,108,109
 884 995 884 995 851 1073 c 0,110,111
 819 1150 819 1150 819 1229 c 0,112,113
 819 1307 819 1307 851 1385 c 0,114,115
 884 1463 884 1463 939 1518 c 0,116,117
 995 1574 995 1574 1073 1606 c 0,118,119
 1150 1638 1150 1638 1229 1638 c 0,120,121
 1307 1638 1307 1638 1385 1606 c 256,122,123
 1463 1574 1463 1574 1518 1518 c 0,124,125
 1574 1463 1574 1463 1606 1385 c 256,126,127
 1638 1307 1638 1307 1638 1229 c 0,128,129
 1638 1150 1638 1150 1606 1073 c 0,130,131
 1574 995 1574 995 1518 939 c 0,100,101
EndSplineSet
Validated: 5
EndChar

StartChar: less
Encoding: 60 60 30
Width: 3277
GlyphClass: 1
Flags: W
LayerCount: 2
Fore
SplineSet
699 1758 m 0,0,1
 644 1703 644 1703 566 1671 c 0,2,3
 488 1638 488 1638 410 1638 c 0,4,5
 331 1638 331 1638 253 1671 c 0,6,7
 175 1703 175 1703 120 1758 c 0,8,9
 65 1814 65 1814 32 1892 c 0,10,11
 0 1970 0 1970 0 2048 c 256,12,13
 0 2126 0 2126 32 2204 c 0,14,15
 65 2282 65 2282 120 2338 c 0,16,17
 175 2393 175 2393 253 2425 c 0,18,19
 331 2458 331 2458 410 2458 c 0,20,21
 488 2458 488 2458 566 2425 c 0,22,23
 644 2393 644 2393 699 2338 c 0,24,25
 755 2282 755 2282 787 2204 c 256,26,27
 819 2126 819 2126 819 2048 c 256,28,29
 819 1970 819 1970 787 1892 c 256,30,31
 755 1814 755 1814 699 1758 c 0,0,1
1518 2578 m 0,32,33
 1463 2522 1463 2522 1385 2490 c 256,34,35
 1307 2458 1307 2458 1229 2458 c 0,36,37
 1150 2458 1150 2458 1073 2490 c 0,38,39
 995 2522 995 2522 939 2578 c 0,40,41
 884 2633 884 2633 851 2711 c 0,42,43
 819 2789 819 2789 819 2867 c 0,44,45
 819 2946 819 2946 851 3023 c 0,46,47
 884 3101 884 3101 939 3157 c 0,48,49
 995 3212 995 3212 1073 3245 c 0,50,51
 1150 3277 1150 3277 1229 3277 c 0,52,53
 1307 3277 1307 3277 1385 3245 c 0,54,55
 1463 3212 1463 3212 1518 3157 c 0,56,57
 1574 3101 1574 3101 1606 3023 c 0,58,59
 1638 2946 1638 2946 1638 2867 c 0,60,61
 1638 2789 1638 2789 1606 2711 c 256,62,63
 1574 2633 1574 2633 1518 2578 c 0,32,33
2338 3397 m 0,64,65
 2282 3341 2282 3341 2204 3309 c 256,66,67
 2126 3277 2126 3277 2048 3277 c 256,68,69
 1970 3277 1970 3277 1892 3309 c 256,70,71
 1814 3341 1814 3341 1758 3397 c 0,72,73
 1703 3452 1703 3452 1671 3530 c 0,74,75
 1638 3608 1638 3608 1638 3686 c 0,76,77
 1638 3765 1638 3765 1671 3843 c 0,78,79
 1703 3921 1703 3921 1758 3976 c 0,80,81
 1814 4031 1814 4031 1892 4064 c 0,82,83
 1970 4096 1970 4096 2048 4096 c 256,84,85
 2126 4096 2126 4096 2204 4064 c 0,86,87
 2282 4031 2282 4031 2338 3976 c 0,88,89
 2393 3921 2393 3921 2425 3843 c 0,90,91
 2458 3765 2458 3765 2458 3686 c 0,92,93
 2458 3608 2458 3608 2425 3530 c 0,94,95
 2393 3452 2393 3452 2338 3397 c 0,64,65
2338 120 m 0,96,97
 2282 65 2282 65 2204 32 c 0,98,99
 2126 0 2126 0 2048 0 c 256,100,101
 1970 0 1970 0 1892 32 c 0,102,103
 1814 65 1814 65 1758 120 c 0,104,105
 1703 175 1703 175 1671 253 c 0,106,107
 1638 331 1638 331 1638 410 c 0,108,109
 1638 488 1638 488 1671 566 c 0,110,111
 1703 644 1703 644 1758 699 c 0,112,113
 1814 755 1814 755 1892 787 c 256,114,115
 1970 819 1970 819 2048 819 c 256,116,117
 2126 819 2126 819 2204 787 c 256,118,119
 2282 755 2282 755 2338 699 c 0,120,121
 2393 644 2393 644 2425 566 c 0,122,123
 2458 488 2458 488 2458 410 c 0,124,125
 2458 331 2458 331 2425 253 c 0,126,127
 2393 175 2393 175 2338 120 c 0,96,97
1518 939 m 0,128,129
 1463 884 1463 884 1385 851 c 0,130,131
 1307 819 1307 819 1229 819 c 0,132,133
 1150 819 1150 819 1073 851 c 0,134,135
 995 884 995 884 939 939 c 0,136,137
 884 995 884 995 851 1073 c 0,138,139
 819 1150 819 1150 819 1229 c 0,140,141
 819 1307 819 1307 851 1385 c 0,142,143
 884 1463 884 1463 939 1518 c 0,144,145
 995 1574 995 1574 1073 1606 c 0,146,147
 1150 1638 1150 1638 1229 1638 c 0,148,149
 1307 1638 1307 1638 1385 1606 c 256,150,151
 1463 1574 1463 1574 1518 1518 c 0,152,153
 1574 1463 1574 1463 1606 1385 c 256,154,155
 1638 1307 1638 1307 1638 1229 c 0,156,157
 1638 1150 1638 1150 1606 1073 c 0,158,159
 1574 995 1574 995 1518 939 c 0,128,129
EndSplineSet
Validated: 1
EndChar

StartChar: equal
Encoding: 61 61 31
Width: 4096
GlyphClass: 1
Flags: W
LayerCount: 2
Fore
SplineSet
699 939 m 0,0,1
 644 884 644 884 566 851 c 0,2,3
 488 819 488 819 410 819 c 0,4,5
 331 819 331 819 253 851 c 0,6,7
 175 884 175 884 120 939 c 0,8,9
 65 995 65 995 32 1073 c 0,10,11
 0 1150 0 1150 0 1229 c 0,12,13
 0 1307 0 1307 32 1385 c 0,14,15
 65 1463 65 1463 120 1518 c 0,16,17
 175 1574 175 1574 253 1606 c 256,18,19
 331 1638 331 1638 410 1638 c 0,20,21
 488 1638 488 1638 566 1606 c 256,22,23
 644 1574 644 1574 699 1518 c 0,24,25
 755 1463 755 1463 787 1385 c 256,26,27
 819 1307 819 1307 819 1229 c 0,28,29
 819 1150 819 1150 787 1073 c 0,30,31
 755 995 755 995 699 939 c 0,0,1
1518 939 m 0,32,33
 1463 884 1463 884 1385 851 c 0,34,35
 1307 819 1307 819 1229 819 c 0,36,37
 1150 819 1150 819 1073 851 c 0,38,39
 995 884 995 884 939 939 c 0,40,41
 884 995 884 995 851 1073 c 0,42,43
 819 1150 819 1150 819 1229 c 0,44,45
 819 1307 819 1307 851 1385 c 0,46,47
 884 1463 884 1463 939 1518 c 0,48,49
 995 1574 995 1574 1073 1606 c 0,50,51
 1150 1638 1150 1638 1229 1638 c 0,52,53
 1307 1638 1307 1638 1385 1606 c 256,54,55
 1463 1574 1463 1574 1518 1518 c 0,56,57
 1574 1463 1574 1463 1606 1385 c 256,58,59
 1638 1307 1638 1307 1638 1229 c 0,60,61
 1638 1150 1638 1150 1606 1073 c 0,62,63
 1574 995 1574 995 1518 939 c 0,32,33
2338 939 m 0,64,65
 2282 884 2282 884 2204 851 c 0,66,67
 2126 819 2126 819 2048 819 c 256,68,69
 1970 819 1970 819 1892 851 c 0,70,71
 1814 884 1814 884 1758 939 c 0,72,73
 1703 995 1703 995 1671 1073 c 0,74,75
 1638 1150 1638 1150 1638 1229 c 0,76,77
 1638 1307 1638 1307 1671 1385 c 0,78,79
 1703 1463 1703 1463 1758 1518 c 0,80,81
 1814 1574 1814 1574 1892 1606 c 256,82,83
 1970 1638 1970 1638 2048 1638 c 256,84,85
 2126 1638 2126 1638 2204 1606 c 256,86,87
 2282 1574 2282 1574 2338 1518 c 0,88,89
 2393 1463 2393 1463 2425 1385 c 0,90,91
 2458 1307 2458 1307 2458 1229 c 0,92,93
 2458 1150 2458 1150 2425 1073 c 0,94,95
 2393 995 2393 995 2338 939 c 0,64,65
3157 939 m 0,96,97
 3101 884 3101 884 3023 851 c 0,98,99
 2946 819 2946 819 2867 819 c 0,100,101
 2789 819 2789 819 2711 851 c 0,102,103
 2633 884 2633 884 2578 939 c 0,104,105
 2522 995 2522 995 2490 1073 c 0,106,107
 2458 1150 2458 1150 2458 1229 c 0,108,109
 2458 1307 2458 1307 2490 1385 c 256,110,111
 2522 1463 2522 1463 2578 1518 c 0,112,113
 2633 1574 2633 1574 2711 1606 c 256,114,115
 2789 1638 2789 1638 2867 1638 c 0,116,117
 2946 1638 2946 1638 3023 1606 c 0,118,119
 3101 1574 3101 1574 3157 1518 c 0,120,121
 3212 1463 3212 1463 3245 1385 c 0,122,123
 3277 1307 3277 1307 3277 1229 c 0,124,125
 3277 1150 3277 1150 3245 1073 c 0,126,127
 3212 995 3212 995 3157 939 c 0,96,97
699 2578 m 0,128,129
 644 2522 644 2522 566 2490 c 256,130,131
 488 2458 488 2458 410 2458 c 0,132,133
 331 2458 331 2458 253 2490 c 256,134,135
 175 2522 175 2522 120 2578 c 0,136,137
 65 2633 65 2633 32 2711 c 0,138,139
 0 2789 0 2789 0 2867 c 0,140,141
 0 2946 0 2946 32 3023 c 0,142,143
 65 3101 65 3101 120 3157 c 0,144,145
 175 3212 175 3212 253 3245 c 0,146,147
 331 3277 331 3277 410 3277 c 0,148,149
 488 3277 488 3277 566 3245 c 0,150,151
 644 3212 644 3212 699 3157 c 0,152,153
 755 3101 755 3101 787 3023 c 0,154,155
 819 2946 819 2946 819 2867 c 0,156,157
 819 2789 819 2789 787 2711 c 256,158,159
 755 2633 755 2633 699 2578 c 0,128,129
1518 2578 m 0,160,161
 1463 2522 1463 2522 1385 2490 c 256,162,163
 1307 2458 1307 2458 1229 2458 c 0,164,165
 1150 2458 1150 2458 1073 2490 c 0,166,167
 995 2522 995 2522 939 2578 c 0,168,169
 884 2633 884 2633 851 2711 c 0,170,171
 819 2789 819 2789 819 2867 c 0,172,173
 819 2946 819 2946 851 3023 c 0,174,175
 884 3101 884 3101 939 3157 c 0,176,177
 995 3212 995 3212 1073 3245 c 0,178,179
 1150 3277 1150 3277 1229 3277 c 0,180,181
 1307 3277 1307 3277 1385 3245 c 0,182,183
 1463 3212 1463 3212 1518 3157 c 0,184,185
 1574 3101 1574 3101 1606 3023 c 0,186,187
 1638 2946 1638 2946 1638 2867 c 0,188,189
 1638 2789 1638 2789 1606 2711 c 256,190,191
 1574 2633 1574 2633 1518 2578 c 0,160,161
2338 2578 m 0,192,193
 2282 2522 2282 2522 2204 2490 c 256,194,195
 2126 2458 2126 2458 2048 2458 c 256,196,197
 1970 2458 1970 2458 1892 2490 c 256,198,199
 1814 2522 1814 2522 1758 2578 c 0,200,201
 1703 2633 1703 2633 1671 2711 c 0,202,203
 1638 2789 1638 2789 1638 2867 c 0,204,205
 1638 2946 1638 2946 1671 3023 c 0,206,207
 1703 3101 1703 3101 1758 3157 c 0,208,209
 1814 3212 1814 3212 1892 3245 c 0,210,211
 1970 3277 1970 3277 2048 3277 c 256,212,213
 2126 3277 2126 3277 2204 3245 c 0,214,215
 2282 3212 2282 3212 2338 3157 c 0,216,217
 2393 3101 2393 3101 2425 3023 c 0,218,219
 2458 2946 2458 2946 2458 2867 c 0,220,221
 2458 2789 2458 2789 2425 2711 c 0,222,223
 2393 2633 2393 2633 2338 2578 c 0,192,193
3157 2578 m 0,224,225
 3101 2522 3101 2522 3023 2490 c 0,226,227
 2946 2458 2946 2458 2867 2458 c 0,228,229
 2789 2458 2789 2458 2711 2490 c 256,230,231
 2633 2522 2633 2522 2578 2578 c 0,232,233
 2522 2633 2522 2633 2490 2711 c 256,234,235
 2458 2789 2458 2789 2458 2867 c 0,236,237
 2458 2946 2458 2946 2490 3023 c 0,238,239
 2522 3101 2522 3101 2578 3157 c 0,240,241
 2633 3212 2633 3212 2711 3245 c 0,242,243
 2789 3277 2789 3277 2867 3277 c 0,244,245
 2946 3277 2946 3277 3023 3245 c 0,246,247
 3101 3212 3101 3212 3157 3157 c 0,248,249
 3212 3101 3212 3101 3245 3023 c 0,250,251
 3277 2946 3277 2946 3277 2867 c 0,252,253
 3277 2789 3277 2789 3245 2711 c 0,254,255
 3212 2633 3212 2633 3157 2578 c 0,224,225
EndSplineSet
Validated: 5
EndChar

StartChar: greater
Encoding: 62 62 32
Width: 3277
GlyphClass: 1
Flags: W
LayerCount: 2
Fore
SplineSet
2338 1758 m 0,0,1
 2282 1703 2282 1703 2204 1671 c 0,2,3
 2126 1638 2126 1638 2048 1638 c 256,4,5
 1970 1638 1970 1638 1892 1671 c 0,6,7
 1814 1703 1814 1703 1758 1758 c 0,8,9
 1703 1814 1703 1814 1671 1892 c 0,10,11
 1638 1970 1638 1970 1638 2048 c 256,12,13
 1638 2126 1638 2126 1671 2204 c 0,14,15
 1703 2282 1703 2282 1758 2338 c 0,16,17
 1814 2393 1814 2393 1892 2425 c 0,18,19
 1970 2458 1970 2458 2048 2458 c 256,20,21
 2126 2458 2126 2458 2204 2425 c 0,22,23
 2282 2393 2282 2393 2338 2338 c 0,24,25
 2393 2282 2393 2282 2425 2204 c 0,26,27
 2458 2126 2458 2126 2458 2048 c 256,28,29
 2458 1970 2458 1970 2425 1892 c 0,30,31
 2393 1814 2393 1814 2338 1758 c 0,0,1
1518 2578 m 0,32,33
 1463 2522 1463 2522 1385 2490 c 256,34,35
 1307 2458 1307 2458 1229 2458 c 0,36,37
 1150 2458 1150 2458 1073 2490 c 0,38,39
 995 2522 995 2522 939 2578 c 0,40,41
 884 2633 884 2633 851 2711 c 0,42,43
 819 2789 819 2789 819 2867 c 0,44,45
 819 2946 819 2946 851 3023 c 0,46,47
 884 3101 884 3101 939 3157 c 0,48,49
 995 3212 995 3212 1073 3245 c 0,50,51
 1150 3277 1150 3277 1229 3277 c 0,52,53
 1307 3277 1307 3277 1385 3245 c 0,54,55
 1463 3212 1463 3212 1518 3157 c 0,56,57
 1574 3101 1574 3101 1606 3023 c 0,58,59
 1638 2946 1638 2946 1638 2867 c 0,60,61
 1638 2789 1638 2789 1606 2711 c 256,62,63
 1574 2633 1574 2633 1518 2578 c 0,32,33
699 3397 m 0,64,65
 644 3341 644 3341 566 3309 c 256,66,67
 488 3277 488 3277 410 3277 c 0,68,69
 331 3277 331 3277 253 3309 c 256,70,71
 175 3341 175 3341 120 3397 c 0,72,73
 65 3452 65 3452 32 3530 c 0,74,75
 0 3608 0 3608 0 3686 c 0,76,77
 0 3765 0 3765 32 3843 c 0,78,79
 65 3921 65 3921 120 3976 c 256,80,81
 175 4031 175 4031 253 4064 c 0,82,83
 331 4096 331 4096 410 4096 c 0,84,85
 488 4096 488 4096 566 4064 c 0,86,87
 644 4031 644 4031 699 3976 c 0,88,89
 755 3921 755 3921 787 3843 c 256,90,91
 819 3765 819 3765 819 3686 c 0,92,93
 819 3608 819 3608 787 3530 c 256,94,95
 755 3452 755 3452 699 3397 c 0,64,65
699 120 m 0,96,97
 644 65 644 65 566 32 c 0,98,99
 488 0 488 0 410 0 c 0,100,101
 331 0 331 0 253 32 c 0,102,103
 175 65 175 65 120 120 c 256,104,105
 65 175 65 175 32 253 c 0,106,107
 0 331 0 331 0 410 c 0,108,109
 0 488 0 488 32 566 c 0,110,111
 65 644 65 644 120 699 c 0,112,113
 175 755 175 755 253 787 c 256,114,115
 331 819 331 819 410 819 c 0,116,117
 488 819 488 819 566 787 c 256,118,119
 644 755 644 755 699 699 c 0,120,121
 755 644 755 644 787 566 c 256,122,123
 819 488 819 488 819 410 c 0,124,125
 819 331 819 331 787 253 c 256,126,127
 755 175 755 175 699 120 c 0,96,97
1518 939 m 0,128,129
 1463 884 1463 884 1385 851 c 0,130,131
 1307 819 1307 819 1229 819 c 0,132,133
 1150 819 1150 819 1073 851 c 0,134,135
 995 884 995 884 939 939 c 0,136,137
 884 995 884 995 851 1073 c 0,138,139
 819 1150 819 1150 819 1229 c 0,140,141
 819 1307 819 1307 851 1385 c 0,142,143
 884 1463 884 1463 939 1518 c 0,144,145
 995 1574 995 1574 1073 1606 c 0,146,147
 1150 1638 1150 1638 1229 1638 c 0,148,149
 1307 1638 1307 1638 1385 1606 c 256,150,151
 1463 1574 1463 1574 1518 1518 c 0,152,153
 1574 1463 1574 1463 1606 1385 c 256,154,155
 1638 1307 1638 1307 1638 1229 c 0,156,157
 1638 1150 1638 1150 1606 1073 c 0,158,159
 1574 995 1574 995 1518 939 c 0,128,129
EndSplineSet
Validated: 1
EndChar

StartChar: question
Encoding: 63 63 33
Width: 4096
GlyphClass: 1
Flags: W
LayerCount: 2
Fore
SplineSet
1518 1758 m 0,0,1
 1463 1703 1463 1703 1385 1671 c 0,2,3
 1307 1638 1307 1638 1229 1638 c 0,4,5
 1150 1638 1150 1638 1073 1671 c 0,6,7
 995 1703 995 1703 939 1758 c 0,8,9
 884 1814 884 1814 851 1892 c 0,10,11
 819 1970 819 1970 819 2048 c 256,12,13
 819 2126 819 2126 851 2204 c 0,14,15
 884 2282 884 2282 939 2338 c 0,16,17
 995 2393 995 2393 1073 2425 c 0,18,19
 1150 2458 1150 2458 1229 2458 c 0,20,21
 1307 2458 1307 2458 1385 2425 c 0,22,23
 1463 2393 1463 2393 1518 2338 c 0,24,25
 1574 2282 1574 2282 1606 2204 c 256,26,27
 1638 2126 1638 2126 1638 2048 c 256,28,29
 1638 1970 1638 1970 1606 1892 c 256,30,31
 1574 1814 1574 1814 1518 1758 c 0,0,1
2338 2578 m 0,32,33
 2282 2522 2282 2522 2204 2490 c 256,34,35
 2126 2458 2126 2458 2048 2458 c 256,36,37
 1970 2458 1970 2458 1892 2490 c 256,38,39
 1814 2522 1814 2522 1758 2578 c 0,40,41
 1703 2633 1703 2633 1671 2711 c 0,42,43
 1638 2789 1638 2789 1638 2867 c 0,44,45
 1638 2946 1638 2946 1671 3023 c 0,46,47
 1703 3101 1703 3101 1758 3157 c 0,48,49
 1814 3212 1814 3212 1892 3245 c 0,50,51
 1970 3277 1970 3277 2048 3277 c 256,52,53
 2126 3277 2126 3277 2204 3245 c 0,54,55
 2282 3212 2282 3212 2338 3157 c 0,56,57
 2393 3101 2393 3101 2425 3023 c 0,58,59
 2458 2946 2458 2946 2458 2867 c 0,60,61
 2458 2789 2458 2789 2425 2711 c 0,62,63
 2393 2633 2393 2633 2338 2578 c 0,32,33
3157 3397 m 0,64,65
 3101 3341 3101 3341 3023 3309 c 0,66,67
 2946 3277 2946 3277 2867 3277 c 0,68,69
 2789 3277 2789 3277 2711 3309 c 256,70,71
 2633 3341 2633 3341 2578 3397 c 0,72,73
 2522 3452 2522 3452 2490 3530 c 256,74,75
 2458 3608 2458 3608 2458 3686 c 0,76,77
 2458 3765 2458 3765 2490 3843 c 256,78,79
 2522 3921 2522 3921 2578 3976 c 0,80,81
 2633 4031 2633 4031 2711 4064 c 0,82,83
 2789 4096 2789 4096 2867 4096 c 0,84,85
 2946 4096 2946 4096 3023 4064 c 0,86,87
 3101 4031 3101 4031 3157 3976 c 0,88,89
 3212 3921 3212 3921 3245 3843 c 0,90,91
 3277 3765 3277 3765 3277 3686 c 0,92,93
 3277 3608 3277 3608 3245 3530 c 0,94,95
 3212 3452 3212 3452 3157 3397 c 0,64,65
699 4216 m 0,96,97
 644 4161 644 4161 566 4128 c 0,98,99
 488 4096 488 4096 410 4096 c 0,100,101
 331 4096 331 4096 253 4128 c 0,102,103
 175 4161 175 4161 120 4216 c 256,104,105
 65 4271 65 4271 32 4349 c 0,106,107
 0 4427 0 4427 0 4506 c 0,108,109
 0 4584 0 4584 32 4662 c 0,110,111
 65 4740 65 4740 120 4795 c 0,112,113
 175 4851 175 4851 253 4883 c 256,114,115
 331 4915 331 4915 410 4915 c 0,116,117
 488 4915 488 4915 566 4883 c 256,118,119
 644 4851 644 4851 699 4795 c 0,120,121
 755 4740 755 4740 787 4662 c 256,122,123
 819 4584 819 4584 819 4506 c 0,124,125
 819 4427 819 4427 787 4349 c 256,126,127
 755 4271 755 4271 699 4216 c 0,96,97
3157 4216 m 0,128,129
 3101 4161 3101 4161 3023 4128 c 0,130,131
 2946 4096 2946 4096 2867 4096 c 0,132,133
 2789 4096 2789 4096 2711 4128 c 0,134,135
 2633 4161 2633 4161 2578 4216 c 0,136,137
 2522 4271 2522 4271 2490 4349 c 256,138,139
 2458 4427 2458 4427 2458 4506 c 0,140,141
 2458 4584 2458 4584 2490 4662 c 256,142,143
 2522 4740 2522 4740 2578 4795 c 0,144,145
 2633 4851 2633 4851 2711 4883 c 256,146,147
 2789 4915 2789 4915 2867 4915 c 0,148,149
 2946 4915 2946 4915 3023 4883 c 0,150,151
 3101 4851 3101 4851 3157 4795 c 0,152,153
 3212 4740 3212 4740 3245 4662 c 0,154,155
 3277 4584 3277 4584 3277 4506 c 0,156,157
 3277 4427 3277 4427 3245 4349 c 0,158,159
 3212 4271 3212 4271 3157 4216 c 0,128,129
1518 5035 m 0,160,161
 1463 4980 1463 4980 1385 4947 c 0,162,163
 1307 4915 1307 4915 1229 4915 c 0,164,165
 1150 4915 1150 4915 1073 4947 c 0,166,167
 995 4980 995 4980 939 5035 c 0,168,169
 884 5091 884 5091 851 5169 c 0,170,171
 819 5246 819 5246 819 5325 c 0,172,173
 819 5403 819 5403 851 5481 c 0,174,175
 884 5559 884 5559 939 5614 c 0,176,177
 995 5670 995 5670 1073 5702 c 0,178,179
 1150 5734 1150 5734 1229 5734 c 0,180,181
 1307 5734 1307 5734 1385 5702 c 256,182,183
 1463 5670 1463 5670 1518 5614 c 0,184,185
 1574 5559 1574 5559 1606 5481 c 256,186,187
 1638 5403 1638 5403 1638 5325 c 0,188,189
 1638 5246 1638 5246 1606 5169 c 0,190,191
 1574 5091 1574 5091 1518 5035 c 0,160,161
2338 5035 m 0,192,193
 2282 4980 2282 4980 2204 4947 c 0,194,195
 2126 4915 2126 4915 2048 4915 c 256,196,197
 1970 4915 1970 4915 1892 4947 c 0,198,199
 1814 4980 1814 4980 1758 5035 c 0,200,201
 1703 5091 1703 5091 1671 5169 c 0,202,203
 1638 5246 1638 5246 1638 5325 c 0,204,205
 1638 5403 1638 5403 1671 5481 c 0,206,207
 1703 5559 1703 5559 1758 5614 c 0,208,209
 1814 5670 1814 5670 1892 5702 c 256,210,211
 1970 5734 1970 5734 2048 5734 c 256,212,213
 2126 5734 2126 5734 2204 5702 c 256,214,215
 2282 5670 2282 5670 2338 5614 c 0,216,217
 2393 5559 2393 5559 2425 5481 c 0,218,219
 2458 5403 2458 5403 2458 5325 c 0,220,221
 2458 5246 2458 5246 2425 5169 c 0,222,223
 2393 5091 2393 5091 2338 5035 c 0,192,193
1518 120 m 0,224,225
 1463 65 1463 65 1385 32 c 0,226,227
 1307 0 1307 0 1229 0 c 0,228,229
 1150 0 1150 0 1073 32 c 0,230,231
 995 65 995 65 939 120 c 0,232,233
 884 175 884 175 851 253 c 0,234,235
 819 331 819 331 819 410 c 0,236,237
 819 488 819 488 851 566 c 0,238,239
 884 644 884 644 939 699 c 0,240,241
 995 755 995 755 1073 787 c 0,242,243
 1150 819 1150 819 1229 819 c 0,244,245
 1307 819 1307 819 1385 787 c 256,246,247
 1463 755 1463 755 1518 699 c 0,248,249
 1574 644 1574 644 1606 566 c 256,250,251
 1638 488 1638 488 1638 410 c 0,252,253
 1638 331 1638 331 1606 253 c 256,254,255
 1574 175 1574 175 1518 120 c 0,224,225
EndSplineSet
Validated: 5
EndChar

